<svg xmlns="http://www.w3.org/2000/svg" xmlns:xlink="http://www.w3.org/1999/xlink" xmlns:lucid="lucid" width="1224" height="402"><g transform="translate(-97 -179)" lucid:page-tab-id="0_0"><path d="M0 0h1870.4v1323.2H0z" fill="#fff"/><path d="M610 200c16.57 0 30 13.43 30 30v159.3c0 16.57-13.43 30-30 30H310c-16.57 0-30-13.43-30-30V230c0-16.57 13.43-30 30-30z" stroke="#3788a5" stroke-width="2" fill="#3788a5"/><path d="M302.5 215.77h180v40h-180z" stroke="#000" stroke-opacity="0" stroke-width="2" fill="#fff" fill-opacity="0"/><use xlink:href="#a" transform="matrix(1,0,0,1,307.5,220.77065873625665) translate(0 18.15)"/><path d="M360 279.3h200v80H360z" stroke="#2e2f27" stroke-width="2" fill="#fff"/><use xlink:href="#b" transform="matrix(1,0,0,1,365,284.3032286526648) translate(11.099999999999994 38.4625)"/><use xlink:href="#c" transform="matrix(1,0,0,1,365,284.3032286526648) translate(98 38.4625)"/><path d="M201.53 320.3H101v-2h100.53zm138.97 0h-83.02v-2h83.02z" stroke="#2e2f27" stroke-width=".05" fill="#2e2f27"/><path d="M101.03 320.3H100v-2h1.03z" stroke="#2e2f27" stroke-width=".05" fill="#2e2f27"/><path d="M355.76 319.3l-14.26 4.64v-9.27z" fill="#2e2f27"/><path d="M359 319.3l-18.5 6v-12zm-16.5 3.26l10.03-3.26-10.03-3.26z" stroke="#2e2f27" stroke-width=".05" fill="#2e2f27"/><use xlink:href="#d" transform="matrix(1,0,0,1,201.525,308.5032286526648) translate(0 14.4)"/><use xlink:href="#e" transform="matrix(1,0,0,1,201.525,308.5032286526648) translate(20.95 14.4)"/><path d="M1270 200c16.57 0 30 13.43 30 30v300c0 16.57-13.43 30-30 30H970c-16.57 0-30-13.43-30-30V230c0-16.57 13.43-30 30-30z" stroke="#3788a5" stroke-width="2" fill="#3788a5"/><path d="M962.5 215.77h180v40h-180z" stroke="#000" stroke-opacity="0" stroke-width="2" fill="#fff" fill-opacity="0"/><use xlink:href="#f" transform="matrix(1,0,0,1,967.5,220.77065873625665) translate(0 18.15)"/><use xlink:href="#g" transform="matrix(1,0,0,1,967.5,220.77065873625665) translate(72.7 18.15)"/><path d="M1160 352c0 4.42-26.86 8-60 8s-60-3.58-60-8v-64c0-4.42 26.86-8 60-8s60 3.58 60 8z" stroke="#2e2f27" stroke-width="2" fill="#fff"/><path d="M1160 288c0 4.42-26.86 8-60 8s-60-3.58-60-8" stroke="#2e2f27" stroke-width="2" fill="none"/><use xlink:href="#h" transform="matrix(1,0,0,1,1045,301) translate(31.549999999999997 31.275)"/><path d="M1160 512c0 4.42-26.86 8-60 8s-60-3.58-60-8v-64c0-4.42 26.86-8 60-8s60 3.58 60 8z" stroke="#2e2f27" stroke-width="2" fill="#fff"/><path d="M1160 448c0 4.42-26.86 8-60 8s-60-3.58-60-8" stroke="#2e2f27" stroke-width="2" fill="none"/><use xlink:href="#i" transform="matrix(1,0,0,1,1045,461) translate(34.575 31.275)"/><path d="M1020.5 319v2H848.26v-2zM562 320.3v-2h93.66v2z" stroke="#2e2f27" stroke-width=".05" fill="#2e2f27"/><path d="M562.03 320.3H561v-2h1.03z" fill="#2e2f27"/><path d="M562.05 320.33h-1.07v-2.05h1.07zm-1.02-2v1.95h.97v-1.95z" stroke="#2e2f27" stroke-width=".05" fill="#2e2f27"/><path d="M1035.76 320l-14.26 4.63v-9.26z" fill="#2e2f27"/><path d="M1039 320l-18.5 6v-12zm-16.5 3.26l10.03-3.26-10.03-3.26z" stroke="#2e2f27" stroke-width=".05" fill="#2e2f27"/><use xlink:href="#j" transform="matrix(1,0,0,1,655.6563517609247,308.5032286526648) translate(0 14.4)"/><use xlink:href="#k" transform="matrix(1,0,0,1,655.6563517609247,308.5032286526648) translate(20.95 14.4)"/><use xlink:href="#l" transform="matrix(1,0,0,1,655.6563517609247,308.5032286526648) translate(60.95 14.4)"/><use xlink:href="#m" transform="matrix(1,0,0,1,655.6563517609247,308.5032286526648) translate(114.85000000000001 14.4)"/><use xlink:href="#n" transform="matrix(1,0,0,1,655.6563517609247,308.5032286526648) translate(151.75 14.4)"/><path d="M461 479h213.2v2H459V378.8h2zm559.5 0v2H845.85v-2z" stroke="#2e2f27" stroke-width=".05" fill="#2e2f27"/><path d="M464.63 377.8h-9.26l4.63-14.26z" fill="#2e2f27"/><path d="M466 378.8h-12l6-18.5zm-9.26-2h6.52L460 366.78z" stroke="#2e2f27" stroke-width=".05" fill="#2e2f27"/><path d="M1035.76 480l-14.26 4.63v-9.26z" fill="#2e2f27"/><path d="M1039 480l-18.5 6v-12zm-16.5 3.26l10.03-3.26-10.03-3.26z" stroke="#2e2f27" stroke-width=".05" fill="#2e2f27"/><g><use xlink:href="#o" transform="matrix(1,0,0,1,674.2040700401008,469.2) translate(0 14.4)"/><use xlink:href="#p" transform="matrix(1,0,0,1,674.2040700401008,469.2) translate(20.95 14.4)"/><use xlink:href="#q" transform="matrix(1,0,0,1,674.2040700401008,469.2) translate(50.95 14.4)"/><use xlink:href="#r" transform="matrix(1,0,0,1,674.2040700401008,469.2) translate(96.8 14.4)"/><use xlink:href="#s" transform="matrix(1,0,0,1,674.2040700401008,469.2) translate(122.75 14.4)"/></g><defs><path fill="#fff" d="M67-125c0 53 21 87 73 88 37 1 54-22 65-47l45 17C233-25 199 4 140 4 58 4 20-42 15-125 8-235 124-281 211-232c18 10 29 29 36 50l-46 12c-8-25-30-41-62-41-52 0-71 34-72 86" id="t"/><path fill="#fff" d="M110-194c64 0 96 36 96 99 0 64-35 99-97 99-61 0-95-36-95-99 0-62 34-99 96-99zm-1 164c35 0 45-28 45-65 0-40-10-65-43-65-34 0-45 26-45 65 0 36 10 65 43 65" id="u"/><path fill="#fff" d="M135-194c87-1 58 113 63 194h-50c-7-57 23-157-34-157-59 0-34 97-39 157H25l-1-190h47c2 12-1 28 3 38 12-26 28-41 61-42" id="v"/><path fill="#fff" d="M115-3C79 11 28 4 28-45v-112H4v-33h27l15-45h31v45h36v33H77v99c-1 23 16 31 38 25v30" id="w"/><path fill="#fff" d="M133-34C117-15 103 5 69 4 32 3 11-16 11-54c-1-60 55-63 116-61 1-26-3-47-28-47-18 1-26 9-28 27l-52-2c7-38 36-58 82-57s74 22 75 68l1 82c-1 14 12 18 25 15v27c-30 8-71 5-69-32zm-48 3c29 0 43-24 42-57-32 0-66-3-65 30 0 17 8 27 23 27" id="x"/><path fill="#fff" d="M25-224v-37h50v37H25zM25 0v-190h50V0H25" id="y"/><path fill="#fff" d="M185-48c-13 30-37 53-82 52C43 2 14-33 14-96s30-98 90-98c62 0 83 45 84 108H66c0 31 8 55 39 56 18 0 30-7 34-22zm-45-69c5-46-57-63-70-21-2 6-4 13-4 21h74" id="z"/><path fill="#fff" d="M135-150c-39-12-60 13-60 57V0H25l-1-190h47c2 13-1 29 3 40 6-28 27-53 61-41v41" id="A"/><g id="a"><use transform="matrix(0.05,0,0,0.05,0,0)" xlink:href="#t"/><use transform="matrix(0.05,0,0,0.05,12.950000000000001,0)" xlink:href="#u"/><use transform="matrix(0.05,0,0,0.05,23.900000000000002,0)" xlink:href="#v"/><use transform="matrix(0.05,0,0,0.05,34.85,0)" xlink:href="#w"/><use transform="matrix(0.05,0,0,0.05,40.800000000000004,0)" xlink:href="#x"/><use transform="matrix(0.05,0,0,0.05,50.800000000000004,0)" xlink:href="#y"/><use transform="matrix(0.05,0,0,0.05,55.800000000000004,0)" xlink:href="#v"/><use transform="matrix(0.05,0,0,0.05,66.75,0)" xlink:href="#z"/><use transform="matrix(0.05,0,0,0.05,76.75,0)" xlink:href="#A"/></g><path fill="#2e2f27" d="M30-248c118-7 216 8 213 122C240-48 200 0 122 0H30v-248zM63-27c89 8 146-16 146-99s-60-101-146-95v194" id="B"/><path fill="#2e2f27" d="M100-194c62-1 85 37 85 99 1 63-27 99-86 99S16-35 15-95c0-66 28-99 85-99zM99-20c44 1 53-31 53-75 0-43-8-75-51-75s-53 32-53 75 10 74 51 75" id="C"/><path fill="#2e2f27" d="M96-169c-40 0-48 33-48 73s9 75 48 75c24 0 41-14 43-38l32 2c-6 37-31 61-74 61-59 0-76-41-82-99-10-93 101-131 147-64 4 7 5 14 7 22l-32 3c-4-21-16-35-41-35" id="D"/><path fill="#2e2f27" d="M84 4C-5 8 30-112 23-190h32v120c0 31 7 50 39 49 72-2 45-101 50-169h31l1 190h-30c-1-10 1-25-2-33-11 22-28 36-60 37" id="E"/><path fill="#2e2f27" d="M210-169c-67 3-38 105-44 169h-31v-121c0-29-5-50-35-48C34-165 62-65 56 0H25l-1-190h30c1 10-1 24 2 32 10-44 99-50 107 0 11-21 27-35 58-36 85-2 47 119 55 194h-31v-121c0-29-5-49-35-48" id="F"/><path fill="#2e2f27" d="M100-194c63 0 86 42 84 106H49c0 40 14 67 53 68 26 1 43-12 49-29l28 8c-11 28-37 45-77 45C44 4 14-33 15-96c1-61 26-98 85-98zm52 81c6-60-76-77-97-28-3 7-6 17-6 28h103" id="G"/><path fill="#2e2f27" d="M117-194c89-4 53 116 60 194h-32v-121c0-31-8-49-39-48C34-167 62-67 57 0H25l-1-190h30c1 10-1 24 2 32 11-22 29-35 61-36" id="H"/><path fill="#2e2f27" d="M59-47c-2 24 18 29 38 22v24C64 9 27 4 27-40v-127H5v-23h24l9-43h21v43h35v23H59v120" id="I"/><g id="b"><use transform="matrix(0.05,0,0,0.05,0,0)" xlink:href="#B"/><use transform="matrix(0.05,0,0,0.05,12.950000000000001,0)" xlink:href="#C"/><use transform="matrix(0.05,0,0,0.05,22.950000000000003,0)" xlink:href="#D"/><use transform="matrix(0.05,0,0,0.05,31.950000000000003,0)" xlink:href="#E"/><use transform="matrix(0.05,0,0,0.05,41.95,0)" xlink:href="#F"/><use transform="matrix(0.05,0,0,0.05,56.900000000000006,0)" xlink:href="#G"/><use transform="matrix(0.05,0,0,0.05,66.9,0)" xlink:href="#H"/><use transform="matrix(0.05,0,0,0.05,76.9,0)" xlink:href="#I"/></g><path fill="#2e2f27" d="M30-248c87 1 191-15 191 75 0 78-77 80-158 76V0H30v-248zm33 125c57 0 124 11 124-50 0-59-68-47-124-48v98" id="J"/><path fill="#2e2f27" d="M114-163C36-179 61-72 57 0H25l-1-190h30c1 12-1 29 2 39 6-27 23-49 58-41v29" id="K"/><path fill="#2e2f27" d="M135-143c-3-34-86-38-87 0 15 53 115 12 119 90S17 21 10-45l28-5c4 36 97 45 98 0-10-56-113-15-118-90-4-57 82-63 122-42 12 7 21 19 24 35" id="L"/><g id="c"><use transform="matrix(0.05,0,0,0.05,0,0)" xlink:href="#J"/><use transform="matrix(0.05,0,0,0.05,12,0)" xlink:href="#K"/><use transform="matrix(0.05,0,0,0.05,17.95,0)" xlink:href="#C"/><use transform="matrix(0.05,0,0,0.05,27.950000000000003,0)" xlink:href="#D"/><use transform="matrix(0.05,0,0,0.05,36.95,0)" xlink:href="#G"/><use transform="matrix(0.05,0,0,0.05,46.95,0)" xlink:href="#L"/><use transform="matrix(0.05,0,0,0.05,55.95,0)" xlink:href="#L"/><use transform="matrix(0.05,0,0,0.05,64.95,0)" xlink:href="#C"/><use transform="matrix(0.05,0,0,0.05,74.95,0)" xlink:href="#K"/></g><path fill="#2e2f27" d="M27 0v-27h64v-190l-56 39v-29l58-41h29v221h61V0H27" id="M"/><path fill="#2e2f27" d="M33-261c38 41 65 92 65 168S71 34 33 75H2C39 34 66-17 66-93S39-220 2-261h31" id="N"/><g id="d"><use transform="matrix(0.05,0,0,0.05,0,0)" xlink:href="#M"/><use transform="matrix(0.05,0,0,0.05,10,0)" xlink:href="#N"/></g><path fill="#2e2f27" d="M101-234c-31-9-42 10-38 44h38v23H63V0H32v-167H5v-23h27c-7-52 17-82 69-68v24" id="O"/><path fill="#2e2f27" d="M85-194c31 0 48 13 60 33l-1-100h32l1 261h-30c-2-10 0-23-3-31C134-8 116 4 85 4 32 4 16-35 15-94c0-66 23-100 70-100zm9 24c-40 0-46 34-46 75 0 40 6 74 45 74 42 0 51-32 51-76 0-42-9-74-50-73" id="P"/><g id="e"><use transform="matrix(0.05,0,0,0.05,0,0)" xlink:href="#O"/><use transform="matrix(0.05,0,0,0.05,5,0)" xlink:href="#G"/><use transform="matrix(0.05,0,0,0.05,15,0)" xlink:href="#G"/><use transform="matrix(0.05,0,0,0.05,25,0)" xlink:href="#P"/></g><g id="f"><use transform="matrix(0.05,0,0,0.05,0,0)" xlink:href="#t"/><use transform="matrix(0.05,0,0,0.05,12.950000000000001,0)" xlink:href="#u"/><use transform="matrix(0.05,0,0,0.05,23.900000000000002,0)" xlink:href="#v"/><use transform="matrix(0.05,0,0,0.05,34.85,0)" xlink:href="#w"/><use transform="matrix(0.05,0,0,0.05,40.800000000000004,0)" xlink:href="#z"/><use transform="matrix(0.05,0,0,0.05,50.800000000000004,0)" xlink:href="#v"/><use transform="matrix(0.05,0,0,0.05,61.75,0)" xlink:href="#w"/></g><path fill="#fff" d="M88-194c31-1 46 15 58 34l-1-101h50l1 261h-48c-2-10 0-23-3-31C134-8 116 4 84 4 32 4 16-41 15-95c0-56 19-97 73-99zm17 164c33 0 40-30 41-66 1-37-9-64-41-64s-38 30-39 65c0 43 13 65 39 65" id="Q"/><g id="g"><use transform="matrix(0.05,0,0,0.05,0,0)" xlink:href="#v"/><use transform="matrix(0.05,0,0,0.05,10.950000000000001,0)" xlink:href="#u"/><use transform="matrix(0.05,0,0,0.05,21.900000000000002,0)" xlink:href="#Q"/><use transform="matrix(0.05,0,0,0.05,32.85,0)" xlink:href="#z"/></g><path fill="#2e2f27" d="M24-231v-30h32v30H24zM24 0v-190h32V0H24" id="R"/><g id="h"><use transform="matrix(0.05,0,0,0.05,0,0)" xlink:href="#F"/><use transform="matrix(0.05,0,0,0.05,14.950000000000001,0)" xlink:href="#E"/><use transform="matrix(0.05,0,0,0.05,24.950000000000003,0)" xlink:href="#L"/><use transform="matrix(0.05,0,0,0.05,33.95,0)" xlink:href="#R"/><use transform="matrix(0.05,0,0,0.05,37.900000000000006,0)" xlink:href="#D"/></g><path fill="#2e2f27" d="M24 0v-261h32V0H24" id="S"/><path fill="#2e2f27" d="M179-190L93 31C79 59 56 82 12 73V49c39 6 53-20 64-50L1-190h34L92-34l54-156h33" id="T"/><g id="i"><use transform="matrix(0.05,0,0,0.05,0,0)" xlink:href="#S"/><use transform="matrix(0.05,0,0,0.05,3.95,0)" xlink:href="#T"/><use transform="matrix(0.05,0,0,0.05,12.949999999999998,0)" xlink:href="#K"/><use transform="matrix(0.05,0,0,0.05,18.9,0)" xlink:href="#R"/><use transform="matrix(0.05,0,0,0.05,22.849999999999998,0)" xlink:href="#D"/><use transform="matrix(0.05,0,0,0.05,31.849999999999994,0)" xlink:href="#L"/></g><path fill="#2e2f27" d="M126-127c33 6 58 20 58 59 0 88-139 92-164 29-3-8-5-16-6-25l32-3c6 27 21 44 54 44 32 0 52-15 52-46 0-38-36-46-79-43v-28c39 1 72-4 72-42 0-27-17-43-46-43-28 0-47 15-49 41l-32-3c6-42 35-63 81-64 48-1 79 21 79 65 0 36-21 52-52 59" id="U"/><g id="j"><use transform="matrix(0.05,0,0,0.05,0,0)" xlink:href="#U"/><use transform="matrix(0.05,0,0,0.05,10,0)" xlink:href="#N"/></g><g id="k"><use transform="matrix(0.05,0,0,0.05,0,0)" xlink:href="#O"/><use transform="matrix(0.05,0,0,0.05,5,0)" xlink:href="#G"/><use transform="matrix(0.05,0,0,0.05,15,0)" xlink:href="#G"/><use transform="matrix(0.05,0,0,0.05,25,0)" xlink:href="#P"/></g><path fill="#2e2f27" d="M141-36C126-15 110 5 73 4 37 3 15-17 15-53c-1-64 63-63 125-63 3-35-9-54-41-54-24 1-41 7-42 31l-33-3c5-37 33-52 76-52 45 0 72 20 72 64v82c-1 20 7 32 28 27v20c-31 9-61-2-59-35zM48-53c0 20 12 33 32 33 41-3 63-29 60-74-43 2-92-5-92 41" id="V"/><path fill="#2e2f27" d="M115-194c53 0 69 39 70 98 0 66-23 100-70 100C84 3 66-7 56-30L54 0H23l1-261h32v101c10-23 28-34 59-34zm-8 174c40 0 45-34 45-75 0-40-5-75-45-74-42 0-51 32-51 76 0 43 10 73 51 73" id="W"/><g id="l"><use transform="matrix(0.05,0,0,0.05,0,0)" xlink:href="#V"/><use transform="matrix(0.05,0,0,0.05,10,0)" xlink:href="#S"/><use transform="matrix(0.05,0,0,0.05,13.949999999999998,0)" xlink:href="#W"/><use transform="matrix(0.05,0,0,0.05,23.95,0)" xlink:href="#E"/><use transform="matrix(0.05,0,0,0.05,33.95,0)" xlink:href="#F"/></g><path fill="#2e2f27" d="M206 0h-36l-40-164L89 0H53L-1-190h32L70-26l43-164h34l41 164 42-164h31" id="X"/><path fill="#2e2f27" d="M106-169C34-169 62-67 57 0H25v-261h32l-1 103c12-21 28-36 61-36 89 0 53 116 60 194h-32v-121c2-32-8-49-39-48" id="Y"/><g id="m"><use transform="matrix(0.05,0,0,0.05,0,0)" xlink:href="#X"/><use transform="matrix(0.05,0,0,0.05,12.950000000000001,0)" xlink:href="#R"/><use transform="matrix(0.05,0,0,0.05,16.900000000000002,0)" xlink:href="#I"/><use transform="matrix(0.05,0,0,0.05,21.900000000000002,0)" xlink:href="#Y"/></g><g id="n"><use transform="matrix(0.05,0,0,0.05,0,0)" xlink:href="#S"/><use transform="matrix(0.05,0,0,0.05,3.95,0)" xlink:href="#T"/><use transform="matrix(0.05,0,0,0.05,12.949999999999998,0)" xlink:href="#K"/><use transform="matrix(0.05,0,0,0.05,18.9,0)" xlink:href="#R"/><use transform="matrix(0.05,0,0,0.05,22.849999999999998,0)" xlink:href="#D"/><use transform="matrix(0.05,0,0,0.05,31.849999999999994,0)" xlink:href="#L"/></g><path fill="#2e2f27" d="M101-251c82-7 93 87 43 132L82-64C71-53 59-42 53-27h129V0H18c2-99 128-94 128-182 0-28-16-43-45-43s-46 15-49 41l-32-3c6-41 34-60 81-64" id="Z"/><g id="o"><use transform="matrix(0.05,0,0,0.05,0,0)" xlink:href="#Z"/><use transform="matrix(0.05,0,0,0.05,10,0)" xlink:href="#N"/></g><path fill="#2e2f27" d="M177-190C167-65 218 103 67 71c-23-6-38-20-44-43l32-5c15 47 100 32 89-28v-30C133-14 115 1 83 1 29 1 15-40 15-95c0-56 16-97 71-98 29-1 48 16 59 35 1-10 0-23 2-32h30zM94-22c36 0 50-32 50-73 0-42-14-75-50-75-39 0-46 34-46 75s6 73 46 73" id="aa"/><g id="p"><use transform="matrix(0.05,0,0,0.05,0,0)" xlink:href="#aa"/><use transform="matrix(0.05,0,0,0.05,10,0)" xlink:href="#G"/><use transform="matrix(0.05,0,0,0.05,20,0)" xlink:href="#I"/></g><g id="q"><use transform="matrix(0.05,0,0,0.05,0,0)" xlink:href="#S"/><use transform="matrix(0.05,0,0,0.05,3.95,0)" xlink:href="#T"/><use transform="matrix(0.05,0,0,0.05,12.949999999999998,0)" xlink:href="#K"/><use transform="matrix(0.05,0,0,0.05,18.9,0)" xlink:href="#R"/><use transform="matrix(0.05,0,0,0.05,22.849999999999998,0)" xlink:href="#D"/><use transform="matrix(0.05,0,0,0.05,31.849999999999994,0)" xlink:href="#L"/></g><g id="r"><use transform="matrix(0.05,0,0,0.05,0,0)" xlink:href="#O"/><use transform="matrix(0.05,0,0,0.05,5,0)" xlink:href="#C"/><use transform="matrix(0.05,0,0,0.05,15,0)" xlink:href="#K"/></g><g id="s"><use transform="matrix(0.05,0,0,0.05,0,0)" xlink:href="#V"/><use transform="matrix(0.05,0,0,0.05,10,0)" xlink:href="#S"/><use transform="matrix(0.05,0,0,0.05,13.949999999999998,0)" xlink:href="#W"/><use transform="matrix(0.05,0,0,0.05,23.95,0)" xlink:href="#E"/><use transform="matrix(0.05,0,0,0.05,33.95,0)" xlink:href="#F"/></g></defs></g></svg>