<svg xmlns="http://www.w3.org/2000/svg" xmlns:xlink="http://www.w3.org/1999/xlink" xmlns:lucid="lucid" width="542" height="1042"><g transform="translate(-119 -118)" lucid:page-tab-id="0_0"><path d="M0 0h1870.4v1323.2H0z" fill="#fff"/><path d="M610 139c16.57 0 30 13.43 30 30v940c0 16.57-13.43 30-30 30H170c-16.57 0-30-13.43-30-30V169c0-16.57 13.43-30 30-30z" stroke="#e5e5e5" stroke-width="2" fill="#c4c5b9"/><path d="M340 825a6 6 0 0 1 6-6h268a6 6 0 0 1 6 6v288a6 6 0 0 1-6 6H346a6 6 0 0 1-6-6z" stroke="#000" stroke-opacity="0" stroke-width="3" fill="#7b7d68"/><use xlink:href="#a" transform="matrix(1,0,0,1,352,830.9999999999999) translate(0 14.4)"/><use xlink:href="#b" transform="matrix(1,0,0,1,352,830.9999999999999) translate(45 14.4)"/><path d="M340 505a6 6 0 0 1 6-6h268a6 6 0 0 1 6 6v288a6 6 0 0 1-6 6H346a6 6 0 0 1-6-6z" stroke="#000" stroke-opacity="0" stroke-width="3" fill="#7b7d68"/><use xlink:href="#a" transform="matrix(1,0,0,1,352,511) translate(0 14.4)"/><use xlink:href="#c" transform="matrix(1,0,0,1,352,511) translate(45 14.4)"/><path d="M340 185a6 6 0 0 1 6-6h268a6 6 0 0 1 6 6v288a6 6 0 0 1-6 6H346a6 6 0 0 1-6-6z" stroke="#000" stroke-opacity="0" stroke-width="3" fill="#7b7d68"/><use xlink:href="#a" transform="matrix(1,0,0,1,352,191) translate(0 14.4)"/><use xlink:href="#d" transform="matrix(1,0,0,1,352,191) translate(45 14.4)"/><path d="M380 218.3h220V279H380z" stroke="#2e2f27" stroke-width="2" fill="#fff"/><use xlink:href="#e" transform="matrix(1,0,0,1,385,223.30322865266498) translate(0 30.3375)"/><use xlink:href="#f" transform="matrix(1,0,0,1,385,223.30322865266498) translate(52.95 30.3375)"/><path d="M160 139h220v47.4H160z" stroke="#000" stroke-opacity="0" stroke-width="2" fill="#fff" fill-opacity="0"/><use xlink:href="#g" transform="matrix(1,0,0,1,165.00000000000003,144) translate(0 24.19166666666667)"/><path d="M380 299h220v140H380z" stroke="#2e2f27" stroke-width="2" fill="#fff"/><use xlink:href="#h" transform="matrix(1,0,0,1,385,304) translate(0 14.4)"/><path d="M378 248.65h-67.33" stroke="#2e2f27" stroke-width="2" fill="none"/><path d="M379 249.65h-1.03v-2H379z" stroke="#2e2f27" stroke-width=".05" fill="#2e2f27"/><path d="M311 248.65c0 8.3-6.7 15-15 15-8.28 0-15-6.7-15-15 0-8.28 6.72-15 15-15 8.3 0 15 6.72 15 15z" stroke="#2e2f27" stroke-width="2" fill="#fff"/><path d="M140 219h140v60H140z" stroke="#000" stroke-opacity="0" stroke-width="2" fill="#fff" fill-opacity="0"/><use xlink:href="#i" transform="matrix(1,0,0,1,145,224) translate(7.5 30.025)"/><use xlink:href="#j" transform="matrix(1,0,0,1,145,224) translate(62.5 30.025)"/><use xlink:href="#k" transform="matrix(1,0,0,1,145,224) translate(72.5 30.025)"/><path d="M339 329h-28.68" stroke="#2e2f27" stroke-width="2" fill="none"/><path d="M340 330h-1.03v-2H340z" stroke="#2e2f27" stroke-width=".05" fill="#2e2f27"/><path d="M311 328.83c0 8.3-6.72 15-15 15-8.3 0-15-6.7-15-15 0-8.28 6.7-15 15-15 8.28 0 15 6.72 15 15z" stroke="#2e2f27" stroke-width="2" fill="#fff"/><path d="M140 299h140v60H140z" stroke="#000" stroke-opacity="0" stroke-width="2" fill="#fff" fill-opacity="0"/><use xlink:href="#l" transform="matrix(1,0,0,1,145,304) translate(17.5 30.025)"/><use xlink:href="#j" transform="matrix(1,0,0,1,145,304) translate(62.5 30.025)"/><use xlink:href="#m" transform="matrix(1,0,0,1,145,304) translate(72.5 30.025)"/><path d="M378 368.65h-67.33M377.97 368.65H379" stroke="#2e2f27" stroke-width="2" fill="none"/><path d="M311 368.65c0 8.3-6.72 15-15 15-8.28 0-15-6.7-15-15 0-8.28 6.72-15 15-15 8.28 0 15 6.72 15 15z" stroke="#2e2f27" stroke-width="2" fill="#fff"/><path d="M140 339h140v60H140z" stroke="#000" stroke-opacity="0" stroke-width="2" fill="#fff" fill-opacity="0"/><use xlink:href="#n" transform="matrix(1,0,0,1,145,344) translate(7.5 30.025)"/><use xlink:href="#j" transform="matrix(1,0,0,1,145,344) translate(62.5 30.025)"/><use xlink:href="#o" transform="matrix(1,0,0,1,145,344) translate(72.5 30.025)"/><path d="M378 408.65h-67.33M377.97 408.65H379" stroke="#2e2f27" stroke-width="2" fill="none"/><path d="M311 408.65c0 8.3-6.72 15-15 15-8.28 0-15-6.7-15-15 0-8.28 6.72-15 15-15 8.28 0 15 6.72 15 15z" stroke="#2e2f27" stroke-width="2" fill="#fff"/><path d="M140 379h140v60H140z" stroke="#000" stroke-opacity="0" stroke-width="2" fill="#fff" fill-opacity="0"/><use xlink:href="#p" transform="matrix(1,0,0,1,145,384) translate(7.5 30.025)"/><use xlink:href="#j" transform="matrix(1,0,0,1,145,384) translate(62.5 30.025)"/><use xlink:href="#q" transform="matrix(1,0,0,1,145,384) translate(72.5 30.025)"/><path d="M380 538.3h220V599H380z" stroke="#2e2f27" stroke-width="2" fill="#fff"/><use xlink:href="#e" transform="matrix(1,0,0,1,385,543.303228652665) translate(0 30.3375)"/><use xlink:href="#f" transform="matrix(1,0,0,1,385,543.303228652665) translate(52.95 30.3375)"/><path d="M380 619h220v140H380z" stroke="#2e2f27" stroke-width="2" fill="#fff"/><use xlink:href="#h" transform="matrix(1,0,0,1,385,624) translate(0 14.4)"/><path d="M378 568.65h-67.33" stroke="#2e2f27" stroke-width="2" fill="none"/><path d="M379 569.65h-1.03v-2H379z" stroke="#2e2f27" stroke-width=".05" fill="#2e2f27"/><path d="M311 568.65c0 8.3-6.7 15-15 15-8.28 0-15-6.7-15-15 0-8.28 6.72-15 15-15 8.3 0 15 6.72 15 15z" stroke="#2e2f27" stroke-width="2" fill="#fff"/><path d="M140 539h140v60H140z" stroke="#000" stroke-opacity="0" stroke-width="2" fill="#fff" fill-opacity="0"/><use xlink:href="#r" transform="matrix(1,0,0,1,145,544) translate(7.5 30.025)"/><use xlink:href="#j" transform="matrix(1,0,0,1,145,544) translate(62.5 30.025)"/><use xlink:href="#k" transform="matrix(1,0,0,1,145,544) translate(72.5 30.025)"/><path d="M378 648.65h-67.33M377.97 648.65H379" stroke="#2e2f27" stroke-width="2" fill="none"/><path d="M311 648.65c0 8.3-6.72 15-15 15-8.28 0-15-6.7-15-15 0-8.28 6.72-15 15-15 8.28 0 15 6.72 15 15z" stroke="#2e2f27" stroke-width="2" fill="#fff"/><path d="M140 619h140v60H140z" stroke="#000" stroke-opacity="0" stroke-width="2" fill="#fff" fill-opacity="0"/><use xlink:href="#s" transform="matrix(1,0,0,1,145,624) translate(17.5 30.025)"/><use xlink:href="#j" transform="matrix(1,0,0,1,145,624) translate(62.5 30.025)"/><use xlink:href="#m" transform="matrix(1,0,0,1,145,624) translate(72.5 30.025)"/><path d="M378 688.65h-67.33M377.97 688.65H379" stroke="#2e2f27" stroke-width="2" fill="none"/><path d="M311 688.65c0 8.3-6.72 15-15 15-8.28 0-15-6.7-15-15 0-8.28 6.72-15 15-15 8.28 0 15 6.72 15 15z" stroke="#2e2f27" stroke-width="2" fill="#fff"/><path d="M140 659h140v60H140z" stroke="#000" stroke-opacity="0" stroke-width="2" fill="#fff" fill-opacity="0"/><use xlink:href="#t" transform="matrix(1,0,0,1,145,664) translate(7.5 30.025)"/><use xlink:href="#j" transform="matrix(1,0,0,1,145,664) translate(62.5 30.025)"/><use xlink:href="#o" transform="matrix(1,0,0,1,145,664) translate(72.5 30.025)"/><path d="M378 728.65h-67.33M377.97 728.65H379" stroke="#2e2f27" stroke-width="2" fill="none"/><path d="M311 728.65c0 8.3-6.72 15-15 15-8.28 0-15-6.7-15-15 0-8.28 6.72-15 15-15 8.28 0 15 6.72 15 15z" stroke="#2e2f27" stroke-width="2" fill="#fff"/><path d="M140 699h140v60H140z" stroke="#000" stroke-opacity="0" stroke-width="2" fill="#fff" fill-opacity="0"/><use xlink:href="#u" transform="matrix(1,0,0,1,145,704) translate(7.5 30.025)"/><use xlink:href="#j" transform="matrix(1,0,0,1,145,704) translate(62.5 30.025)"/><use xlink:href="#q" transform="matrix(1,0,0,1,145,704) translate(72.5 30.025)"/><path d="M380 858.3h220V919H380z" stroke="#2e2f27" stroke-width="2" fill="#fff"/><use xlink:href="#e" transform="matrix(1,0,0,1,385,863.3032286526648) translate(0 30.3375)"/><use xlink:href="#f" transform="matrix(1,0,0,1,385,863.3032286526648) translate(52.95 30.3375)"/><path d="M380 939h220v140H380z" stroke="#2e2f27" stroke-width="2" fill="#fff"/><use xlink:href="#h" transform="matrix(1,0,0,1,385,944.0000000000001) translate(0 14.4)"/><path d="M378 888.65h-67.33" stroke="#2e2f27" stroke-width="2" fill="none"/><path d="M379 889.65h-1.03v-2H379z" stroke="#2e2f27" stroke-width=".05" fill="#2e2f27"/><path d="M311 888.65c0 8.3-6.7 15-15 15-8.28 0-15-6.7-15-15 0-8.28 6.72-15 15-15 8.3 0 15 6.72 15 15z" stroke="#2e2f27" stroke-width="2" fill="#fff"/><path d="M140 859h140v60H140z" stroke="#000" stroke-opacity="0" stroke-width="2" fill="#fff" fill-opacity="0"/><use xlink:href="#v" transform="matrix(1,0,0,1,145,864) translate(7.5 30.025)"/><use xlink:href="#j" transform="matrix(1,0,0,1,145,864) translate(62.5 30.025)"/><use xlink:href="#k" transform="matrix(1,0,0,1,145,864) translate(72.5 30.025)"/><path d="M378 968.65h-67.33M377.97 968.65H379" stroke="#2e2f27" stroke-width="2" fill="none"/><path d="M311 968.65c0 8.3-6.72 15-15 15-8.28 0-15-6.7-15-15 0-8.28 6.72-15 15-15 8.28 0 15 6.72 15 15z" stroke="#2e2f27" stroke-width="2" fill="#fff"/><path d="M140 939h140v60H140z" stroke="#000" stroke-opacity="0" stroke-width="2" fill="#fff" fill-opacity="0"/><use xlink:href="#w" transform="matrix(1,0,0,1,145,943.9999999999999) translate(17.5 30.025)"/><use xlink:href="#j" transform="matrix(1,0,0,1,145,943.9999999999999) translate(62.5 30.025)"/><use xlink:href="#m" transform="matrix(1,0,0,1,145,943.9999999999999) translate(72.5 30.025)"/><path d="M378 1008.65h-67.33M377.97 1008.65H379" stroke="#2e2f27" stroke-width="2" fill="none"/><path d="M311 1008.65c0 8.3-6.72 15-15 15-8.28 0-15-6.7-15-15 0-8.28 6.72-15 15-15 8.28 0 15 6.72 15 15z" stroke="#2e2f27" stroke-width="2" fill="#fff"/><path d="M140 979h140v60H140z" stroke="#000" stroke-opacity="0" stroke-width="2" fill="#fff" fill-opacity="0"/><use xlink:href="#x" transform="matrix(1,0,0,1,145,984.0000000000001) translate(7.5 30.025)"/><use xlink:href="#j" transform="matrix(1,0,0,1,145,984.0000000000001) translate(62.5 30.025)"/><use xlink:href="#o" transform="matrix(1,0,0,1,145,984.0000000000001) translate(72.5 30.025)"/><path d="M378 1048.65h-67.33M377.97 1048.65H379" stroke="#2e2f27" stroke-width="2" fill="none"/><path d="M311 1048.65c0 8.3-6.72 15-15 15-8.28 0-15-6.7-15-15 0-8.28 6.72-15 15-15 8.28 0 15 6.72 15 15z" stroke="#2e2f27" stroke-width="2" fill="#fff"/><path d="M140 1019h140v60H140z" stroke="#000" stroke-opacity="0" stroke-width="2" fill="#fff" fill-opacity="0"/><use xlink:href="#y" transform="matrix(1,0,0,1,145,1024) translate(7.5 30.025)"/><use xlink:href="#j" transform="matrix(1,0,0,1,145,1024) translate(62.5 30.025)"/><use xlink:href="#q" transform="matrix(1,0,0,1,145,1024) translate(72.5 30.025)"/><path d="M400 326a6 6 0 0 1 6-6h68a6 6 0 0 1 6 6v27a6 6 0 0 1-6 6h-68a6 6 0 0 1-6-6z" stroke="#000" stroke-opacity="0" stroke-width="3" fill="#3788a5"/><g><use xlink:href="#z" transform="matrix(1,0,0,1,412,332) translate(-8.950000000000003 14.4)"/></g><path d="M400 386a6 6 0 0 1 6-6h68a6 6 0 0 1 6 6v27a6 6 0 0 1-6 6h-68a6 6 0 0 1-6-6z" stroke="#000" stroke-opacity="0" stroke-width="3" fill="#1b6a3a"/><g><use xlink:href="#A" transform="matrix(1,0,0,1,412,391.9999999999999) translate(-1.5 14.4)"/></g><path d="M400 646a6 6 0 0 1 6-6h68a6 6 0 0 1 6 6v27a6 6 0 0 1-6 6h-68a6 6 0 0 1-6-6z" stroke="#000" stroke-opacity="0" stroke-width="3" fill="#3788a5"/><g><use xlink:href="#z" transform="matrix(1,0,0,1,412,652) translate(-8.950000000000003 14.4)"/></g><path d="M400 706a6 6 0 0 1 6-6h68a6 6 0 0 1 6 6v27a6 6 0 0 1-6 6h-68a6 6 0 0 1-6-6z" stroke="#000" stroke-opacity="0" stroke-width="3" fill="#1b6a3a"/><g><use xlink:href="#A" transform="matrix(1,0,0,1,412,711.9999999999999) translate(-1.5 14.4)"/></g><path d="M400 966a6 6 0 0 1 6-6h68a6 6 0 0 1 6 6v27a6 6 0 0 1-6 6h-68a6 6 0 0 1-6-6z" stroke="#000" stroke-opacity="0" stroke-width="3" fill="#3788a5"/><g><use xlink:href="#z" transform="matrix(1,0,0,1,412,972) translate(-8.950000000000003 14.4)"/></g><path d="M400 1026a6 6 0 0 1 6-6h68a6 6 0 0 1 6 6v27a6 6 0 0 1-6 6h-68a6 6 0 0 1-6-6z" stroke="#000" stroke-opacity="0" stroke-width="3" fill="#1b6a3a"/><g><use xlink:href="#A" transform="matrix(1,0,0,1,412,1032) translate(-1.5 14.4)"/></g><path d="M500 206a6 6 0 0 1 6-6h68a6 6 0 0 1 6 6v888a6 6 0 0 1-6 6h-68a6 6 0 0 1-6-6z" stroke="#000" stroke-opacity="0" stroke-width="3" fill="#ffc5b2" fill-opacity=".5"/><path d="M565 266.55c0 2.27-11.2 4.1-25 4.1s-25-1.83-25-4.1v-32.8c0-2.26 11.2-4.1 25-4.1s25 1.84 25 4.1z" stroke="#fff" stroke-width="2" fill="#e97a57"/><path d="M565 233.75c0 2.27-11.2 4.1-25 4.1s-25-1.83-25-4.1" stroke="#fff" stroke-width="2" fill="none"/><g><use xlink:href="#B" transform="matrix(1,0,0,1,520,242.85161432633248) translate(11 15.8375)"/></g><path d="M500 386a6 6 0 0 1 6-6h68a6 6 0 0 1 6 6v28a6 6 0 0 1-6 6h-68a6 6 0 0 1-6-6z" stroke="#000" stroke-opacity="0" stroke-width="3" fill="#ae6188"/><g><use xlink:href="#C" transform="matrix(1,0,0,1,512,391.9999999999999) translate(-5.925000000000004 14.4)"/></g><path d="M565 585.05c0 2.27-11.2 4.1-25 4.1s-25-1.83-25-4.1v-32.8c0-2.26 11.2-4.1 25-4.1s25 1.84 25 4.1z" stroke="#fff" stroke-width="2" fill="#e97a57"/><path d="M565 552.25c0 2.27-11.2 4.1-25 4.1s-25-1.83-25-4.1" stroke="#fff" stroke-width="2" fill="none"/><g><use xlink:href="#B" transform="matrix(1,0,0,1,520,561.3516143263325) translate(11 15.8375)"/></g><path d="M500 706a6 6 0 0 1 6-6h68a6 6 0 0 1 6 6v28a6 6 0 0 1-6 6h-68a6 6 0 0 1-6-6z" stroke="#000" stroke-opacity="0" stroke-width="3" fill="#ae6188"/><g><use xlink:href="#C" transform="matrix(1,0,0,1,512,712) translate(-5.925000000000004 14.4)"/></g><path d="M565 905.05c0 2.27-11.2 4.1-25 4.1s-25-1.83-25-4.1v-32.8c0-2.26 11.2-4.1 25-4.1s25 1.84 25 4.1z" stroke="#fff" stroke-width="2" fill="#e97a57"/><path d="M565 872.25c0 2.27-11.2 4.1-25 4.1s-25-1.83-25-4.1" stroke="#fff" stroke-width="2" fill="none"/><g><use xlink:href="#B" transform="matrix(1,0,0,1,520,881.3516143263323) translate(11 15.8375)"/></g><path d="M500 1026a6 6 0 0 1 6-6h68a6 6 0 0 1 6 6v28a6 6 0 0 1-6 6h-68a6 6 0 0 1-6-6z" stroke="#000" stroke-opacity="0" stroke-width="3" fill="#ae6188"/><g><use xlink:href="#C" transform="matrix(1,0,0,1,512,1032) translate(-5.925000000000004 14.4)"/></g><defs><path fill="#fff" d="M117-194c89-4 53 116 60 194h-32v-121c0-31-8-49-39-48C34-167 62-67 57 0H25l-1-190h30c1 10-1 24 2 32 11-22 29-35 61-36" id="D"/><path fill="#fff" d="M100-194c62-1 85 37 85 99 1 63-27 99-86 99S16-35 15-95c0-66 28-99 85-99zM99-20c44 1 53-31 53-75 0-43-8-75-51-75s-53 32-53 75 10 74 51 75" id="E"/><path fill="#fff" d="M85-194c31 0 48 13 60 33l-1-100h32l1 261h-30c-2-10 0-23-3-31C134-8 116 4 85 4 32 4 16-35 15-94c0-66 23-100 70-100zm9 24c-40 0-46 34-46 75 0 40 6 74 45 74 42 0 51-32 51-76 0-42-9-74-50-73" id="F"/><path fill="#fff" d="M100-194c63 0 86 42 84 106H49c0 40 14 67 53 68 26 1 43-12 49-29l28 8c-11 28-37 45-77 45C44 4 14-33 15-96c1-61 26-98 85-98zm52 81c6-60-76-77-97-28-3 7-6 17-6 28h103" id="G"/><g id="a"><use transform="matrix(0.05,0,0,0.05,0,0)" xlink:href="#D"/><use transform="matrix(0.05,0,0,0.05,10,0)" xlink:href="#E"/><use transform="matrix(0.05,0,0,0.05,20,0)" xlink:href="#F"/><use transform="matrix(0.05,0,0,0.05,30,0)" xlink:href="#G"/></g><path fill="#fff" d="M101-251c82-7 93 87 43 132L82-64C71-53 59-42 53-27h129V0H18c2-99 128-94 128-182 0-28-16-43-45-43s-46 15-49 41l-32-3c6-41 34-60 81-64" id="H"/><use transform="matrix(0.05,0,0,0.05,0,0)" xlink:href="#H" id="b"/><path fill="#fff" d="M27 0v-27h64v-190l-56 39v-29l58-41h29v221h61V0H27" id="I"/><use transform="matrix(0.05,0,0,0.05,0,0)" xlink:href="#I" id="c"/><path fill="#fff" d="M101-251c68 0 85 55 85 127S166 4 100 4C33 4 14-52 14-124c0-73 17-127 87-127zm-1 229c47 0 54-49 54-102s-4-102-53-102c-51 0-55 48-55 102 0 53 5 102 54 102" id="J"/><use transform="matrix(0.05,0,0,0.05,0,0)" xlink:href="#J" id="d"/><path fill="#2e2f27" d="M96-169c-40 0-48 33-48 73s9 75 48 75c24 0 41-14 43-38l32 2c-6 37-31 61-74 61-59 0-76-41-82-99-10-93 101-131 147-64 4 7 5 14 7 22l-32 3c-4-21-16-35-41-35" id="K"/><path fill="#2e2f27" d="M100-194c62-1 85 37 85 99 1 63-27 99-86 99S16-35 15-95c0-66 28-99 85-99zM99-20c44 1 53-31 53-75 0-43-8-75-51-75s-53 32-53 75 10 74 51 75" id="L"/><path fill="#2e2f27" d="M117-194c89-4 53 116 60 194h-32v-121c0-31-8-49-39-48C34-167 62-67 57 0H25l-1-190h30c1 10-1 24 2 32 11-22 29-35 61-36" id="M"/><path fill="#2e2f27" d="M101-234c-31-9-42 10-38 44h38v23H63V0H32v-167H5v-23h27c-7-52 17-82 69-68v24" id="N"/><path fill="#2e2f27" d="M24-231v-30h32v30H24zM24 0v-190h32V0H24" id="O"/><path fill="#2e2f27" d="M177-190C167-65 218 103 67 71c-23-6-38-20-44-43l32-5c15 47 100 32 89-28v-30C133-14 115 1 83 1 29 1 15-40 15-95c0-56 16-97 71-98 29-1 48 16 59 35 1-10 0-23 2-32h30zM94-22c36 0 50-32 50-73 0-42-14-75-50-75-39 0-46 34-46 75s6 73 46 73" id="P"/><g id="e"><use transform="matrix(0.05,0,0,0.05,0,0)" xlink:href="#K"/><use transform="matrix(0.05,0,0,0.05,9,0)" xlink:href="#L"/><use transform="matrix(0.05,0,0,0.05,19,0)" xlink:href="#M"/><use transform="matrix(0.05,0,0,0.05,29,0)" xlink:href="#N"/><use transform="matrix(0.05,0,0,0.05,34,0)" xlink:href="#O"/><use transform="matrix(0.05,0,0,0.05,37.95,0)" xlink:href="#P"/></g><path fill="#2e2f27" d="M135-143c-3-34-86-38-87 0 15 53 115 12 119 90S17 21 10-45l28-5c4 36 97 45 98 0-10-56-113-15-118-90-4-57 82-63 122-42 12 7 21 19 24 35" id="Q"/><path fill="#2e2f27" d="M100-194c63 0 86 42 84 106H49c0 40 14 67 53 68 26 1 43-12 49-29l28 8c-11 28-37 45-77 45C44 4 14-33 15-96c1-61 26-98 85-98zm52 81c6-60-76-77-97-28-3 7-6 17-6 28h103" id="R"/><path fill="#2e2f27" d="M114-163C36-179 61-72 57 0H25l-1-190h30c1 12-1 29 2 39 6-27 23-49 58-41v29" id="S"/><path fill="#2e2f27" d="M108 0H70L1-190h34L89-25l56-165h34" id="T"/><g id="f"><use transform="matrix(0.05,0,0,0.05,0,0)" xlink:href="#Q"/><use transform="matrix(0.05,0,0,0.05,9,0)" xlink:href="#R"/><use transform="matrix(0.05,0,0,0.05,19,0)" xlink:href="#S"/><use transform="matrix(0.05,0,0,0.05,24.95,0)" xlink:href="#T"/><use transform="matrix(0.05,0,0,0.05,33.95,0)" xlink:href="#R"/><use transform="matrix(0.05,0,0,0.05,43.95,0)" xlink:href="#S"/></g><path fill="#7b7d68" d="M128 0H69L1-190h53L99-40l48-150h52" id="U"/><path fill="#7b7d68" d="M185-48c-13 30-37 53-82 52C43 2 14-33 14-96s30-98 90-98c62 0 83 45 84 108H66c0 31 8 55 39 56 18 0 30-7 34-22zm-45-69c5-46-57-63-70-21-2 6-4 13-4 21h74" id="V"/><path fill="#7b7d68" d="M137-138c1-29-70-34-71-4 15 46 118 7 119 86 1 83-164 76-172 9l43-7c4 19 20 25 44 25 33 8 57-30 24-41C81-84 22-81 20-136c-2-80 154-74 161-7" id="W"/><path fill="#7b7d68" d="M135-194c53 0 70 44 70 98 0 56-19 98-73 100-31 1-45-17-59-34 3 33 2 69 2 105H25l-1-265h48c2 10 0 23 3 31 11-24 29-35 60-35zM114-30c33 0 39-31 40-66 0-38-9-64-40-64-56 0-55 130 0 130" id="X"/><path fill="#7b7d68" d="M133-34C117-15 103 5 69 4 32 3 11-16 11-54c-1-60 55-63 116-61 1-26-3-47-28-47-18 1-26 9-28 27l-52-2c7-38 36-58 82-57s74 22 75 68l1 82c-1 14 12 18 25 15v27c-30 8-71 5-69-32zm-48 3c29 0 43-24 42-57-32 0-66-3-65 30 0 17 8 27 23 27" id="Y"/><path fill="#7b7d68" d="M135-194c87-1 58 113 63 194h-50c-7-57 23-157-34-157-59 0-34 97-39 157H25l-1-190h47c2 12-1 28 3 38 12-26 28-41 61-42" id="Z"/><path fill="#7b7d68" d="M115-3C79 11 28 4 28-45v-112H4v-33h27l15-45h31v45h36v33H77v99c-1 23 16 31 38 25v30" id="aa"/><g id="g"><use transform="matrix(0.05925925925925927,0,0,0.05925925925925927,0,0)" xlink:href="#U"/><use transform="matrix(0.05925925925925927,0,0,0.05925925925925927,11.851851851851853,0)" xlink:href="#V"/><use transform="matrix(0.05925925925925927,0,0,0.05925925925925927,23.703703703703706,0)" xlink:href="#W"/><use transform="matrix(0.05925925925925927,0,0,0.05925925925925927,35.55555555555556,0)" xlink:href="#X"/><use transform="matrix(0.05925925925925927,0,0,0.05925925925925927,48.53333333333334,0)" xlink:href="#Y"/><use transform="matrix(0.05925925925925927,0,0,0.05925925925925927,60.38518518518519,0)" xlink:href="#Z"/><use transform="matrix(0.05925925925925927,0,0,0.05925925925925927,73.36296296296297,0)" xlink:href="#V"/><use transform="matrix(0.05925925925925927,0,0,0.05925925925925927,85.21481481481482,0)" xlink:href="#aa"/></g><g id="h"><use transform="matrix(0.05,0,0,0.05,0,0)" xlink:href="#Q"/><use transform="matrix(0.05,0,0,0.05,9,0)" xlink:href="#R"/><use transform="matrix(0.05,0,0,0.05,19,0)" xlink:href="#S"/><use transform="matrix(0.05,0,0,0.05,24.95,0)" xlink:href="#T"/><use transform="matrix(0.05,0,0,0.05,33.95,0)" xlink:href="#O"/><use transform="matrix(0.05,0,0,0.05,37.900000000000006,0)" xlink:href="#K"/><use transform="matrix(0.05,0,0,0.05,46.900000000000006,0)" xlink:href="#R"/><use transform="matrix(0.05,0,0,0.05,56.900000000000006,0)" xlink:href="#Q"/></g><path fill="#2e2f27" d="M27 0v-27h64v-190l-56 39v-29l58-41h29v221h61V0H27" id="ab"/><path fill="#2e2f27" d="M99-251c64 0 84 50 84 122C183-37 130 33 47-8c-14-7-20-23-25-40l30-5c6 39 69 39 84 7 9-19 16-44 16-74-10 22-31 35-62 35-49 0-73-33-73-83 0-54 28-83 82-83zm-1 141c31-1 51-18 51-49 0-36-14-67-51-67-34 0-49 23-49 58 0 34 15 58 49 58" id="ac"/><path fill="#2e2f27" d="M101-251c68 0 85 55 85 127S166 4 100 4C33 4 14-52 14-124c0-73 17-127 87-127zm-1 229c47 0 54-49 54-102s-4-102-53-102c-51 0-55 48-55 102 0 53 5 102 54 102" id="ad"/><path fill="#2e2f27" d="M64 0c3-98 48-159 88-221H18v-27h164v26C143-157 98-101 97 0H64" id="ae"/><g id="i"><use transform="matrix(0.05,0,0,0.05,0,0)" xlink:href="#ab"/><use transform="matrix(0.05,0,0,0.05,10,0)" xlink:href="#ac"/><use transform="matrix(0.05,0,0,0.05,20,0)" xlink:href="#ad"/><use transform="matrix(0.05,0,0,0.05,30,0)" xlink:href="#ae"/><use transform="matrix(0.05,0,0,0.05,40,0)" xlink:href="#ab"/></g><path fill="#2e2f27" d="M33-154v-36h34v36H33zM33 0v-36h34V0H33" id="af"/><use transform="matrix(0.05,0,0,0.05,0,0)" xlink:href="#af" id="j"/><g id="k"><use transform="matrix(0.05,0,0,0.05,0,0)" xlink:href="#ab"/><use transform="matrix(0.05,0,0,0.05,10,0)" xlink:href="#ac"/><use transform="matrix(0.05,0,0,0.05,20,0)" xlink:href="#ad"/><use transform="matrix(0.05,0,0,0.05,30,0)" xlink:href="#ae"/><use transform="matrix(0.05,0,0,0.05,40,0)" xlink:href="#ab"/></g><path fill="#2e2f27" d="M134-131c28 9 52 24 51 62-1 50-34 73-85 73S17-19 16-69c0-36 21-54 49-61-75-25-45-126 34-121 46 3 78 18 79 63 0 33-17 51-44 57zm-34-11c31 1 46-15 46-44 0-28-17-43-47-42-29 0-46 13-45 42 1 28 16 44 46 44zm1 122c35 0 51-18 51-52 0-30-18-46-53-46-33 0-51 17-51 47 0 34 19 51 53 51" id="ag"/><g id="l"><use transform="matrix(0.05,0,0,0.05,0,0)" xlink:href="#ag"/><use transform="matrix(0.05,0,0,0.05,10,0)" xlink:href="#ad"/><use transform="matrix(0.05,0,0,0.05,20,0)" xlink:href="#ag"/><use transform="matrix(0.05,0,0,0.05,30,0)" xlink:href="#ad"/></g><g id="m"><use transform="matrix(0.05,0,0,0.05,0,0)" xlink:href="#ag"/><use transform="matrix(0.05,0,0,0.05,10,0)" xlink:href="#ad"/><use transform="matrix(0.05,0,0,0.05,20,0)" xlink:href="#ag"/><use transform="matrix(0.05,0,0,0.05,30,0)" xlink:href="#ad"/></g><path fill="#2e2f27" d="M54-142c48-35 137-8 131 61C196 18 31 33 14-55l32-4c7 23 22 37 52 37 35-1 51-22 54-58 4-55-73-65-99-34H22l8-134h141v27H59" id="ah"/><g id="n"><use transform="matrix(0.05,0,0,0.05,0,0)" xlink:href="#ab"/><use transform="matrix(0.05,0,0,0.05,10,0)" xlink:href="#ac"/><use transform="matrix(0.05,0,0,0.05,20,0)" xlink:href="#ad"/><use transform="matrix(0.05,0,0,0.05,30,0)" xlink:href="#ah"/><use transform="matrix(0.05,0,0,0.05,40,0)" xlink:href="#ad"/></g><g id="o"><use transform="matrix(0.05,0,0,0.05,0,0)" xlink:href="#ab"/><use transform="matrix(0.05,0,0,0.05,10,0)" xlink:href="#ac"/><use transform="matrix(0.05,0,0,0.05,20,0)" xlink:href="#ad"/><use transform="matrix(0.05,0,0,0.05,30,0)" xlink:href="#ah"/><use transform="matrix(0.05,0,0,0.05,40,0)" xlink:href="#ad"/></g><path fill="#2e2f27" d="M101-251c82-7 93 87 43 132L82-64C71-53 59-42 53-27h129V0H18c2-99 128-94 128-182 0-28-16-43-45-43s-46 15-49 41l-32-3c6-41 34-60 81-64" id="ai"/><g id="p"><use transform="matrix(0.05,0,0,0.05,0,0)" xlink:href="#ab"/><use transform="matrix(0.05,0,0,0.05,10,0)" xlink:href="#ac"/><use transform="matrix(0.05,0,0,0.05,20,0)" xlink:href="#ad"/><use transform="matrix(0.05,0,0,0.05,30,0)" xlink:href="#ac"/><use transform="matrix(0.05,0,0,0.05,40,0)" xlink:href="#ai"/></g><g id="q"><use transform="matrix(0.05,0,0,0.05,0,0)" xlink:href="#ab"/><use transform="matrix(0.05,0,0,0.05,10,0)" xlink:href="#ac"/><use transform="matrix(0.05,0,0,0.05,20,0)" xlink:href="#ad"/><use transform="matrix(0.05,0,0,0.05,30,0)" xlink:href="#ac"/><use transform="matrix(0.05,0,0,0.05,40,0)" xlink:href="#ai"/></g><g id="r"><use transform="matrix(0.05,0,0,0.05,0,0)" xlink:href="#ab"/><use transform="matrix(0.05,0,0,0.05,10,0)" xlink:href="#ac"/><use transform="matrix(0.05,0,0,0.05,20,0)" xlink:href="#ad"/><use transform="matrix(0.05,0,0,0.05,30,0)" xlink:href="#ae"/><use transform="matrix(0.05,0,0,0.05,40,0)" xlink:href="#ai"/></g><g id="s"><use transform="matrix(0.05,0,0,0.05,0,0)" xlink:href="#ag"/><use transform="matrix(0.05,0,0,0.05,10,0)" xlink:href="#ad"/><use transform="matrix(0.05,0,0,0.05,20,0)" xlink:href="#ag"/><use transform="matrix(0.05,0,0,0.05,30,0)" xlink:href="#ab"/></g><g id="t"><use transform="matrix(0.05,0,0,0.05,0,0)" xlink:href="#ab"/><use transform="matrix(0.05,0,0,0.05,10,0)" xlink:href="#ac"/><use transform="matrix(0.05,0,0,0.05,20,0)" xlink:href="#ad"/><use transform="matrix(0.05,0,0,0.05,30,0)" xlink:href="#ah"/><use transform="matrix(0.05,0,0,0.05,40,0)" xlink:href="#ab"/></g><path fill="#2e2f27" d="M126-127c33 6 58 20 58 59 0 88-139 92-164 29-3-8-5-16-6-25l32-3c6 27 21 44 54 44 32 0 52-15 52-46 0-38-36-46-79-43v-28c39 1 72-4 72-42 0-27-17-43-46-43-28 0-47 15-49 41l-32-3c6-42 35-63 81-64 48-1 79 21 79 65 0 36-21 52-52 59" id="aj"/><g id="u"><use transform="matrix(0.05,0,0,0.05,0,0)" xlink:href="#ab"/><use transform="matrix(0.05,0,0,0.05,10,0)" xlink:href="#ac"/><use transform="matrix(0.05,0,0,0.05,20,0)" xlink:href="#ad"/><use transform="matrix(0.05,0,0,0.05,30,0)" xlink:href="#ac"/><use transform="matrix(0.05,0,0,0.05,40,0)" xlink:href="#aj"/></g><g id="v"><use transform="matrix(0.05,0,0,0.05,0,0)" xlink:href="#ab"/><use transform="matrix(0.05,0,0,0.05,10,0)" xlink:href="#ac"/><use transform="matrix(0.05,0,0,0.05,20,0)" xlink:href="#ad"/><use transform="matrix(0.05,0,0,0.05,30,0)" xlink:href="#ae"/><use transform="matrix(0.05,0,0,0.05,40,0)" xlink:href="#aj"/></g><g id="w"><use transform="matrix(0.05,0,0,0.05,0,0)" xlink:href="#ag"/><use transform="matrix(0.05,0,0,0.05,10,0)" xlink:href="#ad"/><use transform="matrix(0.05,0,0,0.05,20,0)" xlink:href="#ag"/><use transform="matrix(0.05,0,0,0.05,30,0)" xlink:href="#ai"/></g><g id="x"><use transform="matrix(0.05,0,0,0.05,0,0)" xlink:href="#ab"/><use transform="matrix(0.05,0,0,0.05,10,0)" xlink:href="#ac"/><use transform="matrix(0.05,0,0,0.05,20,0)" xlink:href="#ad"/><use transform="matrix(0.05,0,0,0.05,30,0)" xlink:href="#ah"/><use transform="matrix(0.05,0,0,0.05,40,0)" xlink:href="#ai"/></g><path fill="#2e2f27" d="M155-56V0h-30v-56H8v-25l114-167h33v167h35v25h-35zm-30-156c-27 46-58 90-88 131h88v-131" id="ak"/><g id="y"><use transform="matrix(0.05,0,0,0.05,0,0)" xlink:href="#ab"/><use transform="matrix(0.05,0,0,0.05,10,0)" xlink:href="#ac"/><use transform="matrix(0.05,0,0,0.05,20,0)" xlink:href="#ad"/><use transform="matrix(0.05,0,0,0.05,30,0)" xlink:href="#ac"/><use transform="matrix(0.05,0,0,0.05,40,0)" xlink:href="#ak"/></g><path fill="#fff" d="M96-169c-40 0-48 33-48 73s9 75 48 75c24 0 41-14 43-38l32 2c-6 37-31 61-74 61-59 0-76-41-82-99-10-93 101-131 147-64 4 7 5 14 7 22l-32 3c-4-21-16-35-41-35" id="al"/><path fill="#fff" d="M59-47c-2 24 18 29 38 22v24C64 9 27 4 27-40v-127H5v-23h24l9-43h21v43h35v23H59v120" id="am"/><path fill="#fff" d="M141-36C126-15 110 5 73 4 37 3 15-17 15-53c-1-64 63-63 125-63 3-35-9-54-41-54-24 1-41 7-42 31l-33-3c5-37 33-52 76-52 45 0 72 20 72 64v82c-1 20 7 32 28 27v20c-31 9-61-2-59-35zM48-53c0 20 12 33 32 33 41-3 63-29 60-74-43 2-92-5-92 41" id="an"/><path fill="#fff" d="M24-231v-30h32v30H24zM24 0v-190h32V0H24" id="ao"/><path fill="#fff" d="M114-163C36-179 61-72 57 0H25l-1-190h30c1 12-1 29 2 39 6-27 23-49 58-41v29" id="ap"/><g id="z"><use transform="matrix(0.05,0,0,0.05,0,0)" xlink:href="#al"/><use transform="matrix(0.05,0,0,0.05,9,0)" xlink:href="#E"/><use transform="matrix(0.05,0,0,0.05,19,0)" xlink:href="#D"/><use transform="matrix(0.05,0,0,0.05,29,0)" xlink:href="#am"/><use transform="matrix(0.05,0,0,0.05,34,0)" xlink:href="#an"/><use transform="matrix(0.05,0,0,0.05,44,0)" xlink:href="#ao"/><use transform="matrix(0.05,0,0,0.05,47.95,0)" xlink:href="#D"/><use transform="matrix(0.05,0,0,0.05,57.95,0)" xlink:href="#G"/><use transform="matrix(0.05,0,0,0.05,67.95,0)" xlink:href="#ap"/></g><g id="A"><use transform="matrix(0.05,0,0,0.05,0,0)" xlink:href="#al"/><use transform="matrix(0.05,0,0,0.05,9,0)" xlink:href="#E"/><use transform="matrix(0.05,0,0,0.05,19,0)" xlink:href="#D"/><use transform="matrix(0.05,0,0,0.05,29,0)" xlink:href="#am"/><use transform="matrix(0.05,0,0,0.05,34,0)" xlink:href="#G"/><use transform="matrix(0.05,0,0,0.05,44,0)" xlink:href="#D"/><use transform="matrix(0.05,0,0,0.05,54,0)" xlink:href="#am"/></g><path fill="#fff" d="M9 0v-24l116-142H16v-24h144v24L44-24h123V0H9" id="aq"/><path fill="#fff" d="M143 0L79-87 56-68V0H24v-261h32v163l83-92h37l-77 82L181 0h-38" id="ar"/><g id="B"><use transform="matrix(0.05,0,0,0.05,0,0)" xlink:href="#aq"/><use transform="matrix(0.05,0,0,0.05,9,0)" xlink:href="#ar"/></g><path fill="#fff" d="M24 0v-261h32V0H24" id="as"/><path fill="#fff" d="M84 4C-5 8 30-112 23-190h32v120c0 31 7 50 39 49 72-2 45-101 50-169h31l1 190h-30c-1-10 1-25-2-33-11 22-28 36-60 37" id="at"/><path fill="#fff" d="M135-143c-3-34-86-38-87 0 15 53 115 12 119 90S17 21 10-45l28-5c4 36 97 45 98 0-10-56-113-15-118-90-4-57 82-63 122-42 12 7 21 19 24 35" id="au"/><path fill="#fff" d="M16-82v-28h88v28H16" id="av"/><g id="C"><use transform="matrix(0.05,0,0,0.05,0,0)" xlink:href="#al"/><use transform="matrix(0.05,0,0,0.05,9,0)" xlink:href="#as"/><use transform="matrix(0.05,0,0,0.05,12.949999999999998,0)" xlink:href="#at"/><use transform="matrix(0.05,0,0,0.05,22.95,0)" xlink:href="#au"/><use transform="matrix(0.05,0,0,0.05,31.950000000000003,0)" xlink:href="#am"/><use transform="matrix(0.05,0,0,0.05,36.95,0)" xlink:href="#G"/><use transform="matrix(0.05,0,0,0.05,46.95,0)" xlink:href="#ap"/><use transform="matrix(0.05,0,0,0.05,52.900000000000006,0)" xlink:href="#av"/><use transform="matrix(0.05,0,0,0.05,58.85,0)" xlink:href="#al"/></g></defs></g></svg>