<svg xmlns="http://www.w3.org/2000/svg" xmlns:xlink="http://www.w3.org/1999/xlink" xmlns:lucid="lucid" width="2321.28" height="1442.1"><g transform="translate(0 0)" lucid:page-tab-id="gowzaV-ogsoG"><path d="M0 0h2321.28v1442.1H0z" fill="#fff"/><path d="M440 222a2 2 0 0 1 2-2h1396a2 2 0 0 1 2 2v1016a2 2 0 0 1-2 2H442a2 2 0 0 1-2-2z" fill="#c4c5b9"/><path d="M491.72 248.08c.02-2.27.85-4.2 2.48-5.8 1.64-1.6 3.6-2.38 5.87-2.37 1.06 0 2.07.18 3.03.57.97.4 1.84.96 2.58 1.7l-1.63 1.56c-1.13-1.07-2.44-1.6-3.98-1.6-1.06 0-2.07.27-3 .8-.9.55-1.63 1.28-2.15 2.2-.53.94-.76 1.93-.74 3-.02 1.06.2 2.05.74 2.97.52.93 1.24 1.66 2.16 2.2.92.54 1.93.8 3 .8.77.04 1.5-.1 2.22-.37.7-.3 1.33-.7 1.88-1.26.74-.8 1.15-1.73 1.22-2.8h-5.33v-2.33h7.47c.1.47.14.93.14 1.4.07 2-.6 3.75-1.95 5.23-.74.77-1.6 1.35-2.58 1.75-1 .4-2.02.58-3.08.54-2.28 0-4.23-.78-5.87-2.37-1.63-1.6-2.46-3.54-2.48-5.82zm0 0M513.75 245.73c-1.45 0-2.7.52-3.72 1.55-1.04 1.03-1.54 2.26-1.54 3.72 0 1.46.5 2.7 1.55 3.72 1.03 1.03 2.28 1.54 3.73 1.54 1.45 0 2.7-.5 3.72-1.54 1.04-1.03 1.54-2.27 1.54-3.72.03-.95-.2-1.84-.66-2.66-.46-.82-1.13-1.47-1.96-1.94-.83-.46-1.72-.7-2.67-.67zm0 8.45c-.55 0-1.05-.16-1.54-.45-.47-.3-.84-.68-1.1-1.17-.25-.5-.36-1.02-.34-1.57 0-.84.3-1.55.88-2.13.57-.6 1.28-.88 2.1-.88.84 0 1.58.28 2.15.87.57.58.87 1.3.87 2.12.02.54-.1 1.07-.35 1.56-.25.5-.62.88-1.1 1.18-.5.3-1.02.44-1.57.45zM525.32 245.73c-1.45 0-2.7.52-3.72 1.55-1.04 1.03-1.55 2.28-1.55 3.73 0 1.46.53 2.7 1.57 3.72 1.03 1.03 2.28 1.54 3.73 1.54 1.44 0 2.7-.5 3.72-1.54 1.04-1.03 1.54-2.27 1.54-3.72.03-.95-.2-1.84-.68-2.66-.48-.83-1.1-1.47-1.93-1.94-.84-.47-1.74-.7-2.68-.67zm0 8.45c-.55 0-1.08-.16-1.56-.45-.5-.3-.83-.68-1.08-1.17-.26-.5-.4-1.02-.37-1.57 0-.84.33-1.55.9-2.13.58-.6 1.3-.88 2.12-.88.83 0 1.54.28 2.12.87.57.58.87 1.3.87 2.12.04.54-.08 1.07-.33 1.56-.26.5-.62.88-1.1 1.18-.5.3-1 .44-1.55.45zM539.5 246.05v.85h-.08c-.37-.38-.78-.68-1.26-.9-.5-.2-1-.28-1.52-.27-1.4.06-2.62.6-3.6 1.62-.96 1.02-1.46 2.23-1.46 3.64 0 1.4.5 2.62 1.47 3.63.97 1.02 2.2 1.56 3.6 1.62.52.02 1.02-.08 1.5-.3.5-.2.93-.5 1.27-.9h.07v.76c0 2-1.1 3.1-2.84 3.1-.57 0-1.1-.2-1.6-.53-.47-.34-.8-.78-1.02-1.33l-2 .84c.4.94 1 1.7 1.86 2.27.85.57 1.8.85 2.83.84 2.7 0 5-1.6 5-5.5v-9.45h-2.22zm-2.68 8.14c-.55-.02-1.06-.17-1.52-.46-.46-.3-.82-.68-1.08-1.17-.25-.5-.34-1-.32-1.56-.02-.53.07-1.06.32-1.55.26-.5.62-.88 1.08-1.18.46-.3.97-.45 1.52-.47.55.03 1.04.2 1.5.5.46.3.8.7 1.03 1.17.23.5.35 1 .3 1.54.02.55-.07 1.06-.3 1.53-.23.48-.6.87-1.03 1.17-.44.3-.97.46-1.5.5zm0 0M543.3 240.47h2.3v15.47h-2.32zM551.96 254.2c-.56 0-1.06-.13-1.52-.42-.46-.3-.8-.7-1.04-1.2l7.06-2.9-.25-.6c-.3-.98-.9-1.78-1.7-2.4-.84-.6-1.76-.93-2.8-.95-.92 0-1.8.23-2.6.7-.8.5-1.4 1.13-1.84 1.95-.43.82-.62 1.7-.57 2.62-.03.94.2 1.82.66 2.64.46.83 1.1 1.47 1.93 1.94.82.47 1.7.7 2.63.68.88 0 1.73-.2 2.5-.6.8-.43 1.4-1 1.9-1.73l-1.8-1.2c-.27.45-.64.8-1.1 1.07-.46.26-.94.4-1.47.4zm-.2-6.44c.43-.04.82.04 1.2.25.35.2.63.5.8.88l-4.7 2c-.05-.53.04-1.02.27-1.5.23-.47.56-.85 1-1.14.43-.3.9-.45 1.44-.48zm0 0M561.04 248.8c-.02-1.34.28-2.6.94-3.76.67-1.16 1.57-2.08 2.74-2.74 1.17-.67 2.42-1 3.75-.96 1-.02 1.98.17 2.9.58.92.4 1.7 1 2.37 1.75l-1.3 1.24c-.47-.6-1.07-1.06-1.8-1.38-.7-.32-1.4-.46-2.2-.43-1-.03-1.97.22-2.85.73-.88.5-1.57 1.2-2.05 2.1-.48.9-.7 1.85-.67 2.87-.04 1 .2 1.95.7 2.84.47.88 1.14 1.58 2 2.08.9.5 1.83.75 2.84.74.86 0 1.66-.18 2.42-.52.76-.35 1.42-.84 1.98-1.48l1.28 1.28c-1.03 1.16-2.27 1.92-3.8 2.3-1.5.37-2.98.28-4.43-.27-1.45-.55-2.64-1.46-3.52-2.74-.87-1.27-1.3-2.68-1.3-4.23zm0 0M575.55 255.94v-14.28h1.84v14.28zM588.83 251.06c0 1.38-.5 2.56-1.48 3.54-1 1-2.18 1.48-3.56 1.48-1.4 0-2.56-.5-3.55-1.47-1-.97-1.48-2.16-1.48-3.54 0-1.4.5-2.58 1.48-3.56 1-.98 2.16-1.47 3.54-1.47 1.37 0 2.56.5 3.55 1.47 1 .98 1.48 2.17 1.48 3.56zm-1.85 0c.07-.74-.1-1.4-.5-2.02-.4-.6-.97-1.03-1.66-1.27-.7-.24-1.38-.24-2.07 0-.7.24-1.24.66-1.63 1.27-.4.62-.6 1.28-.53 2.02 0 .88.3 1.63.93 2.26.63.63 1.38.94 2.28.94.9 0 1.67-.3 2.3-.94.6-.63.93-1.38.93-2.26zM597.13 255.94v-1.35H597c-.33.5-.77.9-1.32 1.2-.55.3-1.15.46-1.77.46-2.52 0-3.72-1.7-3.72-4.1v-6h1.84v5.7c0 2 1 2.72 2.42 2.72.76-.06 1.4-.38 1.9-.97.5-.57.72-1.24.67-2v-5.4h1.85v9.77h-1.75zM600.37 251.06c-.07-1.36.37-2.54 1.27-3.55.9-1 2.02-1.56 3.38-1.65.66-.02 1.28.12 1.88.4.6.3 1.08.73 1.45 1.27h.07l-.07-1.36v-4.5h1.84v14.28h-1.78v-1.35h-.07c-.37.53-.85.95-1.45 1.25-.6.3-1.22.43-1.88.4-1.36-.08-2.5-.64-3.38-1.65-.9-1-1.34-2.2-1.27-3.54zm8.07 0c.1-.73-.07-1.4-.46-2.03-.4-.62-.92-1.04-1.6-1.28-.7-.25-1.4-.25-2.08 0-.7.24-1.24.66-1.63 1.28-.4.63-.55 1.3-.46 2.03-.08.72.08 1.4.47 2 .4.63.94 1.06 1.63 1.3.7.25 1.38.25 2.07 0 .7-.24 1.22-.67 1.6-1.3.4-.6.57-1.28.47-2zM615.23 255.94v-14.28h4.88c.8-.03 1.52.15 2.2.52.7.37 1.23.9 1.65 1.56.4.66.6 1.4.62 2.17-.03.8-.2 1.5-.62 2.18-.42.66-.95 1.18-1.64 1.56-.68.37-1.4.54-2.2.52h-3v5.78h-1.85zm4.9-7.54c.7 0 1.3-.24 1.77-.73.48-.5.74-1.07.74-1.76 0-.68-.26-1.27-.74-1.76-.48-.48-1.08-.73-1.77-.73H617v5h3.08zM625.86 255.94v-14.28h1.84v14.28zM629.28 253c0-2.22 2-3.42 4.3-3.42.95-.03 1.84.18 2.67.6v-.28c-.04-.6-.25-1.1-.64-1.54-.38-.44-.84-.72-1.42-.83-.57-.12-1.13-.05-1.65.2-.53.26-.92.65-1.18 1.17l-1.68-.72c.46-.9 1.15-1.54 2.05-1.97.9-.4 1.84-.5 2.83-.3 1 .22 1.8.72 2.44 1.48.63.77.95 1.66 1 2.66v5.9h-1.75v-1.35h-.1c-.34.53-.8.95-1.37 1.25-.58.3-1.2.44-1.84.4-.62.07-1.2-.04-1.77-.3-.58-.3-1-.7-1.36-1.22-.33-.53-.52-1.1-.52-1.74zm7-1.27c-.72-.47-1.48-.68-2.33-.63-1.93 0-2.7 1-2.7 1.93.06.5.3.88.68 1.18.4.3.83.44 1.3.4.8 0 1.5-.3 2.08-.84.58-.55.9-1.23.95-2.03zM640.64 252.97v-5.13h-1.72v-1.68h1.72v-3h1.84v3h2.4v1.68h-2.4v5c0 1.1.5 1.6 1.34 1.6.3 0 .55-.05.83-.17l.64 1.57c-.5.2-.98.28-1.48.26-.58.07-1.13-.03-1.66-.3s-.92-.67-1.2-1.18c-.27-.52-.38-1.07-.32-1.65zM652.6 241.84l-.62 1.57c-.27-.1-.53-.16-.83-.15-.3-.02-.57.04-.85.2-.27.14-.48.35-.62.62-.13.27-.18.56-.16.86v1.23h2.46v1.68h-2.55v8.1h-1.84v-8.1h-1.85v-1.68h1.84v-1.3c-.03-.6.1-1.18.43-1.7.32-.54.76-.95 1.3-1.23.56-.3 1.13-.4 1.76-.35.5-.03 1.02.06 1.5.26zM662.6 251.06c0 1.38-.47 2.56-1.46 3.54-1 1-2.2 1.48-3.57 1.48-1.38 0-2.57-.5-3.56-1.47-.98-.97-1.47-2.16-1.47-3.54 0-1.4.5-2.58 1.48-3.56 1-.98 2.2-1.47 3.57-1.47 1.38 0 2.58.5 3.57 1.47 1 .98 1.47 2.17 1.47 3.56zm-1.83 0c.07-.74-.12-1.4-.5-2.02-.4-.6-.97-1.03-1.66-1.27-.68-.24-1.37-.24-2.06 0-.7.24-1.27.66-1.66 1.27-.4.62-.57 1.28-.5 2.02-.07.72.1 1.4.5 2 .4.62.97 1.04 1.66 1.28.7.23 1.38.23 2.07 0 .7-.24 1.27-.66 1.66-1.28.4-.6.58-1.28.5-2zM664.08 255.94v-9.78h1.77v1.6h.07c.25-.54.67-1 1.17-1.32.5-.33 1.07-.5 1.67-.5.5-.03.95.05 1.38.22l-.7 1.72c-.33-.1-.65-.15-1-.14-.48.02-.92.16-1.33.43-.42.27-.74.6-.95 1.05-.2.43-.32.9-.27 1.38v5.34zm0 0M671.14 246.16h1.75v1.36h.08c.35-.5.78-.9 1.3-1.2.54-.3 1.12-.45 1.72-.47.66-.06 1.26.1 1.84.44.57.33.98.8 1.24 1.42.37-.6.87-1.04 1.47-1.38.6-.34 1.26-.5 1.95-.5 2.4 0 3.5 1.7 3.5 4.12v5.98h-1.84v-5.7c0-2-.78-2.72-2.18-2.72-1.4 0-2.5 1.52-2.5 3v5.4h-1.83v-5.68c0-2-.78-2.72-2.18-2.72-1.4 0-2.5 1.52-2.5 3v5.4h-1.85v-9.75z" fill="#737373"/><path d="M474.38 255.95l-2.88 5h-7.52c-.34 0-.64-.1-.94-.26-.3-.18-.53-.4-.7-.7l-6.06-10.6c-.16-.3-.26-.6-.26-.94 0-.33.1-.64.26-.93l2.3-4.05 2.85 5 4.32 7.47zm0 0" fill="#ffcc40"/><path d="M483.88 249.4l-6.1 10.6c-.16.3-.4.52-.7.7-.3.16-.6.24-.93.24h-4.65l2.88-5 4.32-7.47-4.32-7.48h5.68l3.77 6.54c.16.3.28.6.28.93 0 .32-.06.64-.22.93z" fill="#da4437"/><path d="M480.06 241h-14.3l-4.3 7.47-2.88-5 3.77-6.53c.16-.3.4-.52.7-.7.3-.16.6-.24.93-.24h12.17c.34 0 .64.08.94.25.3.17.52.4.68.7z" fill="#4284f3"/><path d="M474.38 241l4.32 7.47-4.32 7.48h-8.63l-4.3-7.48 4.3-7.48z" fill="#dfdfdf"/><path d="M466.33 248.47c0-2.06 1.68-3.74 3.75-3.74 2.07 0 3.75 1.68 3.75 3.74 0 2.06-1.68 3.74-3.75 3.74-2.07 0-3.75-1.66-3.75-3.73z" fill="#fff"/><path d="M462.35 237.1c.16-.3.4-.52.7-.7.3-.16.6-.24.93-.24h12.17c.34 0 .64.08.94.25.3.18.52.4.68.7l2.28 3.9-2.28-4.06c-.16-.3-.4-.52-.7-.7-.3-.16-.6-.24-.93-.24h-12.17c-.34 0-.64.08-.94.25-.3.17-.53.4-.7.7l-3.76 6.53v.08z" fill="#fff" fill-opacity=".2"/><path d="M461.45 248.47l4.3-7.48h14.35l-.06-.17h-14.3l-4.3 7.48" fill="#1a237e" fill-opacity=".2"/><path d="M456.28 247.7l2.3-4 2.87 5 4.3 7.47h8.56l.08-.16h-8.63l-4.3-7.53-2.87-5-2.33 4c-.18.3-.25.65-.23 1 .03-.28.12-.54.26-.78zm0 0" fill="#fff" fill-opacity=".2"/><path d="M471.6 260.78h-7.62c-.34 0-.64-.08-.94-.25-.3-.17-.53-.4-.7-.7l-6.06-10.58c-.14-.26-.23-.55-.26-.85-.02.35.07.7.26 1l6.07 10.6c.16.3.4.52.7.7.3.16.6.24.93.24h7.52z" fill="#be360c"/><path d="M478.8 248.47l-4.33-7.48h-.1l4.33 7.47zM483.88 249.25l-6.1 10.6c-.16.28-.4.5-.7.68-.3.17-.6.25-.93.25h-4.56l-.1.16h4.65c.34 0 .64-.08.94-.25.3-.18.52-.4.68-.7l6.1-10.6c.18-.3.25-.64.23-1-.02.3-.1.6-.22.85zm0 0" fill="#3e2723"/><path d="M480.06 241.15l3.77 6.55c.14.27.23.55.25.85.03-.36-.07-.7-.25-1l-3.77-6.56h-5.68l.1.15M474.38 256.1l4.4-7.63h-.08l-4.32 7.48-2.88 5h.1z" fill="#fff"/><path d="M483.88 247.54l-3.82-6.55-2.28-4.06c-.16-.3-.4-.52-.7-.7-.3-.16-.6-.24-.93-.24h-12.17c-.34 0-.64.08-.94.25-.3.17-.53.4-.7.7l-6.06 10.6c-.16.28-.26.6-.26.92 0 .34.1.65.26.94l6.07 10.6c.16.3.4.52.7.7.3.16.6.24.93.24h12.17c.34 0 .64-.08.94-.25.3-.18.52-.4.68-.7l6.1-10.6c.16-.28.25-.6.25-.93 0-.33-.1-.64-.25-.93z" fill="url(#a)"/><path d="M460 282a2 2 0 0 1 2-2h1356a2 2 0 0 1 2 2v936a2 2 0 0 1-2 2H462a2 2 0 0 1-2-2z" fill="#b7e2f1"/><use xlink:href="#b" transform="matrix(1,0,0,1,476,296) translate(0 16.69921875)"/><use xlink:href="#c" transform="matrix(1,0,0,1,476,296) translate(56.7685546875 16.69921875)"/><use xlink:href="#d" transform="matrix(1,0,0,1,476,296) translate(116.8330078125 16.69921875)"/><path d="M480 342a2 2 0 0 1 2-2h1316a2 2 0 0 1 2 2v856a2 2 0 0 1-2 2H482a2 2 0 0 1-2-2z" fill="#d4d0e7"/><use xlink:href="#e" transform="matrix(1,0,0,1,496,356) translate(0 16.69921875)"/><use xlink:href="#f" transform="matrix(1,0,0,1,496,356) translate(64.0986328125 16.69921875)"/><path d="M500 402a2 2 0 0 1 2-2h1276a2 2 0 0 1 2 2v776a2 2 0 0 1-2 2H502a2 2 0 0 1-2-2z" fill="#baedce"/><use xlink:href="#g" transform="matrix(1,0,0,1,516,416) translate(0 16.69921875)"/><use xlink:href="#h" transform="matrix(1,0,0,1,516,416) translate(49.1396484375 16.69921875)"/><path d="M520 462a2 2 0 0 1 2-2h1236a2 2 0 0 1 2 2v696a2 2 0 0 1-2 2H522a2 2 0 0 1-2-2z" fill="#ffc5b2"/><use xlink:href="#i" transform="matrix(1,0,0,1,536,476) translate(0 16.69921875)"/><use xlink:href="#j" transform="matrix(1,0,0,1,536,476) translate(95.3525390625 16.69921875)"/><path d="M560 602a2 2 0 0 1 2-2h196a2 2 0 0 1 2 2v521.87a2 2 0 0 1-2 2H562a2 2 0 0 1-2-2z" fill="#fff"/><use xlink:href="#k" transform="matrix(1,0,0,1,576,616) translate(0 16.69921875)"/><use xlink:href="#l" transform="matrix(1,0,0,1,576,616) translate(0 37.79296875)"/><path d="M800 602a2 2 0 0 1 2-2h196a2 2 0 0 1 2 2v521.87a2 2 0 0 1-2 2H802a2 2 0 0 1-2-2z" fill="#fff"/><use xlink:href="#m" transform="matrix(1,0,0,1,816,616) translate(0 16.69921875)"/><use xlink:href="#l" transform="matrix(1,0,0,1,816,616) translate(0 37.79296875)"/><path d="M1040 602a2 2 0 0 1 2-2h196a2 2 0 0 1 2 2v521.87a2 2 0 0 1-2 2h-196a2 2 0 0 1-2-2z" fill="#fff"/><use xlink:href="#n" transform="matrix(1,0,0,1,1056,616) translate(0 16.69921875)"/><use xlink:href="#l" transform="matrix(1,0,0,1,1056,616) translate(0 37.79296875)"/><path d="M1280 603.5a2 2 0 0 1 2-2h196a2 2 0 0 1 2 2v521.86a2 2 0 0 1-2 2h-196a2 2 0 0 1-2-2z" fill="#fff"/><use xlink:href="#o" transform="matrix(1,0,0,1,1296,617.4934191397483) translate(0 16.69921875)"/><use xlink:href="#l" transform="matrix(1,0,0,1,1296,617.4934191397483) translate(0 37.79296875)"/><path d="M1520 602a2 2 0 0 1 2-2h196a2 2 0 0 1 2 2v521.87a2 2 0 0 1-2 2h-196a2 2 0 0 1-2-2z" fill="#fff"/><use xlink:href="#p" transform="matrix(1,0,0,1,1536,616) translate(0 16.69921875)"/><use xlink:href="#l" transform="matrix(1,0,0,1,1536,616) translate(0 37.79296875)"/><path d="M659.66 673.17c-1.14.1-2.05.34-2.96.8l-39.44 19.43c-2.16 1.02-3.64 2.84-4.1 5.23l-9.77 43.76c-.47 2.04-.13 4.1 1 5.9.13.23.24.34.47.57l27.28 35c1.48 1.94 3.52 2.97 5.9 2.97h43.9c2.38 0 4.42-1.03 5.9-2.96l27.28-35c1.48-1.94 2.05-4.2 1.48-6.6l-9.77-43.65c-.45-2.4-1.93-4.2-4.1-5.23l-39.43-19.44c-1.25-.57-2.4-.9-3.64-.8z" stroke="#000" stroke-opacity="0" stroke-width="3.83" fill="#326ce5"/><path d="M659.64 670c-1.2.12-2.16.36-3.12.84l-41.64 20.52c-2.28 1.08-3.84 3-4.32 5.52l-10.32 46.2c-.48 2.16-.12 4.32 1.08 6.24.12.24.24.36.48.6l28.8 36.96c1.56 2.04 3.72 3.12 6.24 3.12h46.32c2.52 0 4.68-1.08 6.24-3.12l28.8-36.96c1.56-2.04 2.16-4.44 1.56-6.84l-10.32-46.2c-.48-2.52-2.04-4.44-4.32-5.52l-41.64-20.52c-1.32-.6-2.52-.96-3.84-.84zm0 3.24c1.32-.12 2.4.12 3.6.72l39.6 19.44c2.04 1.08 3.48 2.88 4.08 5.28l9.72 43.68c.48 2.4 0 4.56-1.44 6.48l-27.36 35.04c-1.44 1.92-3.48 3-5.88 3h-43.92c-2.4 0-4.44-1.08-5.88-3l-27.36-35.04c-.12-.12-.24-.36-.36-.6-1.2-1.8-1.56-3.72-1.08-5.88l9.72-43.68c.6-2.4 1.92-4.2 4.08-5.28l39.6-19.44c.96-.48 1.8-.72 2.88-.84z" stroke="#000" stroke-opacity="0" stroke-width="3.83" fill="#fff"/><path d="M654.02 772.07c0 3.56-1.2 5.35-3.64 5.35-1.53 0-2.56-.6-3.08-1.8h-.05c.03.07.04.6.04 1.63v4h-1.66v-12.17c0-1.05-.02-1.74-.06-2.1h1.6c0 .04.02.14.02.3.02.14.03.38.04.7l.03.66h.03c.3-.62.7-1.1 1.17-1.37.48-.3 1.1-.45 1.9-.45 1.23 0 2.14.42 2.74 1.27.62.82.92 2.15.92 3.97zm-1.73.03c0-1.42-.2-2.44-.56-3.05-.38-.62-.97-.92-1.78-.92-.66 0-1.17.15-1.54.44-.37.27-.65.72-.84 1.32-.2.58-.3 1.38-.3 2.33 0 1.35.22 2.33.63 2.97.43.63 1.1.95 2.04.95.82 0 1.4-.3 1.78-.92.38-.62.57-1.66.57-3.13zM664.48 772.1c0 1.8-.4 3.13-1.15 4-.76.88-1.88 1.32-3.33 1.32-1.45 0-2.54-.46-3.28-1.36-.74-.92-1.1-2.24-1.1-3.96 0-3.53 1.47-5.3 4.44-5.3 1.52 0 2.63.45 3.34 1.3.72.87 1.08 2.2 1.08 4zm-1.73 0c0-1.4-.22-2.43-.62-3.07-.4-.64-1.1-.95-2.04-.95-.98 0-1.68.3-2.1.97-.44.65-.66 1.67-.66 3.05 0 1.35.2 2.37.64 3.05.42.68 1.1 1 2 1 1 0 1.7-.3 2.12-.97.43-.66.65-1.7.65-3.08zM672.8 775.58c-.3.65-.7 1.12-1.22 1.4-.5.3-1.13.43-1.87.43-1.24 0-2.17-.43-2.76-1.3-.6-.86-.88-2.18-.88-3.94 0-3.57 1.22-5.35 3.65-5.35.76 0 1.38.16 1.9.44.5.28.9.74 1.2 1.35v-5.4h1.64v11.9c0 1.08.03 1.8.06 2.13h-1.58l-.06-.7c0-.37-.03-.68-.03-.95zm-5-3.48c0 1.43.18 2.46.54 3.07.37.63.96.94 1.8.94.93 0 1.6-.33 2.02-1 .43-.67.64-1.7.64-3.1 0-1.36-.2-2.36-.64-2.98-.42-.63-1.1-.96-2-.96-.84 0-1.44.33-1.82.97-.36.63-.55 1.65-.55 3.07z" stroke="#000" stroke-opacity="0" fill="#fff"/><path d="M635.92 710.2L660 703l24.1 7.2-24.1 7.2zM635.92 712.95v26.4l22.44 12.83.1-32.32zM684.08 712.95v26.4l-22.44 12.83-.1-32.32z" stroke="#000" stroke-opacity="0" stroke-width="3.77" fill="#fff"/><g filter="url(#q)"><path d="M1280 502a2 2 0 0 1 2-2h196a2 2 0 0 1 2 2v56a2 2 0 0 1-2 2h-196a2 2 0 0 1-2-2z" fill="#fff"/><path d="M1310 510c-5.52 0-10.24 1.95-14.14 5.86-3.9 3.9-5.86 8.62-5.86 14.14 0 5.52 1.95 10.24 5.86 14.14 3.9 3.9 8.62 5.86 14.14 5.86 5.52 0 10.24-1.95 14.14-5.86 3.9-3.9 5.86-8.62 5.86-14.14 0-5.52-1.95-10.24-5.86-14.14-3.9-3.9-8.62-5.86-14.14-5.86zm11.25 30h-8.75v-6.25h2.5v-2.5h-10v2.5h2.5V540h-8.75v-6.25h3.75V530c0-.34.12-.64.37-.88.24-.25.54-.37.88-.37h5v-2.5H1305V520h10v6.25h-3.75v2.5h5c.35 0 .64.12.88.37.25.24.37.54.37.88v3.75h3.75z" fill="#757575"/><use xlink:href="#r" transform="matrix(1,0,0,1,1340,520) translate(0 16.69921875)"/></g><g filter="url(#q)"><path d="M1040 502a2 2 0 0 1 2-2h196a2 2 0 0 1 2 2v56a2 2 0 0 1-2 2h-196a2 2 0 0 1-2-2z" fill="#fff"/><path d="M1070 510c-5.52 0-10.24 1.95-14.14 5.86-3.9 3.9-5.86 8.62-5.86 14.14 0 5.52 1.95 10.24 5.86 14.14 3.9 3.9 8.62 5.86 14.14 5.86 5.52 0 10.24-1.95 14.14-5.86 3.9-3.9 5.86-8.62 5.86-14.14 0-5.52-1.95-10.24-5.86-14.14-3.9-3.9-8.62-5.86-14.14-5.86zm11.25 30h-8.75v-6.25h2.5v-2.5h-10v2.5h2.5V540h-8.75v-6.25h3.75V530c0-.34.12-.64.37-.88.24-.25.54-.37.88-.37h5v-2.5H1065V520h10v6.25h-3.75v2.5h5c.35 0 .64.12.88.37.25.24.37.54.37.88v3.75h3.75z" fill="#757575"/><use xlink:href="#s" transform="matrix(1,0,0,1,1100,520) translate(0 16.69921875)"/></g><path d="M657.8 803.17c-1.14.1-2.05.34-2.96.8L615.4 823.4c-2.16 1.02-3.64 2.84-4.1 5.23l-9.77 43.76c-.46 2.04-.12 4.1 1.02 5.9.12.23.23.34.46.57l27.3 35c1.47 1.94 3.5 2.97 5.9 2.97h43.88c2.38 0 4.43-1.03 5.9-2.96l27.3-35c1.47-1.94 2.04-4.2 1.47-6.6l-9.78-43.65c-.45-2.4-1.93-4.2-4.1-5.23l-39.44-19.44c-1.25-.57-2.38-.9-3.63-.8z" stroke="#000" stroke-opacity="0" stroke-width="3.83" fill="#326ce5"/><path d="M657.78 800c-1.2.12-2.16.36-3.12.84l-41.64 20.52c-2.28 1.08-3.84 3-4.32 5.52l-10.32 46.2c-.48 2.16-.12 4.32 1.08 6.24.12.24.24.36.48.6l28.8 36.96c1.56 2.04 3.72 3.12 6.24 3.12h46.32c2.52 0 4.68-1.08 6.24-3.12l28.8-36.96c1.56-2.04 2.16-4.44 1.56-6.84l-10.32-46.2c-.48-2.52-2.04-4.44-4.32-5.52l-41.64-20.52c-1.32-.6-2.52-.96-3.84-.84zm0 3.24c1.32-.12 2.4.12 3.6.72l39.6 19.44c2.04 1.08 3.48 2.88 4.08 5.28l9.72 43.68c.48 2.4 0 4.56-1.44 6.48l-27.36 35.04c-1.44 1.92-3.48 3-5.88 3h-43.92c-2.4 0-4.44-1.08-5.88-3l-27.36-35.04c-.12-.12-.24-.36-.36-.6-1.2-1.8-1.56-3.72-1.08-5.88l9.72-43.68c.6-2.4 1.92-4.2 4.08-5.28l39.6-19.44c.96-.48 1.8-.72 2.88-.84z" stroke="#000" stroke-opacity="0" stroke-width="3.83" fill="#fff"/><path d="M652.16 902.07c0 3.56-1.2 5.35-3.64 5.35-1.53 0-2.56-.6-3.08-1.8h-.05c.02.07.03.6.03 1.63v4h-1.65v-12.17c0-1.05-.02-1.74-.06-2.1h1.6l.02.3c.02.14.03.38.04.7l.03.66h.04c.3-.62.7-1.1 1.17-1.37.5-.3 1.12-.45 1.92-.45 1.22 0 2.13.42 2.73 1.27.6.82.9 2.15.9 3.97zm-1.73.03c0-1.42-.18-2.44-.55-3.05-.38-.62-.98-.92-1.78-.92-.66 0-1.17.15-1.54.44-.37.27-.65.72-.85 1.32-.18.58-.27 1.38-.27 2.33 0 1.35.2 2.33.62 2.97.42.63 1.1.95 2.03.95.82 0 1.4-.3 1.78-.92.38-.62.57-1.66.57-3.13zM662.6 902.1c0 1.8-.37 3.13-1.13 4-.76.88-1.88 1.32-3.33 1.32-1.45 0-2.54-.46-3.28-1.36-.74-.92-1.1-2.24-1.1-3.96 0-3.53 1.47-5.3 4.44-5.3 1.52 0 2.63.45 3.34 1.3.72.87 1.08 2.2 1.08 4zm-1.7 0c0-1.4-.23-2.43-.63-3.07-.4-.64-1.1-.95-2.04-.95-.97 0-1.67.3-2.1.97-.43.65-.65 1.67-.65 3.05 0 1.35.2 2.37.64 3.05.42.68 1.1 1 2 1 1 0 1.7-.3 2.12-.97.42-.66.65-1.7.65-3.08zM670.94 905.58c-.3.65-.7 1.12-1.22 1.4-.5.3-1.13.43-1.87.43-1.25 0-2.18-.43-2.77-1.3-.6-.86-.88-2.18-.88-3.94 0-3.57 1.2-5.35 3.65-5.35.75 0 1.37.16 1.88.44.5.28.9.74 1.2 1.35h.02v-5.4h1.63v11.9c0 1.08.03 1.8.06 2.13h-1.58l-.06-.7c0-.37-.03-.68-.03-.95zm-5-3.48c0 1.43.18 2.46.54 3.07.37.63.96.94 1.8.94.93 0 1.6-.33 2.02-1 .43-.67.64-1.7.64-3.1 0-1.36-.22-2.36-.64-2.98-.42-.63-1.1-.96-2-.96-.84 0-1.44.33-1.82.97-.36.63-.55 1.65-.55 3.07z" stroke="#000" stroke-opacity="0" fill="#fff"/><path d="M634.06 840.2l24.08-7.2 24.1 7.2-24.1 7.2zM634.06 842.95v26.4l22.43 12.83.1-32.32zM682.22 842.95v26.4l-22.44 12.83-.1-32.32z" stroke="#000" stroke-opacity="0" stroke-width="3.77" fill="#fff"/><path d="M657.8 943.17c-1.14.1-2.05.34-2.96.8L615.4 963.4c-2.16 1.02-3.64 2.84-4.1 5.23l-9.77 43.76c-.46 2.04-.12 4.1 1.02 5.9.12.23.23.34.46.57l27.3 35c1.47 1.94 3.5 2.97 5.9 2.97h43.88c2.38 0 4.43-1.03 5.9-2.96l27.3-35c1.47-1.94 2.04-4.2 1.47-6.6l-9.78-43.65c-.45-2.4-1.93-4.2-4.1-5.23l-39.44-19.44c-1.25-.57-2.38-.9-3.63-.8z" stroke="#000" stroke-opacity="0" stroke-width="3.83" fill="#326ce5"/><path d="M657.78 940c-1.2.12-2.16.36-3.12.84l-41.64 20.52c-2.28 1.08-3.84 3-4.32 5.52l-10.32 46.2c-.48 2.16-.12 4.32 1.08 6.24.12.24.24.36.48.6l28.8 36.96c1.56 2.04 3.72 3.12 6.24 3.12h46.32c2.52 0 4.68-1.08 6.24-3.12l28.8-36.96c1.56-2.04 2.16-4.44 1.56-6.84l-10.32-46.2c-.48-2.52-2.04-4.44-4.32-5.52l-41.64-20.52c-1.32-.6-2.52-.96-3.84-.84zm0 3.24c1.32-.12 2.4.12 3.6.72l39.6 19.44c2.04 1.08 3.48 2.88 4.08 5.28l9.72 43.68c.48 2.4 0 4.56-1.44 6.48l-27.36 35.04c-1.44 1.92-3.48 3-5.88 3h-43.92c-2.4 0-4.44-1.08-5.88-3l-27.36-35.04c-.12-.12-.24-.36-.36-.6-1.2-1.8-1.56-3.72-1.08-5.88l9.72-43.68c.6-2.4 1.92-4.2 4.08-5.28l39.6-19.44c.96-.48 1.8-.72 2.88-.84z" stroke="#000" stroke-opacity="0" stroke-width="3.83" fill="#fff"/><path d="M652.16 1042.07c0 3.56-1.2 5.35-3.64 5.35-1.53 0-2.56-.6-3.08-1.8h-.05c.02.07.03.6.03 1.63v4h-1.65v-12.17c0-1.05-.02-1.74-.06-2.1h1.6l.02.3c.02.14.03.38.04.7l.03.66h.04c.3-.62.7-1.1 1.17-1.37.5-.3 1.12-.45 1.92-.45 1.22 0 2.13.42 2.73 1.27.6.83.9 2.15.9 3.97zm-1.73.03c0-1.42-.18-2.44-.55-3.04-.38-.63-.98-.93-1.78-.93-.66 0-1.17.15-1.54.43-.37.28-.65.73-.85 1.33-.18.58-.27 1.38-.27 2.33 0 1.35.2 2.33.62 2.97.42.63 1.1.95 2.03.95.82 0 1.4-.3 1.78-.92.38-.62.57-1.66.57-3.13zM662.6 1042.1c0 1.8-.37 3.13-1.13 4-.76.88-1.88 1.32-3.33 1.32-1.45 0-2.54-.46-3.28-1.36-.74-.92-1.1-2.24-1.1-3.96 0-3.53 1.47-5.3 4.44-5.3 1.52 0 2.63.45 3.34 1.3.72.87 1.08 2.2 1.08 4zm-1.7 0c0-1.4-.23-2.43-.63-3.07-.4-.64-1.1-.95-2.04-.95-.97 0-1.67.3-2.1.97-.43.65-.65 1.67-.65 3.05 0 1.35.2 2.37.64 3.05.42.68 1.1 1 2 1 1 0 1.7-.3 2.12-.97.42-.66.65-1.7.65-3.08zM670.94 1045.58c-.3.65-.7 1.12-1.22 1.4-.5.3-1.13.43-1.87.43-1.25 0-2.18-.43-2.77-1.3-.6-.86-.88-2.18-.88-3.94 0-3.57 1.2-5.35 3.65-5.35.75 0 1.37.16 1.88.44.5.28.9.74 1.2 1.35h.02v-5.4h1.63v11.9c0 1.08.03 1.8.06 2.13h-1.58l-.06-.7c0-.37-.03-.68-.03-.95zm-5-3.48c0 1.44.18 2.46.54 3.07.37.63.96.94 1.8.94.93 0 1.6-.33 2.02-1 .43-.67.64-1.7.64-3.1 0-1.36-.22-2.36-.64-2.98-.42-.63-1.1-.96-2-.96-.84 0-1.44.33-1.82.97-.36.63-.55 1.65-.55 3.07z" stroke="#000" stroke-opacity="0" fill="#fff"/><path d="M634.06 980.2l24.08-7.2 24.1 7.2-24.1 7.2zM634.06 982.95v26.4l22.43 12.83.1-32.32zM682.22 982.95v26.4l-22.44 12.83-.1-32.32z" stroke="#000" stroke-opacity="0" stroke-width="3.77" fill="#fff"/><path d="M899.66 673.17c-1.14.1-2.05.34-2.96.8l-39.44 19.43c-2.16 1.02-3.64 2.84-4.1 5.23l-9.77 43.76c-.47 2.04-.13 4.1 1 5.9.13.23.24.34.47.57l27.28 35c1.48 1.94 3.52 2.97 5.9 2.97h43.9c2.38 0 4.42-1.03 5.9-2.96l27.28-35c1.48-1.94 2.05-4.2 1.48-6.6l-9.77-43.65c-.45-2.4-1.93-4.2-4.1-5.23l-39.43-19.44c-1.25-.57-2.4-.9-3.64-.8z" stroke="#000" stroke-opacity="0" stroke-width="3.83" fill="#326ce5"/><path d="M899.64 670c-1.2.12-2.16.36-3.12.84l-41.64 20.52c-2.28 1.08-3.84 3-4.32 5.52l-10.32 46.2c-.48 2.16-.12 4.32 1.08 6.24.12.24.24.36.48.6l28.8 36.96c1.56 2.04 3.72 3.12 6.24 3.12h46.32c2.52 0 4.68-1.08 6.24-3.12l28.8-36.96c1.56-2.04 2.16-4.44 1.56-6.84l-10.32-46.2c-.48-2.52-2.04-4.44-4.32-5.52l-41.64-20.52c-1.32-.6-2.52-.96-3.84-.84zm0 3.24c1.32-.12 2.4.12 3.6.72l39.6 19.44c2.04 1.08 3.48 2.88 4.08 5.28l9.72 43.68c.48 2.4 0 4.56-1.44 6.48l-27.36 35.04c-1.44 1.92-3.48 3-5.88 3h-43.92c-2.4 0-4.44-1.08-5.88-3l-27.36-35.04c-.12-.12-.24-.36-.36-.6-1.2-1.8-1.56-3.72-1.08-5.88l9.72-43.68c.6-2.4 1.92-4.2 4.08-5.28l39.6-19.44c.96-.48 1.8-.72 2.88-.84z" stroke="#000" stroke-opacity="0" stroke-width="3.83" fill="#fff"/><path d="M894.02 772.07c0 3.56-1.2 5.35-3.64 5.35-1.53 0-2.56-.6-3.08-1.8h-.05c.03.07.04.6.04 1.63v4h-1.66v-12.17c0-1.05-.02-1.74-.06-2.1h1.6c0 .04.02.14.02.3.02.14.03.38.04.7l.03.66h.03c.3-.62.7-1.1 1.17-1.37.48-.3 1.1-.45 1.9-.45 1.23 0 2.14.42 2.74 1.27.62.82.92 2.15.92 3.97zm-1.73.03c0-1.42-.2-2.44-.56-3.05-.38-.62-.97-.92-1.78-.92-.66 0-1.17.15-1.54.44-.37.27-.65.72-.84 1.32-.2.58-.3 1.38-.3 2.33 0 1.35.22 2.33.63 2.97.43.63 1.1.95 2.04.95.82 0 1.4-.3 1.78-.92.38-.62.57-1.66.57-3.13zM904.48 772.1c0 1.8-.4 3.13-1.15 4-.76.88-1.88 1.32-3.33 1.32-1.45 0-2.54-.46-3.28-1.36-.74-.92-1.1-2.24-1.1-3.96 0-3.53 1.47-5.3 4.44-5.3 1.52 0 2.63.45 3.34 1.3.72.87 1.08 2.2 1.08 4zm-1.73 0c0-1.4-.22-2.43-.62-3.07-.4-.64-1.1-.95-2.04-.95-.98 0-1.68.3-2.1.97-.44.65-.66 1.67-.66 3.05 0 1.35.2 2.37.64 3.05.42.68 1.1 1 2 1 1 0 1.7-.3 2.12-.97.43-.66.65-1.7.65-3.08zM912.8 775.58c-.3.65-.7 1.12-1.22 1.4-.5.3-1.13.43-1.87.43-1.24 0-2.17-.43-2.76-1.3-.6-.86-.88-2.18-.88-3.94 0-3.57 1.22-5.35 3.65-5.35.76 0 1.38.16 1.9.44.5.28.9.74 1.2 1.35v-5.4h1.64v11.9c0 1.08.03 1.8.06 2.13h-1.58l-.06-.7c0-.37-.03-.68-.03-.95zm-5-3.48c0 1.43.18 2.46.54 3.07.37.63.96.94 1.8.94.93 0 1.6-.33 2.02-1 .43-.67.64-1.7.64-3.1 0-1.36-.2-2.36-.64-2.98-.42-.63-1.1-.96-2-.96-.84 0-1.44.33-1.82.97-.36.63-.55 1.65-.55 3.07z" stroke="#000" stroke-opacity="0" fill="#fff"/><path d="M875.92 710.2L900 703l24.1 7.2-24.1 7.2zM875.92 712.95v26.4l22.44 12.83.1-32.32zM924.08 712.95v26.4l-22.44 12.83-.1-32.32z" stroke="#000" stroke-opacity="0" stroke-width="3.77" fill="#fff"/><path d="M1139.66 673.17c-1.14.1-2.05.34-2.96.8l-39.44 19.43c-2.16 1.02-3.64 2.84-4.1 5.23l-9.77 43.76c-.47 2.04-.13 4.1 1 5.9.13.23.24.34.47.57l27.28 35c1.48 1.94 3.52 2.97 5.9 2.97h43.9c2.38 0 4.42-1.03 5.9-2.96l27.28-35c1.48-1.94 2.05-4.2 1.48-6.6l-9.77-43.65c-.45-2.4-1.93-4.2-4.1-5.23l-39.43-19.44c-1.25-.57-2.4-.9-3.64-.8z" stroke="#000" stroke-opacity="0" stroke-width="3.83" fill="#326ce5"/><path d="M1139.64 670c-1.2.12-2.16.36-3.12.84l-41.64 20.52c-2.28 1.08-3.84 3-4.32 5.52l-10.32 46.2c-.48 2.16-.12 4.32 1.08 6.24.12.24.24.36.48.6l28.8 36.96c1.56 2.04 3.72 3.12 6.24 3.12h46.32c2.52 0 4.68-1.08 6.24-3.12l28.8-36.96c1.56-2.04 2.16-4.44 1.56-6.84l-10.32-46.2c-.48-2.52-2.04-4.44-4.32-5.52l-41.64-20.52c-1.32-.6-2.52-.96-3.84-.84zm0 3.24c1.32-.12 2.4.12 3.6.72l39.6 19.44c2.04 1.08 3.48 2.88 4.08 5.28l9.72 43.68c.48 2.4 0 4.56-1.44 6.48l-27.36 35.04c-1.44 1.92-3.48 3-5.88 3h-43.92c-2.4 0-4.44-1.08-5.88-3l-27.36-35.04c-.12-.12-.24-.36-.36-.6-1.2-1.8-1.56-3.72-1.08-5.88l9.72-43.68c.6-2.4 1.92-4.2 4.08-5.28l39.6-19.44c.96-.48 1.8-.72 2.88-.84z" stroke="#000" stroke-opacity="0" stroke-width="3.83" fill="#fff"/><path d="M1134.02 772.07c0 3.56-1.2 5.35-3.64 5.35-1.53 0-2.56-.6-3.08-1.8h-.05c.03.07.04.6.04 1.63v4h-1.66v-12.17c0-1.05-.02-1.74-.06-2.1h1.6l.02.3c.02.14.03.38.04.7l.03.66h.04c.3-.62.7-1.1 1.17-1.37.48-.3 1.1-.45 1.9-.45 1.23 0 2.14.42 2.74 1.27.62.82.92 2.15.92 3.97zm-1.73.03c0-1.42-.2-2.44-.56-3.05-.38-.62-.97-.92-1.8-.92-.64 0-1.15.15-1.52.44-.37.27-.65.72-.85 1.32-.2.58-.28 1.38-.28 2.33 0 1.35.2 2.33.6 2.97.43.63 1.1.95 2.04.95.82 0 1.4-.3 1.78-.92.38-.62.57-1.66.57-3.13zM1144.48 772.1c0 1.8-.4 3.13-1.15 4-.76.88-1.88 1.32-3.33 1.32-1.44 0-2.54-.46-3.28-1.36-.74-.92-1.1-2.24-1.1-3.96 0-3.53 1.47-5.3 4.44-5.3 1.52 0 2.63.45 3.34 1.3.72.87 1.08 2.2 1.08 4zm-1.73 0c0-1.4-.22-2.43-.62-3.07-.4-.64-1.1-.95-2.04-.95-.98 0-1.68.3-2.1.97-.44.65-.66 1.67-.66 3.05 0 1.35.2 2.37.64 3.05.42.68 1.1 1 2 1 1 0 1.7-.3 2.12-.97.43-.66.65-1.7.65-3.08zM1152.8 775.58c-.3.65-.7 1.12-1.22 1.4-.5.3-1.13.43-1.87.43-1.24 0-2.17-.43-2.76-1.3-.6-.86-.88-2.18-.88-3.94 0-3.57 1.22-5.35 3.65-5.35.76 0 1.38.16 1.9.44.5.28.9.74 1.2 1.35v-5.4h1.64v11.9c0 1.08.03 1.8.06 2.13h-1.58l-.06-.7c0-.37-.03-.68-.03-.95zm-5-3.48c0 1.43.18 2.46.54 3.07.37.63.96.94 1.8.94.93 0 1.6-.33 2.02-1 .43-.67.64-1.7.64-3.1 0-1.36-.2-2.36-.64-2.98-.42-.63-1.1-.96-2-.96-.84 0-1.44.33-1.82.97-.36.63-.55 1.65-.55 3.07z" stroke="#000" stroke-opacity="0" fill="#fff"/><path d="M1115.92 710.2L1140 703l24.1 7.2-24.1 7.2zM1115.92 712.95v26.4l22.43 12.83.12-32.32zM1164.08 712.95v26.4l-22.44 12.83-.1-32.32z" stroke="#000" stroke-opacity="0" stroke-width="3.77" fill="#fff"/><path d="M1139.66 803.17c-1.14.1-2.05.34-2.96.8l-39.44 19.43c-2.16 1.02-3.64 2.84-4.1 5.23l-9.77 43.76c-.47 2.04-.13 4.1 1 5.9.13.23.24.34.47.57l27.28 35c1.48 1.94 3.52 2.97 5.9 2.97h43.9c2.38 0 4.42-1.03 5.9-2.96l27.28-35c1.48-1.94 2.05-4.2 1.48-6.6l-9.77-43.65c-.45-2.4-1.93-4.2-4.1-5.23l-39.43-19.44c-1.25-.57-2.4-.9-3.64-.8z" stroke="#000" stroke-opacity="0" stroke-width="3.83" fill="#326ce5"/><path d="M1139.64 800c-1.2.12-2.16.36-3.12.84l-41.64 20.52c-2.28 1.08-3.84 3-4.32 5.52l-10.32 46.2c-.48 2.16-.12 4.32 1.08 6.24.12.24.24.36.48.6l28.8 36.96c1.56 2.04 3.72 3.12 6.24 3.12h46.32c2.52 0 4.68-1.08 6.24-3.12l28.8-36.96c1.56-2.04 2.16-4.44 1.56-6.84l-10.32-46.2c-.48-2.52-2.04-4.44-4.32-5.52l-41.64-20.52c-1.32-.6-2.52-.96-3.84-.84zm0 3.24c1.32-.12 2.4.12 3.6.72l39.6 19.44c2.04 1.08 3.48 2.88 4.08 5.28l9.72 43.68c.48 2.4 0 4.56-1.44 6.48l-27.36 35.04c-1.44 1.92-3.48 3-5.88 3h-43.92c-2.4 0-4.44-1.08-5.88-3l-27.36-35.04c-.12-.12-.24-.36-.36-.6-1.2-1.8-1.56-3.72-1.08-5.88l9.72-43.68c.6-2.4 1.92-4.2 4.08-5.28l39.6-19.44c.96-.48 1.8-.72 2.88-.84z" stroke="#000" stroke-opacity="0" stroke-width="3.83" fill="#fff"/><path d="M1134.02 902.07c0 3.56-1.2 5.35-3.64 5.35-1.53 0-2.56-.6-3.08-1.8h-.05c.03.07.04.6.04 1.63v4h-1.66v-12.17c0-1.05-.02-1.74-.06-2.1h1.6l.02.3c.02.14.03.38.04.7l.03.66h.04c.3-.62.7-1.1 1.17-1.37.48-.3 1.1-.45 1.9-.45 1.23 0 2.14.42 2.74 1.27.62.82.92 2.15.92 3.97zm-1.73.03c0-1.42-.2-2.44-.56-3.05-.38-.62-.97-.92-1.8-.92-.64 0-1.15.15-1.52.44-.37.27-.65.72-.85 1.32-.2.58-.28 1.38-.28 2.33 0 1.35.2 2.33.6 2.97.43.63 1.1.95 2.04.95.82 0 1.4-.3 1.78-.92.38-.62.57-1.66.57-3.13zM1144.48 902.1c0 1.8-.4 3.13-1.15 4-.76.88-1.88 1.32-3.33 1.32-1.44 0-2.54-.46-3.28-1.36-.74-.92-1.1-2.24-1.1-3.96 0-3.53 1.47-5.3 4.44-5.3 1.52 0 2.63.45 3.34 1.3.72.87 1.08 2.2 1.08 4zm-1.73 0c0-1.4-.22-2.43-.62-3.07-.4-.64-1.1-.95-2.04-.95-.98 0-1.68.3-2.1.97-.44.65-.66 1.67-.66 3.05 0 1.35.2 2.37.64 3.05.42.68 1.1 1 2 1 1 0 1.7-.3 2.12-.97.43-.66.65-1.7.65-3.08zM1152.8 905.58c-.3.65-.7 1.12-1.22 1.4-.5.3-1.13.43-1.87.43-1.24 0-2.17-.43-2.76-1.3-.6-.86-.88-2.18-.88-3.94 0-3.57 1.22-5.35 3.65-5.35.76 0 1.38.16 1.9.44.5.28.9.74 1.2 1.35v-5.4h1.64v11.9c0 1.08.03 1.8.06 2.13h-1.58l-.06-.7c0-.37-.03-.68-.03-.95zm-5-3.48c0 1.43.18 2.46.54 3.07.37.63.96.94 1.8.94.93 0 1.6-.33 2.02-1 .43-.67.64-1.7.64-3.1 0-1.36-.2-2.36-.64-2.98-.42-.63-1.1-.96-2-.96-.84 0-1.44.33-1.82.97-.36.63-.55 1.65-.55 3.07z" stroke="#000" stroke-opacity="0" fill="#fff"/><path d="M1115.92 840.2L1140 833l24.1 7.2-24.1 7.2zM1115.92 842.95v26.4l22.43 12.83.12-32.32zM1164.08 842.95v26.4l-22.44 12.83-.1-32.32z" stroke="#000" stroke-opacity="0" stroke-width="3.77" fill="#fff"/><path d="M1379.66 674.66c-1.14.12-2.05.34-2.96.8l-39.44 19.43c-2.16 1.02-3.64 2.84-4.1 5.22l-9.77 43.77c-.47 2.03-.13 4.08 1 5.9.13.22.24.34.47.57l27.28 35c1.48 1.94 3.52 2.96 5.9 2.96h43.9c2.38 0 4.42-1.02 5.9-2.95l27.28-35c1.48-1.95 2.05-4.22 1.48-6.6l-9.77-43.66c-.45-2.38-1.93-4.2-4.1-5.23l-39.43-19.44c-1.25-.57-2.4-.9-3.64-.8z" stroke="#000" stroke-opacity="0" stroke-width="3.83" fill="#326ce5"/><path d="M1379.64 671.5c-1.2.1-2.16.35-3.12.83l-41.64 20.52c-2.28 1.08-3.84 3-4.32 5.52l-10.32 46.2c-.48 2.16-.12 4.32 1.08 6.24.12.25.24.37.48.6l28.8 36.97c1.56 2.04 3.72 3.12 6.24 3.12h46.32c2.52 0 4.68-1.1 6.24-3.13l28.8-36.96c1.56-2.03 2.16-4.43 1.56-6.83l-10.32-46.2c-.48-2.52-2.04-4.44-4.32-5.52l-41.64-20.52c-1.32-.6-2.52-.96-3.84-.84zm0 3.23c1.32-.12 2.4.12 3.6.72l39.6 19.44c2.04 1.07 3.48 2.87 4.08 5.27l9.72 43.68c.48 2.4 0 4.56-1.44 6.48l-27.36 35.04c-1.44 1.92-3.48 3-5.88 3h-43.92c-2.4 0-4.44-1.08-5.88-3l-27.36-35.04c-.12-.12-.24-.36-.36-.6-1.2-1.8-1.56-3.72-1.08-5.88l9.72-43.68c.6-2.4 1.92-4.2 4.08-5.28l39.6-19.45c.96-.48 1.8-.72 2.88-.84z" stroke="#000" stroke-opacity="0" stroke-width="3.83" fill="#fff"/><path d="M1374.02 773.56c0 3.56-1.2 5.35-3.64 5.35-1.53 0-2.56-.58-3.08-1.78h-.05c.03.06.04.6.04 1.62v4h-1.66v-12.16c0-1.06-.02-1.75-.06-2.1h1.6l.02.28c.02.16.03.4.04.72l.03.65h.04c.3-.62.7-1.08 1.17-1.37.48-.3 1.1-.45 1.9-.45 1.23 0 2.14.43 2.74 1.28.62.84.92 2.16.92 3.98zm-1.73.03c0-1.42-.2-2.45-.56-3.05-.38-.62-.97-.92-1.8-.92-.64 0-1.15.14-1.52.43-.37.27-.65.72-.85 1.33-.2.58-.28 1.37-.28 2.32 0 1.36.2 2.34.6 2.97.43.63 1.1.94 2.04.94.82 0 1.4-.3 1.78-.92.38-.62.57-1.66.57-3.13zM1384.48 773.6c0 1.8-.4 3.13-1.15 4-.76.88-1.88 1.3-3.33 1.3-1.44 0-2.54-.45-3.28-1.35-.74-.92-1.1-2.23-1.1-3.95 0-3.53 1.47-5.3 4.44-5.3 1.52 0 2.63.44 3.34 1.3.72.86 1.08 2.2 1.08 4zm-1.73 0c0-1.4-.22-2.44-.62-3.08-.4-.63-1.1-.95-2.04-.95-.98 0-1.68.32-2.1.97-.44.65-.66 1.67-.66 3.06 0 1.34.2 2.36.64 3.04.42.68 1.1 1 2 1 1 0 1.7-.3 2.12-.97.43-.65.65-1.68.65-3.07zM1392.8 777.08c-.3.65-.7 1.12-1.22 1.4-.5.3-1.13.43-1.87.43-1.24 0-2.17-.43-2.76-1.3-.6-.87-.88-2.2-.88-3.95 0-3.57 1.22-5.34 3.65-5.34.76 0 1.38.15 1.9.43.5.3.9.74 1.2 1.35v-5.38h1.64v11.9c0 1.07.03 1.78.06 2.12h-1.58l-.06-.7c0-.36-.03-.67-.03-.94zm-5-3.5c0 1.45.18 2.47.54 3.08.37.63.96.94 1.8.94.93 0 1.6-.34 2.02-1 .43-.68.64-1.7.64-3.12 0-1.35-.2-2.35-.64-2.97-.42-.62-1.1-.94-2-.94-.84 0-1.44.32-1.82.96-.36.63-.55 1.65-.55 3.07z" stroke="#000" stroke-opacity="0" fill="#fff"/><path d="M1355.92 711.7l24.08-7.2 24.1 7.2-24.1 7.2zM1355.92 714.45v26.4l22.43 12.83.12-32.33zM1404.08 714.45v26.4l-22.44 12.83-.1-32.33z" stroke="#000" stroke-opacity="0" stroke-width="3.77" fill="#fff"/><path d="M1379.66 804.66c-1.14.12-2.05.34-2.96.8l-39.44 19.43c-2.16 1.02-3.64 2.84-4.1 5.22l-9.77 43.77c-.47 2.03-.13 4.08 1 5.9.13.22.24.34.47.57l27.28 35c1.48 1.94 3.52 2.96 5.9 2.96h43.9c2.38 0 4.42-1.02 5.9-2.95l27.28-35c1.48-1.95 2.05-4.22 1.48-6.6l-9.77-43.66c-.45-2.38-1.93-4.2-4.1-5.23l-39.43-19.44c-1.25-.57-2.4-.9-3.64-.8z" stroke="#000" stroke-opacity="0" stroke-width="3.83" fill="#326ce5"/><path d="M1379.64 801.5c-1.2.1-2.16.35-3.12.83l-41.64 20.52c-2.28 1.08-3.84 3-4.32 5.52l-10.32 46.2c-.48 2.16-.12 4.32 1.08 6.24.12.25.24.37.48.6l28.8 36.97c1.56 2.04 3.72 3.12 6.24 3.12h46.32c2.52 0 4.68-1.1 6.24-3.13l28.8-36.96c1.56-2.03 2.16-4.43 1.56-6.83l-10.32-46.2c-.48-2.52-2.04-4.44-4.32-5.52l-41.64-20.52c-1.32-.6-2.52-.96-3.84-.84zm0 3.23c1.32-.12 2.4.12 3.6.72l39.6 19.44c2.04 1.07 3.48 2.87 4.08 5.27l9.72 43.68c.48 2.4 0 4.56-1.44 6.48l-27.36 35.04c-1.44 1.92-3.48 3-5.88 3h-43.92c-2.4 0-4.44-1.08-5.88-3l-27.36-35.04c-.12-.12-.24-.36-.36-.6-1.2-1.8-1.56-3.72-1.08-5.88l9.72-43.68c.6-2.4 1.92-4.2 4.08-5.28l39.6-19.45c.96-.48 1.8-.72 2.88-.84z" stroke="#000" stroke-opacity="0" stroke-width="3.83" fill="#fff"/><path d="M1374.02 903.56c0 3.56-1.2 5.35-3.64 5.35-1.53 0-2.56-.58-3.08-1.78h-.05c.03.06.04.6.04 1.62v4h-1.66v-12.16c0-1.06-.02-1.75-.06-2.1h1.6l.02.28c.02.16.03.4.04.72l.03.65h.04c.3-.62.7-1.08 1.17-1.37.48-.3 1.1-.45 1.9-.45 1.23 0 2.14.43 2.74 1.28.62.84.92 2.16.92 3.98zm-1.73.03c0-1.42-.2-2.45-.56-3.05-.38-.62-.97-.92-1.8-.92-.64 0-1.15.14-1.52.43-.37.27-.65.72-.85 1.33-.2.58-.28 1.37-.28 2.32 0 1.36.2 2.34.6 2.97.43.63 1.1.94 2.04.94.82 0 1.4-.3 1.78-.92.38-.62.57-1.66.57-3.13zM1384.48 903.6c0 1.8-.4 3.13-1.15 4-.76.88-1.88 1.3-3.33 1.3-1.44 0-2.54-.45-3.28-1.35-.74-.92-1.1-2.23-1.1-3.95 0-3.53 1.47-5.3 4.44-5.3 1.52 0 2.63.44 3.34 1.3.72.86 1.08 2.2 1.08 4zm-1.73 0c0-1.4-.22-2.44-.62-3.08-.4-.63-1.1-.95-2.04-.95-.98 0-1.68.32-2.1.97-.44.65-.66 1.67-.66 3.06 0 1.34.2 2.36.64 3.04.42.68 1.1 1 2 1 1 0 1.7-.3 2.12-.97.43-.65.65-1.68.65-3.07zM1392.8 907.08c-.3.65-.7 1.12-1.22 1.4-.5.3-1.13.43-1.87.43-1.24 0-2.17-.43-2.76-1.3-.6-.87-.88-2.2-.88-3.95 0-3.57 1.22-5.34 3.65-5.34.76 0 1.38.15 1.9.43.5.3.9.74 1.2 1.35v-5.38h1.64v11.9c0 1.07.03 1.78.06 2.12h-1.58l-.06-.7c0-.36-.03-.67-.03-.94zm-5-3.5c0 1.45.18 2.47.54 3.08.37.63.96.94 1.8.94.93 0 1.6-.34 2.02-1 .43-.68.64-1.7.64-3.12 0-1.35-.2-2.35-.64-2.97-.42-.62-1.1-.94-2-.94-.84 0-1.44.32-1.82.96-.36.63-.55 1.65-.55 3.07z" stroke="#000" stroke-opacity="0" fill="#fff"/><path d="M1355.92 841.7l24.08-7.2 24.1 7.2-24.1 7.2zM1355.92 844.45v26.4l22.43 12.83.12-32.33zM1404.08 844.45v26.4l-22.44 12.83-.1-32.33z" stroke="#000" stroke-opacity="0" stroke-width="3.77" fill="#fff"/><path d="M1619.66 673.17c-1.14.1-2.05.34-2.96.8l-39.44 19.43c-2.16 1.02-3.64 2.84-4.1 5.23l-9.77 43.76c-.47 2.04-.13 4.1 1 5.9.13.23.24.34.47.57l27.28 35c1.48 1.94 3.52 2.97 5.9 2.97h43.9c2.38 0 4.42-1.03 5.9-2.96l27.28-35c1.48-1.94 2.05-4.2 1.48-6.6l-9.77-43.65c-.45-2.4-1.93-4.2-4.1-5.23l-39.43-19.44c-1.25-.57-2.4-.9-3.64-.8z" stroke="#000" stroke-opacity="0" stroke-width="3.83" fill="#326ce5"/><path d="M1619.64 670c-1.2.12-2.16.36-3.12.84l-41.64 20.52c-2.28 1.08-3.84 3-4.32 5.52l-10.32 46.2c-.48 2.16-.12 4.32 1.08 6.24.12.24.24.36.48.6l28.8 36.96c1.56 2.04 3.72 3.12 6.24 3.12h46.32c2.52 0 4.68-1.08 6.24-3.12l28.8-36.96c1.56-2.04 2.16-4.44 1.56-6.84l-10.32-46.2c-.48-2.52-2.04-4.44-4.32-5.52l-41.64-20.52c-1.32-.6-2.52-.96-3.84-.84zm0 3.24c1.32-.12 2.4.12 3.6.72l39.6 19.44c2.04 1.08 3.48 2.88 4.08 5.28l9.72 43.68c.48 2.4 0 4.56-1.44 6.48l-27.36 35.04c-1.44 1.92-3.48 3-5.88 3h-43.92c-2.4 0-4.44-1.08-5.88-3l-27.36-35.04c-.12-.12-.24-.36-.36-.6-1.2-1.8-1.56-3.72-1.08-5.88l9.72-43.68c.6-2.4 1.92-4.2 4.08-5.28l39.6-19.44c.96-.48 1.8-.72 2.88-.84z" stroke="#000" stroke-opacity="0" stroke-width="3.83" fill="#fff"/><path d="M1614.02 772.07c0 3.56-1.2 5.35-3.64 5.35-1.53 0-2.56-.6-3.08-1.8h-.05c.03.07.04.6.04 1.63v4h-1.66v-12.17c0-1.05-.02-1.74-.06-2.1h1.6l.02.3c.02.14.03.38.04.7l.03.66h.04c.3-.62.7-1.1 1.17-1.37.48-.3 1.1-.45 1.9-.45 1.23 0 2.14.42 2.74 1.27.62.82.92 2.15.92 3.97zm-1.73.03c0-1.42-.2-2.44-.56-3.05-.38-.62-.97-.92-1.8-.92-.64 0-1.15.15-1.52.44-.37.27-.65.72-.85 1.32-.2.58-.28 1.38-.28 2.33 0 1.35.2 2.33.6 2.97.43.63 1.1.95 2.04.95.82 0 1.4-.3 1.78-.92.38-.62.57-1.66.57-3.13zM1624.48 772.1c0 1.8-.4 3.13-1.15 4-.76.88-1.88 1.32-3.33 1.32-1.44 0-2.54-.46-3.28-1.36-.74-.92-1.1-2.24-1.1-3.96 0-3.53 1.47-5.3 4.44-5.3 1.52 0 2.63.45 3.34 1.3.72.87 1.08 2.2 1.08 4zm-1.73 0c0-1.4-.22-2.43-.62-3.07-.4-.64-1.1-.95-2.04-.95-.98 0-1.68.3-2.1.97-.44.65-.66 1.67-.66 3.05 0 1.35.2 2.37.64 3.05.42.68 1.1 1 2 1 1 0 1.7-.3 2.12-.97.43-.66.65-1.7.65-3.08zM1632.8 775.58c-.3.65-.7 1.12-1.22 1.4-.5.3-1.13.43-1.87.43-1.24 0-2.17-.43-2.76-1.3-.6-.86-.88-2.18-.88-3.94 0-3.57 1.22-5.35 3.65-5.35.76 0 1.38.16 1.9.44.5.28.9.74 1.2 1.35v-5.4h1.64v11.9c0 1.08.03 1.8.06 2.13h-1.58l-.06-.7c0-.37-.03-.68-.03-.95zm-5-3.48c0 1.43.18 2.46.54 3.07.37.63.96.94 1.8.94.93 0 1.6-.33 2.02-1 .43-.67.64-1.7.64-3.1 0-1.36-.2-2.36-.64-2.98-.42-.63-1.1-.96-2-.96-.84 0-1.44.33-1.82.97-.36.63-.55 1.65-.55 3.07z" stroke="#000" stroke-opacity="0" fill="#fff"/><path d="M1595.92 710.2L1620 703l24.1 7.2-24.1 7.2zM1595.92 712.95v26.4l22.43 12.83.12-32.32zM1644.08 712.95v26.4l-22.44 12.83-.1-32.32z" stroke="#000" stroke-opacity="0" stroke-width="3.77" fill="#fff"/><path d="M1619.66 803.17c-1.14.1-2.05.34-2.96.8l-39.44 19.43c-2.16 1.02-3.64 2.84-4.1 5.23l-9.77 43.76c-.47 2.04-.13 4.1 1 5.9.13.23.24.34.47.57l27.28 35c1.48 1.94 3.52 2.97 5.9 2.97h43.9c2.38 0 4.42-1.03 5.9-2.96l27.28-35c1.48-1.94 2.05-4.2 1.48-6.6l-9.77-43.65c-.45-2.4-1.93-4.2-4.1-5.23l-39.43-19.44c-1.25-.57-2.4-.9-3.64-.8z" stroke="#000" stroke-opacity="0" stroke-width="3.83" fill="#326ce5"/><path d="M1619.64 800c-1.2.12-2.16.36-3.12.84l-41.64 20.52c-2.28 1.08-3.84 3-4.32 5.52l-10.32 46.2c-.48 2.16-.12 4.32 1.08 6.24.12.24.24.36.48.6l28.8 36.96c1.56 2.04 3.72 3.12 6.24 3.12h46.32c2.52 0 4.68-1.08 6.24-3.12l28.8-36.96c1.56-2.04 2.16-4.44 1.56-6.84l-10.32-46.2c-.48-2.52-2.04-4.44-4.32-5.52l-41.64-20.52c-1.32-.6-2.52-.96-3.84-.84zm0 3.24c1.32-.12 2.4.12 3.6.72l39.6 19.44c2.04 1.08 3.48 2.88 4.08 5.28l9.72 43.68c.48 2.4 0 4.56-1.44 6.48l-27.36 35.04c-1.44 1.92-3.48 3-5.88 3h-43.92c-2.4 0-4.44-1.08-5.88-3l-27.36-35.04c-.12-.12-.24-.36-.36-.6-1.2-1.8-1.56-3.72-1.08-5.88l9.72-43.68c.6-2.4 1.92-4.2 4.08-5.28l39.6-19.44c.96-.48 1.8-.72 2.88-.84z" stroke="#000" stroke-opacity="0" stroke-width="3.83" fill="#fff"/><path d="M1614.02 902.07c0 3.56-1.2 5.35-3.64 5.35-1.53 0-2.56-.6-3.08-1.8h-.05c.03.07.04.6.04 1.63v4h-1.66v-12.17c0-1.05-.02-1.74-.06-2.1h1.6l.02.3c.02.14.03.38.04.7l.03.66h.04c.3-.62.7-1.1 1.17-1.37.48-.3 1.1-.45 1.9-.45 1.23 0 2.14.42 2.74 1.27.62.82.92 2.15.92 3.97zm-1.73.03c0-1.42-.2-2.44-.56-3.05-.38-.62-.97-.92-1.8-.92-.64 0-1.15.15-1.52.44-.37.27-.65.72-.85 1.32-.2.58-.28 1.38-.28 2.33 0 1.35.2 2.33.6 2.97.43.63 1.1.95 2.04.95.82 0 1.4-.3 1.78-.92.38-.62.57-1.66.57-3.13zM1624.48 902.1c0 1.8-.4 3.13-1.15 4-.76.88-1.88 1.32-3.33 1.32-1.44 0-2.54-.46-3.28-1.36-.74-.92-1.1-2.24-1.1-3.96 0-3.53 1.47-5.3 4.44-5.3 1.52 0 2.63.45 3.34 1.3.72.87 1.08 2.2 1.08 4zm-1.73 0c0-1.4-.22-2.43-.62-3.07-.4-.64-1.1-.95-2.04-.95-.98 0-1.68.3-2.1.97-.44.65-.66 1.67-.66 3.05 0 1.35.2 2.37.64 3.05.42.68 1.1 1 2 1 1 0 1.7-.3 2.12-.97.43-.66.65-1.7.65-3.08zM1632.8 905.58c-.3.65-.7 1.12-1.22 1.4-.5.3-1.13.43-1.87.43-1.24 0-2.17-.43-2.76-1.3-.6-.86-.88-2.18-.88-3.94 0-3.57 1.22-5.35 3.65-5.35.76 0 1.38.16 1.9.44.5.28.9.74 1.2 1.35v-5.4h1.64v11.9c0 1.08.03 1.8.06 2.13h-1.58l-.06-.7c0-.37-.03-.68-.03-.95zm-5-3.48c0 1.43.18 2.46.54 3.07.37.63.96.94 1.8.94.93 0 1.6-.33 2.02-1 .43-.67.64-1.7.64-3.1 0-1.36-.2-2.36-.64-2.98-.42-.63-1.1-.96-2-.96-.84 0-1.44.33-1.82.97-.36.63-.55 1.65-.55 3.07z" stroke="#000" stroke-opacity="0" fill="#fff"/><path d="M1595.92 840.2L1620 833l24.1 7.2-24.1 7.2zM1595.92 842.95v26.4l22.43 12.83.12-32.32zM1644.08 842.95v26.4l-22.44 12.83-.1-32.32z" stroke="#000" stroke-opacity="0" stroke-width="3.77" fill="#fff"/><defs><radialGradient gradientUnits="userSpaceOnUse" id="a" fx="-162324" fy="273508.6" cx="164604" cy="-272048.6" r="15148"><stop offset="0%" stop-color="#fff" stop-opacity=".1"/><stop offset="100%" stop-color="#fff" stop-opacity="0"/></radialGradient><path fill="#2e2f27" d="M651-255l416-1201h210L737 0H567L28-1456h209" id="t"/><path fill="#2e2f27" d="M341 0H156v-1082h185V0zm-91-1264c-68 0-108-42-109-105 0-62 41-107 109-107s110 44 110 107-42 105-110 105" id="u"/><path fill="#2e2f27" d="M663-916c-163-27-288 18-338 148V0H140v-1082h180l3 125c61-97 147-145 258-145 36 0 63 5 82 14v172" id="v"/><path fill="#2e2f27" d="M456 20C285 20 205-92 206-268v-671H9v-143h197v-262h185v262h202v143H391v671c-9 125 92 149 207 118V0c-49 13-96 20-142 20" id="w"/><path fill="#2e2f27" d="M491 20c-241-1-355-148-355-398v-704h185v699c0 164 67 246 200 246 141 0 235-53 282-158v-787h185V0H812l-4-107C736-22 630 20 491 20" id="x"/><path fill="#2e2f27" d="M561-1102c238-4 403 126 403 351v498c0 99 13 178 38 237V0H808c-11-21-19-59-26-114C696-25 593 20 474 20c-199 0-368-130-365-320 4-251 214-359 490-356h180v-85c-1-135-86-212-229-212-115 0-232 67-233 171H131c20-205 206-316 430-320zM294-326c0 117 90 185 207 185 122 0 239-75 278-162v-222H634c-227 0-340 66-340 199" id="y"/><path fill="#2e2f27" d="M341 0H156v-1536h185V0" id="z"/><g id="b"><use transform="matrix(0.0087890625,0,0,0.0087890625,0,0)" xlink:href="#t"/><use transform="matrix(0.0087890625,0,0,0.0087890625,11.4521484375,0)" xlink:href="#u"/><use transform="matrix(0.0087890625,0,0,0.0087890625,15.8203125,0)" xlink:href="#v"/><use transform="matrix(0.0087890625,0,0,0.0087890625,22.3505859375,0)" xlink:href="#w"/><use transform="matrix(0.0087890625,0,0,0.0087890625,28.23046875,0)" xlink:href="#x"/><use transform="matrix(0.0087890625,0,0,0.0087890625,38.1533203125,0)" xlink:href="#y"/><use transform="matrix(0.0087890625,0,0,0.0087890625,47.9443359375,0)" xlink:href="#z"/></g><path fill="#2e2f27" d="M1216-1011c-1 297-202 441-512 441H361V0H169v-1456h537c297-6 510 164 510 445zm-192 2c1-178-126-288-307-289H361v571h345c196 1 318-92 318-282" id="A"/><path fill="#2e2f27" d="M497-251l268-831h189L566 0H425L33-1082h189" id="B"/><path fill="#2e2f27" d="M599-131c141 0 220-65 285-146l113 88C906-50 770 20 589 20 281 21 93-214 93-545c0-223 93-397 233-485 74-48 154-72 240-72 300 2 449 218 445 537v77H278c0 197 129 357 321 357zm227-509c-3-180-88-310-260-310-170 0-264 140-282 310h542" id="C"/><g id="c"><use transform="matrix(0.0087890625,0,0,0.0087890625,0,0)" xlink:href="#A"/><use transform="matrix(0.0087890625,0,0,0.0087890625,11.35546875,0)" xlink:href="#v"/><use transform="matrix(0.0087890625,0,0,0.0087890625,17.4462890625,0)" xlink:href="#u"/><use transform="matrix(0.0087890625,0,0,0.0087890625,21.814453125,0)" xlink:href="#B"/><use transform="matrix(0.0087890625,0,0,0.0087890625,30.4013671875,0)" xlink:href="#y"/><use transform="matrix(0.0087890625,0,0,0.0087890625,40.1923828125,0)" xlink:href="#w"/><use transform="matrix(0.0087890625,0,0,0.0087890625,46.072265625,0)" xlink:href="#C"/></g><path fill="#2e2f27" d="M688-137c238 0 323-102 359-325h193c-32 297-228 482-552 482-361 0-569-299-569-680 0-197 8-360 73-497 88-186 257-317 513-319 316-2 509 195 535 488h-193c-31-212-118-330-342-330-272 0-397 224-393 523v141c-3 282 115 517 376 517" id="D"/><path fill="#2e2f27" d="M584 20C278 26 81-227 91-551c10-320 175-545 491-551 308-5 503 247 494 573-9 322-175 543-492 549zm-2-970c-208 0-305 185-305 421 0 216 106 398 307 398 211 0 307-186 307-420 0-214-109-399-309-399" id="E"/><path fill="#2e2f27" d="M520 20C244 20 95-247 95-550c0-298 151-550 427-552 127 0 227 43 301 130v-564h185V0H838l-9-116C755-25 652 20 520 20zm48-965c-210 0-288 177-288 416 0 218 87 392 286 392 117 0 203-53 257-158v-497c-55-102-140-153-255-153" id="F"/><g id="d"><use transform="matrix(0.0087890625,0,0,0.0087890625,0,0)" xlink:href="#D"/><use transform="matrix(0.0087890625,0,0,0.0087890625,11.7158203125,0)" xlink:href="#z"/><use transform="matrix(0.0087890625,0,0,0.0087890625,16.083984375,0)" xlink:href="#E"/><use transform="matrix(0.0087890625,0,0,0.0087890625,26.349609375,0)" xlink:href="#x"/><use transform="matrix(0.0087890625,0,0,0.0087890625,36.2724609375,0)" xlink:href="#F"/></g><path fill="#2e2f27" d="M1161-1018c0 201-122 330-278 388l342 618V0h-206L703-589H361V0H168v-1456h482c310-2 511 139 511 438zm-193 0c0-187-120-280-313-280H361v552h295c179 3 313-101 312-272" id="G"/><path fill="#2e2f27" d="M521 20C240 20 96-239 96-550c0-303 147-552 427-552 132 0 235 47 309 140l9-120h169V-26c4 277-183 454-459 452-165-1-334-81-400-187l96-111c79 98 176 147 291 147 180 1 288-109 286-290v-93C750-23 649 20 521 20zm48-965c-209 0-287 178-287 416 0 217 86 392 285 392 117 0 202-53 257-159v-494c-57-103-142-155-255-155" id="H"/><path fill="#2e2f27" d="M589-945c-131 0-219 81-264 174V0H140v-1082h175l6 136c83-104 191-156 324-156 229 0 346 129 346 387V0H806v-716c-2-153-65-229-217-229" id="I"/><path fill="#2e2f27" d="M248 11c-71 0-114-43-114-108 0-67 42-112 114-112s116 45 116 112c-1 65-45 108-116 108zm1-883c-71 0-114-43-114-108 0-67 42-112 114-112s116 45 116 112c-1 65-45 108-116 108" id="J"/><g id="e"><use transform="matrix(0.0087890625,0,0,0.0087890625,0,0)" xlink:href="#G"/><use transform="matrix(0.0087890625,0,0,0.0087890625,11.0830078125,0)" xlink:href="#C"/><use transform="matrix(0.0087890625,0,0,0.0087890625,20.619140625,0)" xlink:href="#H"/><use transform="matrix(0.0087890625,0,0,0.0087890625,30.7177734375,0)" xlink:href="#u"/><use transform="matrix(0.0087890625,0,0,0.0087890625,35.0859375,0)" xlink:href="#E"/><use transform="matrix(0.0087890625,0,0,0.0087890625,45.3515625,0)" xlink:href="#I"/><use transform="matrix(0.0087890625,0,0,0.0087890625,55.283203125,0)" xlink:href="#J"/></g><path fill="#2e2f27" d="M538-131c121 0 232-49 232-156 0-50-20-88-56-117-73-60-334-92-420-143-92-55-162-110-162-238 0-190 192-317 400-317 223 0 414 129 413 338H759c0-108-110-186-227-186-119 0-215 53-215 159 0 45 18 78 53 101 76 52 331 90 416 139 98 57 169 115 169 251C955-92 760 20 538 20c-176 0-314-68-386-174-38-55-57-115-57-179h185c6 129 116 202 258 202" id="K"/><path fill="#2e2f27" d="M525-543H37v-151h488v151" id="L"/><path fill="#2e2f27" d="M277-555c0 244 77 420 297 424 127 2 249-93 255-210h175C980-127 805 20 574 20 258 20 81-222 92-562c11-319 164-533 481-540 237-5 426 165 431 392H829c-7-133-115-242-256-240-209 4-296 166-296 395" id="M"/><path fill="#2e2f27" d="M729 0H543v-1233l-373 137v-168l530-199h29V0" id="N"/><g id="f"><use transform="matrix(0.0087890625,0,0,0.0087890625,0,0)" xlink:href="#x"/><use transform="matrix(0.0087890625,0,0,0.0087890625,9.9228515625,0)" xlink:href="#K"/><use transform="matrix(0.0087890625,0,0,0.0087890625,19.2041015625,0)" xlink:href="#L"/><use transform="matrix(0.0087890625,0,0,0.0087890625,24.169921875,0)" xlink:href="#M"/><use transform="matrix(0.0087890625,0,0,0.0087890625,33.591796875,0)" xlink:href="#C"/><use transform="matrix(0.0087890625,0,0,0.0087890625,43.1279296875,0)" xlink:href="#I"/><use transform="matrix(0.0087890625,0,0,0.0087890625,53.0595703125,0)" xlink:href="#w"/><use transform="matrix(0.0087890625,0,0,0.0087890625,58.939453125,0)" xlink:href="#v"/><use transform="matrix(0.0087890625,0,0,0.0087890625,64.6787109375,0)" xlink:href="#y"/><use transform="matrix(0.0087890625,0,0,0.0087890625,74.4697265625,0)" xlink:href="#z"/><use transform="matrix(0.0087890625,0,0,0.0087890625,78.837890625,0)" xlink:href="#N"/></g><path fill="#2e2f27" d="M313-157h833V0H86v-144l798-1154H99v-158h1015v141" id="O"/><g id="g"><use transform="matrix(0.0087890625,0,0,0.0087890625,0,0)" xlink:href="#O"/><use transform="matrix(0.0087890625,0,0,0.0087890625,10.5908203125,0)" xlink:href="#E"/><use transform="matrix(0.0087890625,0,0,0.0087890625,20.8564453125,0)" xlink:href="#I"/><use transform="matrix(0.0087890625,0,0,0.0087890625,30.7880859375,0)" xlink:href="#C"/><use transform="matrix(0.0087890625,0,0,0.0087890625,40.32421875,0)" xlink:href="#J"/></g><g id="h"><use transform="matrix(0.0087890625,0,0,0.0087890625,0,0)" xlink:href="#x"/><use transform="matrix(0.0087890625,0,0,0.0087890625,9.9228515625,0)" xlink:href="#K"/><use transform="matrix(0.0087890625,0,0,0.0087890625,19.2041015625,0)" xlink:href="#L"/><use transform="matrix(0.0087890625,0,0,0.0087890625,24.169921875,0)" xlink:href="#M"/><use transform="matrix(0.0087890625,0,0,0.0087890625,33.591796875,0)" xlink:href="#C"/><use transform="matrix(0.0087890625,0,0,0.0087890625,43.1279296875,0)" xlink:href="#I"/><use transform="matrix(0.0087890625,0,0,0.0087890625,53.0595703125,0)" xlink:href="#w"/><use transform="matrix(0.0087890625,0,0,0.0087890625,58.939453125,0)" xlink:href="#v"/><use transform="matrix(0.0087890625,0,0,0.0087890625,64.6787109375,0)" xlink:href="#y"/><use transform="matrix(0.0087890625,0,0,0.0087890625,74.4697265625,0)" xlink:href="#z"/><use transform="matrix(0.0087890625,0,0,0.0087890625,78.837890625,0)" xlink:href="#N"/><use transform="matrix(0.0087890625,0,0,0.0087890625,88.9453125,0)" xlink:href="#L"/><use transform="matrix(0.0087890625,0,0,0.0087890625,93.9111328125,0)" xlink:href="#y"/></g><path fill="#2e2f27" d="M539-677L361-492V0H169v-1456h192v720l647-720h232L667-813 1285 0h-230" id="P"/><path fill="#2e2f27" d="M634-1102c292 0 422 254 422 573 0 298-143 547-420 549-137 0-242-48-317-145L310 0H140v-1536h185v573c75-93 178-139 309-139zm-44 965c207 0 281-175 281-413 0-224-79-395-283-395-122 0-210 57-263 170v468c57 113 145 170 265 170" id="Q"/><g id="i"><use transform="matrix(0.0087890625,0,0,0.0087890625,0,0)" xlink:href="#P"/><use transform="matrix(0.0087890625,0,0,0.0087890625,11.0830078125,0)" xlink:href="#x"/><use transform="matrix(0.0087890625,0,0,0.0087890625,21.005859375,0)" xlink:href="#Q"/><use transform="matrix(0.0087890625,0,0,0.0087890625,31.1044921875,0)" xlink:href="#C"/><use transform="matrix(0.0087890625,0,0,0.0087890625,40.640625,0)" xlink:href="#v"/><use transform="matrix(0.0087890625,0,0,0.0087890625,46.7314453125,0)" xlink:href="#I"/><use transform="matrix(0.0087890625,0,0,0.0087890625,56.6630859375,0)" xlink:href="#C"/><use transform="matrix(0.0087890625,0,0,0.0087890625,66.19921875,0)" xlink:href="#w"/><use transform="matrix(0.0087890625,0,0,0.0087890625,72.0791015625,0)" xlink:href="#C"/><use transform="matrix(0.0087890625,0,0,0.0087890625,81.615234375,0)" xlink:href="#K"/></g><g id="j"><use transform="matrix(0.0087890625,0,0,0.0087890625,0,0)" xlink:href="#D"/><use transform="matrix(0.0087890625,0,0,0.0087890625,11.7158203125,0)" xlink:href="#z"/><use transform="matrix(0.0087890625,0,0,0.0087890625,16.083984375,0)" xlink:href="#x"/><use transform="matrix(0.0087890625,0,0,0.0087890625,26.0068359375,0)" xlink:href="#K"/><use transform="matrix(0.0087890625,0,0,0.0087890625,35.2880859375,0)" xlink:href="#w"/><use transform="matrix(0.0087890625,0,0,0.0087890625,41.16796875,0)" xlink:href="#C"/><use transform="matrix(0.0087890625,0,0,0.0087890625,50.7041015625,0)" xlink:href="#v"/></g><path fill="#2e2f27" d="M632-1102c291 0 422 251 422 573 0 297-141 548-419 549-131 0-235-42-310-125v521H140v-1498h169l9 120c75-93 180-140 314-140zm-53 971c207 0 290-180 290-419 0-218-92-395-292-395-112 0-196 50-252 149v517c55 99 140 148 254 148" id="R"/><path fill="#2e2f27" d="M704-1390c-164-38-297 28-288 194v114h231v143H416V0H231v-939H60v-143h171v-111c-12-274 208-416 483-347" id="S"/><g id="k"><use transform="matrix(0.0087890625,0,0,0.0087890625,0,0)" xlink:href="#B"/><use transform="matrix(0.0087890625,0,0,0.0087890625,8.6044921875,0)" xlink:href="#C"/><use transform="matrix(0.0087890625,0,0,0.0087890625,18.140625,0)" xlink:href="#K"/><use transform="matrix(0.0087890625,0,0,0.0087890625,27.421875,0)" xlink:href="#R"/><use transform="matrix(0.0087890625,0,0,0.0087890625,37.5205078125,0)" xlink:href="#y"/><use transform="matrix(0.0087890625,0,0,0.0087890625,47.3115234375,0)" xlink:href="#L"/><use transform="matrix(0.0087890625,0,0,0.0087890625,52.27734375,0)" xlink:href="#M"/><use transform="matrix(0.0087890625,0,0,0.0087890625,61.69921875,0)" xlink:href="#E"/><use transform="matrix(0.0087890625,0,0,0.0087890625,71.96484375,0)" xlink:href="#I"/><use transform="matrix(0.0087890625,0,0,0.0087890625,81.896484375,0)" xlink:href="#S"/><use transform="matrix(0.0087890625,0,0,0.0087890625,88.1455078125,0)" xlink:href="#u"/><use transform="matrix(0.0087890625,0,0,0.0087890625,92.513671875,0)" xlink:href="#H"/><use transform="matrix(0.0087890625,0,0,0.0087890625,102.6123046875,0)" xlink:href="#K"/><use transform="matrix(0.0087890625,0,0,0.0087890625,111.8935546875,0)" xlink:href="#C"/><use transform="matrix(0.0087890625,0,0,0.0087890625,121.4296875,0)" xlink:href="#v"/><use transform="matrix(0.0087890625,0,0,0.0087890625,127.6787109375,0)" xlink:href="#B"/><use transform="matrix(0.0087890625,0,0,0.0087890625,136.283203125,0)" xlink:href="#C"/><use transform="matrix(0.0087890625,0,0,0.0087890625,145.8193359375,0)" xlink:href="#v"/></g><path fill="#2e2f27" d="M631-137c179 0 314-70 314-231 0-71-25-127-75-166s-141-77-272-115c-165-47-285-106-360-175s-112-154-112-255c0-245 231-397 495-397 206 0 369 89 449 218 43 68 65 142 65 223H942c0-184-129-283-321-283-172 0-299 76-301 236 0 59 26 109 76 150s135 78 256 113c205 59 345 116 436 256 35 53 50 119 50 193-2 256-231 398-507 390C333 12 90-129 80-422h193c0 187 160 285 358 285" id="T"/><g id="l"><use transform="matrix(0.0087890625,0,0,0.0087890625,0,0)" xlink:href="#T"/><use transform="matrix(0.0087890625,0,0,0.0087890625,10.6787109375,0)" xlink:href="#w"/><use transform="matrix(0.0087890625,0,0,0.0087890625,16.55859375,0)" xlink:href="#y"/><use transform="matrix(0.0087890625,0,0,0.0087890625,26.349609375,0)" xlink:href="#w"/><use transform="matrix(0.0087890625,0,0,0.0087890625,32.2294921875,0)" xlink:href="#C"/><use transform="matrix(0.0087890625,0,0,0.0087890625,41.765625,0)" xlink:href="#S"/><use transform="matrix(0.0087890625,0,0,0.0087890625,48.0146484375,0)" xlink:href="#x"/><use transform="matrix(0.0087890625,0,0,0.0087890625,57.9375,0)" xlink:href="#z"/><use transform="matrix(0.0087890625,0,0,0.0087890625,62.3056640625,0)" xlink:href="#T"/><use transform="matrix(0.0087890625,0,0,0.0087890625,72.984375,0)" xlink:href="#C"/><use transform="matrix(0.0087890625,0,0,0.0087890625,82.5205078125,0)" xlink:href="#w"/></g><path fill="#2e2f27" d="M1240-945c-141 0-250 95-250 227V0H804v-709c0-157-77-236-231-236-121 0-204 52-249 155V0H139v-1082h175l5 120c79-93 186-140 321-140 151 0 254 58 309 174 69-98 181-174 345-174 237 0 362 126 362 377V0h-185v-714c-2-159-67-231-231-231" id="U"/><g id="m"><use transform="matrix(0.0087890625,0,0,0.0087890625,0,0)" xlink:href="#B"/><use transform="matrix(0.0087890625,0,0,0.0087890625,8.6044921875,0)" xlink:href="#C"/><use transform="matrix(0.0087890625,0,0,0.0087890625,18.140625,0)" xlink:href="#K"/><use transform="matrix(0.0087890625,0,0,0.0087890625,27.421875,0)" xlink:href="#R"/><use transform="matrix(0.0087890625,0,0,0.0087890625,37.5205078125,0)" xlink:href="#y"/><use transform="matrix(0.0087890625,0,0,0.0087890625,47.3115234375,0)" xlink:href="#L"/><use transform="matrix(0.0087890625,0,0,0.0087890625,52.27734375,0)" xlink:href="#y"/><use transform="matrix(0.0087890625,0,0,0.0087890625,62.068359375,0)" xlink:href="#F"/><use transform="matrix(0.0087890625,0,0,0.0087890625,72.2197265625,0)" xlink:href="#U"/><use transform="matrix(0.0087890625,0,0,0.0087890625,87.99609375,0)" xlink:href="#u"/><use transform="matrix(0.0087890625,0,0,0.0087890625,92.3642578125,0)" xlink:href="#I"/></g><g id="n"><use transform="matrix(0.0087890625,0,0,0.0087890625,0,0)" xlink:href="#B"/><use transform="matrix(0.0087890625,0,0,0.0087890625,8.6044921875,0)" xlink:href="#C"/><use transform="matrix(0.0087890625,0,0,0.0087890625,18.140625,0)" xlink:href="#K"/><use transform="matrix(0.0087890625,0,0,0.0087890625,27.421875,0)" xlink:href="#R"/><use transform="matrix(0.0087890625,0,0,0.0087890625,37.5205078125,0)" xlink:href="#y"/><use transform="matrix(0.0087890625,0,0,0.0087890625,47.3115234375,0)" xlink:href="#L"/><use transform="matrix(0.0087890625,0,0,0.0087890625,52.27734375,0)" xlink:href="#S"/><use transform="matrix(0.0087890625,0,0,0.0087890625,58.3154296875,0)" xlink:href="#C"/><use transform="matrix(0.0087890625,0,0,0.0087890625,67.8515625,0)" xlink:href="#C"/><use transform="matrix(0.0087890625,0,0,0.0087890625,77.3876953125,0)" xlink:href="#F"/><use transform="matrix(0.0087890625,0,0,0.0087890625,87.5390625,0)" xlink:href="#L"/><use transform="matrix(0.0087890625,0,0,0.0087890625,92.5048828125,0)" xlink:href="#M"/><use transform="matrix(0.0087890625,0,0,0.0087890625,101.9267578125,0)" xlink:href="#E"/><use transform="matrix(0.0087890625,0,0,0.0087890625,112.1923828125,0)" xlink:href="#I"/><use transform="matrix(0.0087890625,0,0,0.0087890625,122.1240234375,0)" xlink:href="#w"/><use transform="matrix(0.0087890625,0,0,0.0087890625,128.00390625,0)" xlink:href="#y"/><use transform="matrix(0.0087890625,0,0,0.0087890625,137.794921875,0)" xlink:href="#u"/><use transform="matrix(0.0087890625,0,0,0.0087890625,142.1630859375,0)" xlink:href="#I"/><use transform="matrix(0.0087890625,0,0,0.0087890625,152.0947265625,0)" xlink:href="#C"/><use transform="matrix(0.0087890625,0,0,0.0087890625,161.630859375,0)" xlink:href="#v"/></g><path fill="#2e2f27" d="M524 20C238 18 95-240 95-550c0-307 146-552 431-552 128 0 229 43 303 129l8-109h170V416H822v-516C747-20 648 20 524 20zm48-970c-208 0-292 182-292 421 0 219 92 398 290 398 110 0 194-49 252-146v-530c-59-95-142-143-250-143" id="V"/><path fill="#2e2f27" d="M494-271l252-811h198L509 167C425 381 299 474 84 421V271c167 16 242-37 283-173l41-110L22-1082h202" id="W"/><g id="o"><use transform="matrix(0.0087890625,0,0,0.0087890625,0,0)" xlink:href="#B"/><use transform="matrix(0.0087890625,0,0,0.0087890625,8.6044921875,0)" xlink:href="#C"/><use transform="matrix(0.0087890625,0,0,0.0087890625,18.140625,0)" xlink:href="#K"/><use transform="matrix(0.0087890625,0,0,0.0087890625,27.421875,0)" xlink:href="#R"/><use transform="matrix(0.0087890625,0,0,0.0087890625,37.5205078125,0)" xlink:href="#y"/><use transform="matrix(0.0087890625,0,0,0.0087890625,47.3115234375,0)" xlink:href="#L"/><use transform="matrix(0.0087890625,0,0,0.0087890625,52.27734375,0)" xlink:href="#V"/><use transform="matrix(0.0087890625,0,0,0.0087890625,62.5078125,0)" xlink:href="#x"/><use transform="matrix(0.0087890625,0,0,0.0087890625,72.4306640625,0)" xlink:href="#C"/><use transform="matrix(0.0087890625,0,0,0.0087890625,81.966796875,0)" xlink:href="#v"/><use transform="matrix(0.0087890625,0,0,0.0087890625,88.2158203125,0)" xlink:href="#W"/><use transform="matrix(0.0087890625,0,0,0.0087890625,96.732421875,0)" xlink:href="#L"/><use transform="matrix(0.0087890625,0,0,0.0087890625,101.6982421875,0)" xlink:href="#M"/><use transform="matrix(0.0087890625,0,0,0.0087890625,111.1201171875,0)" xlink:href="#E"/><use transform="matrix(0.0087890625,0,0,0.0087890625,121.3857421875,0)" xlink:href="#I"/><use transform="matrix(0.0087890625,0,0,0.0087890625,131.3173828125,0)" xlink:href="#w"/><use transform="matrix(0.0087890625,0,0,0.0087890625,137.197265625,0)" xlink:href="#y"/><use transform="matrix(0.0087890625,0,0,0.0087890625,146.98828125,0)" xlink:href="#u"/><use transform="matrix(0.0087890625,0,0,0.0087890625,151.3564453125,0)" xlink:href="#I"/><use transform="matrix(0.0087890625,0,0,0.0087890625,161.2880859375,0)" xlink:href="#C"/><use transform="matrix(0.0087890625,0,0,0.0087890625,170.82421875,0)" xlink:href="#v"/></g><g id="p"><use transform="matrix(0.0087890625,0,0,0.0087890625,0,0)" xlink:href="#B"/><use transform="matrix(0.0087890625,0,0,0.0087890625,8.6044921875,0)" xlink:href="#C"/><use transform="matrix(0.0087890625,0,0,0.0087890625,18.140625,0)" xlink:href="#K"/><use transform="matrix(0.0087890625,0,0,0.0087890625,27.421875,0)" xlink:href="#R"/><use transform="matrix(0.0087890625,0,0,0.0087890625,37.5205078125,0)" xlink:href="#y"/><use transform="matrix(0.0087890625,0,0,0.0087890625,47.3115234375,0)" xlink:href="#L"/><use transform="matrix(0.0087890625,0,0,0.0087890625,52.27734375,0)" xlink:href="#M"/><use transform="matrix(0.0087890625,0,0,0.0087890625,61.69921875,0)" xlink:href="#E"/><use transform="matrix(0.0087890625,0,0,0.0087890625,71.96484375,0)" xlink:href="#I"/><use transform="matrix(0.0087890625,0,0,0.0087890625,81.896484375,0)" xlink:href="#w"/><use transform="matrix(0.0087890625,0,0,0.0087890625,87.7763671875,0)" xlink:href="#C"/><use transform="matrix(0.0087890625,0,0,0.0087890625,97.3125,0)" xlink:href="#I"/><use transform="matrix(0.0087890625,0,0,0.0087890625,107.244140625,0)" xlink:href="#w"/></g><g id="r"><use transform="matrix(0.0087890625,0,0,0.0087890625,0,0)" xlink:href="#K"/><use transform="matrix(0.0087890625,0,0,0.0087890625,9.28125,0)" xlink:href="#C"/><use transform="matrix(0.0087890625,0,0,0.0087890625,18.8173828125,0)" xlink:href="#v"/><use transform="matrix(0.0087890625,0,0,0.0087890625,25.06640625,0)" xlink:href="#B"/><use transform="matrix(0.0087890625,0,0,0.0087890625,33.78515625,0)" xlink:href="#u"/><use transform="matrix(0.0087890625,0,0,0.0087890625,38.1533203125,0)" xlink:href="#M"/><use transform="matrix(0.0087890625,0,0,0.0087890625,47.5751953125,0)" xlink:href="#C"/><use transform="matrix(0.0087890625,0,0,0.0087890625,57.111328125,0)" xlink:href="#L"/><use transform="matrix(0.0087890625,0,0,0.0087890625,62.0771484375,0)" xlink:href="#V"/><use transform="matrix(0.0087890625,0,0,0.0087890625,72.3076171875,0)" xlink:href="#x"/><use transform="matrix(0.0087890625,0,0,0.0087890625,82.23046875,0)" xlink:href="#C"/><use transform="matrix(0.0087890625,0,0,0.0087890625,91.7666015625,0)" xlink:href="#v"/><use transform="matrix(0.0087890625,0,0,0.0087890625,98.015625,0)" xlink:href="#W"/></g><filter id="q" filterUnits="objectBoundingBox" x="-.01" y="-.01" width="1.01" height="1.05"><feOffset result="offOut" in="SourceAlpha" dy="1"/><feGaussianBlur result="blurOut" in="offOut" stdDeviation=".75"/><feColorMatrix result="colorOut" in="blurOut" values="0 0 0 0 0 0 0 0 0 0 0 0 0 0 0 0 0 0 0.4 0"/><feBlend in="SourceGraphic" in2="colorOut"/></filter><g id="s"><use transform="matrix(0.0087890625,0,0,0.0087890625,0,0)" xlink:href="#K"/><use transform="matrix(0.0087890625,0,0,0.0087890625,9.28125,0)" xlink:href="#C"/><use transform="matrix(0.0087890625,0,0,0.0087890625,18.8173828125,0)" xlink:href="#v"/><use transform="matrix(0.0087890625,0,0,0.0087890625,25.06640625,0)" xlink:href="#B"/><use transform="matrix(0.0087890625,0,0,0.0087890625,33.78515625,0)" xlink:href="#u"/><use transform="matrix(0.0087890625,0,0,0.0087890625,38.1533203125,0)" xlink:href="#M"/><use transform="matrix(0.0087890625,0,0,0.0087890625,47.5751953125,0)" xlink:href="#C"/><use transform="matrix(0.0087890625,0,0,0.0087890625,57.111328125,0)" xlink:href="#L"/><use transform="matrix(0.0087890625,0,0,0.0087890625,62.0771484375,0)" xlink:href="#S"/><use transform="matrix(0.0087890625,0,0,0.0087890625,68.115234375,0)" xlink:href="#C"/><use transform="matrix(0.0087890625,0,0,0.0087890625,77.6513671875,0)" xlink:href="#C"/><use transform="matrix(0.0087890625,0,0,0.0087890625,87.1875,0)" xlink:href="#F"/></g></defs></g></svg>