<svg xmlns="http://www.w3.org/2000/svg" xmlns:xlink="http://www.w3.org/1999/xlink" xmlns:lucid="lucid" width="1862" height="1522"><g transform="translate(-79 -79)" lucid:page-tab-id="0_0"><path d="M0 0h3676.8v2582.4H0z" fill="#fff"/><path d="M1890 100c16.57 0 30 13.43 30 30v1420c0 16.57-13.43 30-30 30H130c-16.57 0-30-13.43-30-30V130c0-16.57 13.43-30 30-30z" stroke="#e5e5e5" stroke-width="2" fill="#c4c5b9"/><path d="M140 1206a6 6 0 0 1 6-6h528a6 6 0 0 1 6 6v328a6 6 0 0 1-6 6H146a6 6 0 0 1-6-6z" stroke="#dbb8ca" stroke-width="2" fill="#dbb8ca"/><use xlink:href="#a" transform="matrix(1,0,0,1,145,1205) translate(0 17.955555555555552)"/><use xlink:href="#b" transform="matrix(1,0,0,1,145,1205) translate(75.87469135802468 17.955555555555552)"/><path d="M380 1226a6 6 0 0 1 6-6h268a6 6 0 0 1 6 6v288a6 6 0 0 1-6 6H386a6 6 0 0 1-6-6z" stroke="#000" stroke-opacity="0" stroke-width="3" fill="#ae6188"/><use xlink:href="#c" transform="matrix(1,0,0,1,392,1232) translate(0 14.4)"/><use xlink:href="#d" transform="matrix(1,0,0,1,392,1232) translate(45 14.4)"/><path d="M140 166a6 6 0 0 1 6-6h528a6 6 0 0 1 6 6v968a6 6 0 0 1-6 6H146a6 6 0 0 1-6-6z" stroke="#dbb8ca" stroke-width="2" fill="#dbb8ca"/><use xlink:href="#e" transform="matrix(1,0,0,1,145,165) translate(0 17.955555555555552)"/><use xlink:href="#f" transform="matrix(1,0,0,1,145,165) translate(76.9969135802469 17.955555555555552)"/><use xlink:href="#g" transform="matrix(1,0,0,1,145,165) translate(150.56481481481478 17.955555555555552)"/><path d="M380 506a6 6 0 0 1 6-6h268a6 6 0 0 1 6 6v288a6 6 0 0 1-6 6H386a6 6 0 0 1-6-6z" stroke="#000" stroke-opacity="0" stroke-width="3" fill="#ae6188"/><use xlink:href="#c" transform="matrix(1,0,0,1,392,512) translate(0 14.4)"/><use xlink:href="#h" transform="matrix(1,0,0,1,392,512) translate(45 14.4)"/><path d="M380 826a6 6 0 0 1 6-6h268a6 6 0 0 1 6 6v288a6 6 0 0 1-6 6H386a6 6 0 0 1-6-6z" stroke="#000" stroke-opacity="0" stroke-width="3" fill="#ae6188"/><use xlink:href="#c" transform="matrix(1,0,0,1,392,832) translate(0 14.4)"/><use xlink:href="#i" transform="matrix(1,0,0,1,392,832) translate(45 14.4)"/><path d="M380 186a6 6 0 0 1 6-6h268a6 6 0 0 1 6 6v288a6 6 0 0 1-6 6H386a6 6 0 0 1-6-6z" stroke="#000" stroke-opacity="0" stroke-width="3" fill="#ae6188"/><use xlink:href="#c" transform="matrix(1,0,0,1,392,192) translate(0 14.4)"/><use xlink:href="#j" transform="matrix(1,0,0,1,392,192) translate(45 14.4)"/><path d="M740 886a6 6 0 0 1 6-6h528a6 6 0 0 1 6 6v648a6 6 0 0 1-6 6H746a6 6 0 0 1-6-6z" stroke="#000" stroke-opacity="0" stroke-width="3" fill="#b7e2f1"/><use xlink:href="#k" transform="matrix(1,0,0,1,752,892) translate(0 17.77777777777778)"/><use xlink:href="#l" transform="matrix(1,0,0,1,752,892) translate(0 44.44444444444444)"/><use xlink:href="#m" transform="matrix(1,0,0,1,752,892) translate(105.92592592592592 44.44444444444444)"/><path d="M980 1226a6 6 0 0 1 6-6h268a6 6 0 0 1 6 6v288a6 6 0 0 1-6 6H986a6 6 0 0 1-6-6z" stroke="#000" stroke-opacity="0" stroke-width="3" fill="#3788a5"/><use xlink:href="#c" transform="matrix(1,0,0,1,992,1232) translate(0 14.4)"/><use xlink:href="#n" transform="matrix(1,0,0,1,992,1232) translate(45 14.4)"/><path d="M980 906a6 6 0 0 1 6-6h268a6 6 0 0 1 6 6v288a6 6 0 0 1-6 6H986a6 6 0 0 1-6-6z" stroke="#000" stroke-opacity="0" stroke-width="3" fill="#3788a5"/><use xlink:href="#c" transform="matrix(1,0,0,1,992,912) translate(0 14.4)"/><use xlink:href="#o" transform="matrix(1,0,0,1,992,912) translate(45 14.4)"/><path d="M740 166a6 6 0 0 1 6-6h528a6 6 0 0 1 6 6v648a6 6 0 0 1-6 6H746a6 6 0 0 1-6-6z" stroke="#000" stroke-opacity="0" stroke-width="3" fill="#b7e2f1"/><use xlink:href="#p" transform="matrix(1,0,0,1,752,172) translate(0 17.77777777777778)"/><use xlink:href="#l" transform="matrix(1,0,0,1,752,172) translate(0 44.44444444444444)"/><use xlink:href="#m" transform="matrix(1,0,0,1,752,172) translate(105.92592592592592 44.44444444444444)"/><path d="M980 506a6 6 0 0 1 6-6h268a6 6 0 0 1 6 6v288a6 6 0 0 1-6 6H986a6 6 0 0 1-6-6z" stroke="#000" stroke-opacity="0" stroke-width="3" fill="#3788a5"/><use xlink:href="#c" transform="matrix(1,0,0,1,992,512) translate(0 14.4)"/><use xlink:href="#q" transform="matrix(1,0,0,1,992,512) translate(45 14.4)"/><path d="M980 186a6 6 0 0 1 6-6h268a6 6 0 0 1 6 6v288a6 6 0 0 1-6 6H986a6 6 0 0 1-6-6z" stroke="#000" stroke-opacity="0" stroke-width="3" fill="#3788a5"/><use xlink:href="#c" transform="matrix(1,0,0,1,992,192) translate(0 14.4)"/><use xlink:href="#r" transform="matrix(1,0,0,1,992,192) translate(45 14.4)"/><path d="M1340 166a6 6 0 0 1 6-6h528a6 6 0 0 1 6 6v648a6 6 0 0 1-6 6h-528a6 6 0 0 1-6-6z" stroke="#000" stroke-opacity="0" stroke-width="3" fill="#baedce"/><use xlink:href="#s" transform="matrix(1,0,0,1,1352,171.9999999999999) translate(0 17.77777777777778)"/><use xlink:href="#t" transform="matrix(1,0,0,1,1352,171.9999999999999) translate(89.75308641975307 17.77777777777778)"/><path d="M1580 506a6 6 0 0 1 6-6h268a6 6 0 0 1 6 6v288a6 6 0 0 1-6 6h-268a6 6 0 0 1-6-6z" stroke="#000" stroke-opacity="0" stroke-width="3" fill="#1b6a3a"/><use xlink:href="#c" transform="matrix(1,0,0,1,1592,512) translate(0 14.4)"/><use xlink:href="#u" transform="matrix(1,0,0,1,1592,512) translate(45 14.4)"/><path d="M1580 186a6 6 0 0 1 6-6h268a6 6 0 0 1 6 6v288a6 6 0 0 1-6 6h-268a6 6 0 0 1-6-6z" stroke="#000" stroke-opacity="0" stroke-width="3" fill="#1b6a3a"/><use xlink:href="#c" transform="matrix(1,0,0,1,1592,192) translate(0 14.4)"/><use xlink:href="#v" transform="matrix(1,0,0,1,1592,192) translate(45 14.4)"/><path d="M420 219.3h200V280H420z" stroke="#2e2f27" stroke-width="2" fill="#fff"/><use xlink:href="#w" transform="matrix(1,0,0,1,425,224.30322865266487) translate(0 30.3375)"/><use xlink:href="#x" transform="matrix(1,0,0,1,425,224.30322865266487) translate(52.95 30.3375)"/><path d="M120 100h220v47.4H120z" stroke="#000" stroke-opacity="0" stroke-width="2" fill="#fff" fill-opacity="0"/><use xlink:href="#y" transform="matrix(1,0,0,1,125,105) translate(0 24.19166666666667)"/><path d="M420 300h200v140H420z" stroke="#2e2f27" stroke-width="2" fill="#fff"/><use xlink:href="#z" transform="matrix(1,0,0,1,425,305) translate(0 46.9)"/><use xlink:href="#A" transform="matrix(1,0,0,1,425,305) translate(5.85 68.5)"/><use xlink:href="#B" transform="matrix(1,0,0,1,425,305) translate(18 68.5)"/><use xlink:href="#A" transform="matrix(1,0,0,1,425,305) translate(5.85 90.10000000000001)"/><use xlink:href="#C" transform="matrix(1,0,0,1,425,305) translate(18 90.10000000000001)"/><path d="M418 249.65h-67.33" stroke="#2e2f27" stroke-width="2" fill="none"/><path d="M419 250.65h-1.03v-2H419z" stroke="#2e2f27" stroke-width=".05" fill="#2e2f27"/><path d="M351 249.65c0 8.3-6.72 15-15 15-8.28 0-15-6.7-15-15 0-8.28 6.72-15 15-15 8.28 0 15 6.72 15 15z" stroke="#2e2f27" stroke-width="2" fill="#fff"/><path d="M180 220h140v60H180z" stroke="#000" stroke-opacity="0" stroke-width="2" fill="#fff" fill-opacity="0"/><use xlink:href="#D" transform="matrix(1,0,0,1,185,225) translate(7.5 30.025)"/><use xlink:href="#E" transform="matrix(1,0,0,1,185,225) translate(62.5 30.025)"/><use xlink:href="#F" transform="matrix(1,0,0,1,185,225) translate(72.5 30.025)"/><path d="M379 330h-28.68" stroke="#2e2f27" stroke-width="2" fill="none"/><path d="M380 331h-1.03v-2H380z" stroke="#2e2f27" stroke-width=".05" fill="#2e2f27"/><path d="M351 329.83c0 8.3-6.72 15-15 15-8.3 0-15-6.7-15-15 0-8.28 6.7-15 15-15 8.28 0 15 6.72 15 15z" stroke="#2e2f27" stroke-width="2" fill="#fff"/><path d="M180 300h140v60H180z" stroke="#000" stroke-opacity="0" stroke-width="2" fill="#fff" fill-opacity="0"/><use xlink:href="#G" transform="matrix(1,0,0,1,185,305) translate(7.5 30.025)"/><use xlink:href="#E" transform="matrix(1,0,0,1,185,305) translate(62.5 30.025)"/><use xlink:href="#H" transform="matrix(1,0,0,1,185,305) translate(72.5 30.025)"/><path d="M418 369.65h-67.33M417.97 369.65H419" stroke="#2e2f27" stroke-width="2" fill="none"/><path d="M351 369.65c0 8.3-6.72 15-15 15-8.28 0-15-6.7-15-15 0-8.28 6.72-15 15-15 8.28 0 15 6.72 15 15z" stroke="#2e2f27" stroke-width="2" fill="#fff"/><path d="M180 340h140v60H180z" stroke="#000" stroke-opacity="0" stroke-width="2" fill="#fff" fill-opacity="0"/><use xlink:href="#I" transform="matrix(1,0,0,1,185,345) translate(7.5 30.025)"/><use xlink:href="#E" transform="matrix(1,0,0,1,185,345) translate(62.5 30.025)"/><use xlink:href="#J" transform="matrix(1,0,0,1,185,345) translate(72.5 30.025)"/><path d="M418 409.65h-67.33M417.97 409.65H419" stroke="#2e2f27" stroke-width="2" fill="none"/><path d="M351 409.65c0 8.3-6.72 15-15 15-8.28 0-15-6.7-15-15 0-8.28 6.72-15 15-15 8.28 0 15 6.72 15 15z" stroke="#2e2f27" stroke-width="2" fill="#fff"/><path d="M180 380h140v60H180z" stroke="#000" stroke-opacity="0" stroke-width="2" fill="#fff" fill-opacity="0"/><use xlink:href="#K" transform="matrix(1,0,0,1,185,385) translate(7.5 30.025)"/><use xlink:href="#E" transform="matrix(1,0,0,1,185,385) translate(62.5 30.025)"/><use xlink:href="#L" transform="matrix(1,0,0,1,185,385) translate(72.5 30.025)"/><path d="M420 539.3h200V600H420z" stroke="#2e2f27" stroke-width="2" fill="#fff"/><use xlink:href="#w" transform="matrix(1,0,0,1,425,544.303228652665) translate(0 30.3375)"/><use xlink:href="#x" transform="matrix(1,0,0,1,425,544.303228652665) translate(52.95 30.3375)"/><path d="M420 620h200v140H420z" stroke="#2e2f27" stroke-width="2" fill="#fff"/><use xlink:href="#z" transform="matrix(1,0,0,1,425,625) translate(0 46.9)"/><use xlink:href="#A" transform="matrix(1,0,0,1,425,625) translate(5.85 68.5)"/><use xlink:href="#B" transform="matrix(1,0,0,1,425,625) translate(18 68.5)"/><use xlink:href="#A" transform="matrix(1,0,0,1,425,625) translate(5.85 90.10000000000001)"/><use xlink:href="#C" transform="matrix(1,0,0,1,425,625) translate(18 90.10000000000001)"/><path d="M418 569.65h-67.33" stroke="#2e2f27" stroke-width="2" fill="none"/><path d="M419 570.65h-1.03v-2H419z" stroke="#2e2f27" stroke-width=".05" fill="#2e2f27"/><path d="M351 569.65c0 8.3-6.7 15-15 15-8.28 0-15-6.7-15-15 0-8.28 6.72-15 15-15 8.3 0 15 6.72 15 15z" stroke="#2e2f27" stroke-width="2" fill="#fff"/><path d="M180 540h140v60H180z" stroke="#000" stroke-opacity="0" stroke-width="2" fill="#fff" fill-opacity="0"/><use xlink:href="#M" transform="matrix(1,0,0,1,185,545) translate(7.5 30.025)"/><use xlink:href="#E" transform="matrix(1,0,0,1,185,545) translate(62.5 30.025)"/><use xlink:href="#F" transform="matrix(1,0,0,1,185,545) translate(72.5 30.025)"/><path d="M418 649.65h-67.33M417.97 649.65H419" stroke="#2e2f27" stroke-width="2" fill="none"/><path d="M351 649.65c0 8.3-6.72 15-15 15-8.28 0-15-6.7-15-15 0-8.28 6.72-15 15-15 8.28 0 15 6.72 15 15z" stroke="#2e2f27" stroke-width="2" fill="#fff"/><path d="M180 620h140v60H180z" stroke="#000" stroke-opacity="0" stroke-width="2" fill="#fff" fill-opacity="0"/><use xlink:href="#N" transform="matrix(1,0,0,1,185,625) translate(7.5 30.025)"/><use xlink:href="#E" transform="matrix(1,0,0,1,185,625) translate(62.5 30.025)"/><use xlink:href="#H" transform="matrix(1,0,0,1,185,625) translate(72.5 30.025)"/><path d="M418 689.65h-67.33M417.97 689.65H419" stroke="#2e2f27" stroke-width="2" fill="none"/><path d="M351 689.65c0 8.3-6.72 15-15 15-8.28 0-15-6.7-15-15 0-8.28 6.72-15 15-15 8.28 0 15 6.72 15 15z" stroke="#2e2f27" stroke-width="2" fill="#fff"/><path d="M180 660h140v60H180z" stroke="#000" stroke-opacity="0" stroke-width="2" fill="#fff" fill-opacity="0"/><use xlink:href="#O" transform="matrix(1,0,0,1,185,665) translate(7.5 30.025)"/><use xlink:href="#E" transform="matrix(1,0,0,1,185,665) translate(62.5 30.025)"/><use xlink:href="#J" transform="matrix(1,0,0,1,185,665) translate(72.5 30.025)"/><path d="M418 729.65h-67.33M417.97 729.65H419" stroke="#2e2f27" stroke-width="2" fill="none"/><path d="M351 729.65c0 8.3-6.72 15-15 15-8.28 0-15-6.7-15-15 0-8.28 6.72-15 15-15 8.28 0 15 6.72 15 15z" stroke="#2e2f27" stroke-width="2" fill="#fff"/><path d="M180 700h140v60H180z" stroke="#000" stroke-opacity="0" stroke-width="2" fill="#fff" fill-opacity="0"/><use xlink:href="#P" transform="matrix(1,0,0,1,185,705) translate(7.5 30.025)"/><use xlink:href="#E" transform="matrix(1,0,0,1,185,705) translate(62.5 30.025)"/><use xlink:href="#L" transform="matrix(1,0,0,1,185,705) translate(72.5 30.025)"/><path d="M420 859.3h200V920H420z" stroke="#2e2f27" stroke-width="2" fill="#fff"/><use xlink:href="#w" transform="matrix(1,0,0,1,425,864.303228652665) translate(0 30.3375)"/><use xlink:href="#x" transform="matrix(1,0,0,1,425,864.303228652665) translate(52.95 30.3375)"/><path d="M420 940h200v140H420z" stroke="#2e2f27" stroke-width="2" fill="#fff"/><use xlink:href="#z" transform="matrix(1,0,0,1,425,945) translate(0 46.9)"/><use xlink:href="#A" transform="matrix(1,0,0,1,425,945) translate(5.85 68.5)"/><use xlink:href="#B" transform="matrix(1,0,0,1,425,945) translate(18 68.5)"/><use xlink:href="#A" transform="matrix(1,0,0,1,425,945) translate(5.85 90.10000000000001)"/><use xlink:href="#C" transform="matrix(1,0,0,1,425,945) translate(18 90.10000000000001)"/><path d="M418 889.65h-67.33" stroke="#2e2f27" stroke-width="2" fill="none"/><path d="M419 890.65h-1.03v-2H419z" stroke="#2e2f27" stroke-width=".05" fill="#2e2f27"/><path d="M351 889.65c0 8.3-6.7 15-15 15-8.28 0-15-6.7-15-15 0-8.28 6.72-15 15-15 8.3 0 15 6.72 15 15z" stroke="#2e2f27" stroke-width="2" fill="#fff"/><path d="M180 860h140v60H180z" stroke="#000" stroke-opacity="0" stroke-width="2" fill="#fff" fill-opacity="0"/><use xlink:href="#Q" transform="matrix(1,0,0,1,185,865) translate(7.5 30.025)"/><use xlink:href="#E" transform="matrix(1,0,0,1,185,865) translate(62.5 30.025)"/><use xlink:href="#F" transform="matrix(1,0,0,1,185,865) translate(72.5 30.025)"/><path d="M418 969.65h-67.33M417.97 969.65H419" stroke="#2e2f27" stroke-width="2" fill="none"/><path d="M351 969.65c0 8.3-6.72 15-15 15-8.28 0-15-6.7-15-15 0-8.28 6.72-15 15-15 8.28 0 15 6.72 15 15z" stroke="#2e2f27" stroke-width="2" fill="#fff"/><path d="M180 940h140v60H180z" stroke="#000" stroke-opacity="0" stroke-width="2" fill="#fff" fill-opacity="0"/><use xlink:href="#R" transform="matrix(1,0,0,1,185,945) translate(7.5 30.025)"/><use xlink:href="#E" transform="matrix(1,0,0,1,185,945) translate(62.5 30.025)"/><use xlink:href="#H" transform="matrix(1,0,0,1,185,945) translate(72.5 30.025)"/><path d="M418 1009.65h-67.33M417.97 1009.65H419" stroke="#2e2f27" stroke-width="2" fill="none"/><path d="M351 1009.65c0 8.3-6.72 15-15 15-8.28 0-15-6.7-15-15 0-8.28 6.72-15 15-15 8.28 0 15 6.72 15 15z" stroke="#2e2f27" stroke-width="2" fill="#fff"/><path d="M180 980h140v60H180z" stroke="#000" stroke-opacity="0" stroke-width="2" fill="#fff" fill-opacity="0"/><use xlink:href="#S" transform="matrix(1,0,0,1,185,985) translate(7.5 30.025)"/><use xlink:href="#E" transform="matrix(1,0,0,1,185,985) translate(62.5 30.025)"/><use xlink:href="#J" transform="matrix(1,0,0,1,185,985) translate(72.5 30.025)"/><path d="M418 1049.65h-67.33M417.97 1049.65H419" stroke="#2e2f27" stroke-width="2" fill="none"/><path d="M351 1049.65c0 8.3-6.72 15-15 15-8.28 0-15-6.7-15-15 0-8.28 6.72-15 15-15 8.28 0 15 6.72 15 15z" stroke="#2e2f27" stroke-width="2" fill="#fff"/><path d="M180 1020h140v60H180z" stroke="#000" stroke-opacity="0" stroke-width="2" fill="#fff" fill-opacity="0"/><use xlink:href="#T" transform="matrix(1,0,0,1,185,1025) translate(7.5 30.025)"/><use xlink:href="#E" transform="matrix(1,0,0,1,185,1025) translate(62.5 30.025)"/><use xlink:href="#L" transform="matrix(1,0,0,1,185,1025) translate(72.5 30.025)"/><path d="M1020 300h200v140h-200z" stroke="#2e2f27" stroke-width="2" fill="#fff"/><use xlink:href="#U" transform="matrix(1,0,0,1,1025,305) translate(0 59.0875)"/><use xlink:href="#A" transform="matrix(1,0,0,1,1025,305) translate(5.85 80.6875)"/><use xlink:href="#V" transform="matrix(1,0,0,1,1025,305) translate(18 80.6875)"/><use xlink:href="#W" transform="matrix(1,0,0,1,1025,305) translate(96.9 80.6875)"/><path d="M1018 329.65h-67.33M1017.97 329.65h1.03" stroke="#2e2f27" stroke-width="2" fill="none"/><path d="M951 329.65c0 8.3-6.72 15-15 15-8.28 0-15-6.7-15-15 0-8.28 6.72-15 15-15 8.28 0 15 6.72 15 15z" stroke="#2e2f27" stroke-width="2" fill="#fff"/><path d="M780 300h140v60H780z" stroke="#000" stroke-opacity="0" stroke-width="2" fill="#fff" fill-opacity="0"/><use xlink:href="#X" transform="matrix(1,0,0,1,785,305) translate(17.5 30.025)"/><use xlink:href="#E" transform="matrix(1,0,0,1,785,305) translate(62.5 30.025)"/><use xlink:href="#Y" transform="matrix(1,0,0,1,785,305) translate(72.5 30.025)"/><path d="M1018 409.65h-67.33M1017.97 409.65h1.03" stroke="#2e2f27" stroke-width="2" fill="none"/><path d="M951 409.65c0 8.3-6.72 15-15 15-8.28 0-15-6.7-15-15 0-8.28 6.72-15 15-15 8.28 0 15 6.72 15 15z" stroke="#2e2f27" stroke-width="2" fill="#fff"/><path d="M780 380h140v60H780z" stroke="#000" stroke-opacity="0" stroke-width="2" fill="#fff" fill-opacity="0"/><use xlink:href="#Z" transform="matrix(1,0,0,1,785,385) translate(7.5 30.025)"/><use xlink:href="#E" transform="matrix(1,0,0,1,785,385) translate(62.5 30.025)"/><use xlink:href="#L" transform="matrix(1,0,0,1,785,385) translate(72.5 30.025)"/><path d="M1020 620h200v140h-200z" stroke="#2e2f27" stroke-width="2" fill="#fff"/><use xlink:href="#U" transform="matrix(1,0,0,1,1025,624.9999999999998) translate(0 59.0875)"/><use xlink:href="#A" transform="matrix(1,0,0,1,1025,624.9999999999998) translate(5.85 80.6875)"/><use xlink:href="#V" transform="matrix(1,0,0,1,1025,624.9999999999998) translate(18 80.6875)"/><use xlink:href="#aa" transform="matrix(1,0,0,1,1025,624.9999999999998) translate(96.9 80.6875)"/><path d="M1018 649.65h-67.33M1017.97 649.65h1.03" stroke="#2e2f27" stroke-width="2" fill="none"/><path d="M951 649.65c0 8.3-6.72 15-15 15-8.28 0-15-6.7-15-15 0-8.28 6.72-15 15-15 8.28 0 15 6.72 15 15z" stroke="#2e2f27" stroke-width="2" fill="#fff"/><path d="M780 620h140v60H780z" stroke="#000" stroke-opacity="0" stroke-width="2" fill="#fff" fill-opacity="0"/><g><use xlink:href="#ab" transform="matrix(1,0,0,1,785,625) translate(17.5 30.025)"/><use xlink:href="#E" transform="matrix(1,0,0,1,785,625) translate(62.5 30.025)"/><use xlink:href="#Y" transform="matrix(1,0,0,1,785,625) translate(72.5 30.025)"/></g><path d="M1018 729.65h-67.33M1017.97 729.65h1.03" stroke="#2e2f27" stroke-width="2" fill="none"/><path d="M951 729.65c0 8.3-6.72 15-15 15-8.28 0-15-6.7-15-15 0-8.28 6.72-15 15-15 8.28 0 15 6.72 15 15z" stroke="#2e2f27" stroke-width="2" fill="#fff"/><path d="M780 700h140v60H780z" stroke="#000" stroke-opacity="0" stroke-width="2" fill="#fff" fill-opacity="0"/><g><use xlink:href="#ac" transform="matrix(1,0,0,1,785,705) translate(7.5 30.025)"/><use xlink:href="#E" transform="matrix(1,0,0,1,785,705) translate(62.5 30.025)"/><use xlink:href="#L" transform="matrix(1,0,0,1,785,705) translate(72.5 30.025)"/></g><path d="M1620 300h200v140h-200z" stroke="#2e2f27" stroke-width="2" fill="#fff"/><g><use xlink:href="#U" transform="matrix(1,0,0,1,1625,305) translate(0 59.0875)"/><use xlink:href="#A" transform="matrix(1,0,0,1,1625,305) translate(5.85 80.6875)"/><use xlink:href="#ad" transform="matrix(1,0,0,1,1625,305) translate(18 80.6875)"/><use xlink:href="#ae" transform="matrix(1,0,0,1,1625,305) translate(82 80.6875)"/><use xlink:href="#W" transform="matrix(1,0,0,1,1625,305) translate(127 80.6875)"/></g><path d="M1618 329.65h-67.33M1617.97 329.65h1.03" stroke="#2e2f27" stroke-width="2" fill="none"/><path d="M1551 329.65c0 8.3-6.72 15-15 15-8.28 0-15-6.7-15-15 0-8.28 6.72-15 15-15 8.28 0 15 6.72 15 15z" stroke="#2e2f27" stroke-width="2" fill="#fff"/><path d="M1380 300h140v60h-140z" stroke="#000" stroke-opacity="0" stroke-width="2" fill="#fff" fill-opacity="0"/><g><use xlink:href="#af" transform="matrix(1,0,0,1,1385,305) translate(7.5 30.025)"/><use xlink:href="#E" transform="matrix(1,0,0,1,1385,305) translate(62.5 30.025)"/><use xlink:href="#ag" transform="matrix(1,0,0,1,1385,305) translate(72.5 30.025)"/></g><path d="M1618 409.65h-67.33M1617.97 409.65h1.03" stroke="#2e2f27" stroke-width="2" fill="none"/><path d="M1551 409.65c0 8.3-6.72 15-15 15-8.28 0-15-6.7-15-15 0-8.28 6.72-15 15-15 8.28 0 15 6.72 15 15z" stroke="#2e2f27" stroke-width="2" fill="#fff"/><path d="M1380 380h140v60h-140z" stroke="#000" stroke-opacity="0" stroke-width="2" fill="#fff" fill-opacity="0"/><g><use xlink:href="#ah" transform="matrix(1,0,0,1,1385,385) translate(7.5 30.025)"/><use xlink:href="#E" transform="matrix(1,0,0,1,1385,385) translate(62.5 30.025)"/><use xlink:href="#L" transform="matrix(1,0,0,1,1385,385) translate(72.5 30.025)"/></g><path d="M1620 620h200v140h-200z" stroke="#2e2f27" stroke-width="2" fill="#fff"/><g><use xlink:href="#U" transform="matrix(1,0,0,1,1625,625) translate(0 59.0875)"/><use xlink:href="#A" transform="matrix(1,0,0,1,1625,625) translate(5.85 80.6875)"/><use xlink:href="#ad" transform="matrix(1,0,0,1,1625,625) translate(18 80.6875)"/><use xlink:href="#ae" transform="matrix(1,0,0,1,1625,625) translate(82 80.6875)"/><use xlink:href="#aa" transform="matrix(1,0,0,1,1625,625) translate(127 80.6875)"/></g><path d="M1618 649.65h-67.33M1617.97 649.65h1.03" stroke="#2e2f27" stroke-width="2" fill="none"/><path d="M1551 649.65c0 8.3-6.72 15-15 15-8.28 0-15-6.7-15-15 0-8.28 6.72-15 15-15 8.28 0 15 6.72 15 15z" stroke="#2e2f27" stroke-width="2" fill="#fff"/><path d="M1380 620h140v60h-140z" stroke="#000" stroke-opacity="0" stroke-width="2" fill="#fff" fill-opacity="0"/><g><use xlink:href="#ai" transform="matrix(1,0,0,1,1385,625) translate(7.5 30.025)"/><use xlink:href="#E" transform="matrix(1,0,0,1,1385,625) translate(62.5 30.025)"/><use xlink:href="#ag" transform="matrix(1,0,0,1,1385,625) translate(72.5 30.025)"/></g><path d="M1618 729.65h-67.33M1617.97 729.65h1.03" stroke="#2e2f27" stroke-width="2" fill="none"/><path d="M1551 729.65c0 8.3-6.72 15-15 15-8.28 0-15-6.7-15-15 0-8.28 6.72-15 15-15 8.28 0 15 6.72 15 15z" stroke="#2e2f27" stroke-width="2" fill="#fff"/><path d="M1380 700h140v60h-140z" stroke="#000" stroke-opacity="0" stroke-width="2" fill="#fff" fill-opacity="0"/><g><use xlink:href="#aj" transform="matrix(1,0,0,1,1385,705) translate(7.5 30.025)"/><use xlink:href="#E" transform="matrix(1,0,0,1,1385,705) translate(62.5 30.025)"/><use xlink:href="#L" transform="matrix(1,0,0,1,1385,705) translate(72.5 30.025)"/></g><path d="M420 1340h200v140H420z" stroke="#2e2f27" stroke-width="2" fill="#fff"/><g><use xlink:href="#U" transform="matrix(1,0,0,1,425,1345) translate(0 59.0875)"/><use xlink:href="#A" transform="matrix(1,0,0,1,425,1345) translate(5.85 80.6875)"/><use xlink:href="#ak" transform="matrix(1,0,0,1,425,1345) translate(18 80.6875)"/><use xlink:href="#x" transform="matrix(1,0,0,1,425,1345) translate(46.95 80.6875)"/></g><path d="M418 1449.65h-67.33M417.97 1449.65H419" stroke="#2e2f27" stroke-width="2" fill="none"/><path d="M351 1449.65c0 8.3-6.72 15-15 15-8.28 0-15-6.7-15-15 0-8.28 6.72-15 15-15 8.28 0 15 6.72 15 15z" stroke="#2e2f27" stroke-width="2" fill="#fff"/><path d="M180 1420h140v60H180z" stroke="#000" stroke-opacity="0" stroke-width="2" fill="#fff" fill-opacity="0"/><g><use xlink:href="#al" transform="matrix(1,0,0,1,185,1425) translate(7.5 30.025)"/><use xlink:href="#E" transform="matrix(1,0,0,1,185,1425) translate(62.5 30.025)"/><use xlink:href="#L" transform="matrix(1,0,0,1,185,1425) translate(72.5 30.025)"/></g><path d="M1020 1020h200v140h-200z" stroke="#2e2f27" stroke-width="2" fill="#fff"/><g><use xlink:href="#U" transform="matrix(1,0,0,1,1025,1025) translate(0 59.0875)"/><use xlink:href="#A" transform="matrix(1,0,0,1,1025,1025) translate(5.85 80.6875)"/><use xlink:href="#V" transform="matrix(1,0,0,1,1025,1025) translate(18 80.6875)"/><use xlink:href="#W" transform="matrix(1,0,0,1,1025,1025) translate(96.9 80.6875)"/></g><path d="M1018 1049.65h-67.33M1017.97 1049.65h1.03" stroke="#2e2f27" stroke-width="2" fill="none"/><path d="M951 1049.65c0 8.3-6.72 15-15 15-8.28 0-15-6.7-15-15 0-8.28 6.72-15 15-15 8.28 0 15 6.72 15 15z" stroke="#2e2f27" stroke-width="2" fill="#fff"/><path d="M780 1020h140v60H780z" stroke="#000" stroke-opacity="0" stroke-width="2" fill="#fff" fill-opacity="0"/><g><use xlink:href="#am" transform="matrix(1,0,0,1,785,1025) translate(17.5 30.025)"/><use xlink:href="#E" transform="matrix(1,0,0,1,785,1025) translate(62.5 30.025)"/><use xlink:href="#Y" transform="matrix(1,0,0,1,785,1025) translate(72.5 30.025)"/></g><path d="M1018 1129.65h-67.33M1017.97 1129.65h1.03" stroke="#2e2f27" stroke-width="2" fill="none"/><path d="M951 1129.65c0 8.3-6.72 15-15 15-8.28 0-15-6.7-15-15 0-8.28 6.72-15 15-15 8.28 0 15 6.72 15 15z" stroke="#2e2f27" stroke-width="2" fill="#fff"/><path d="M780 1100h140v60H780z" stroke="#000" stroke-opacity="0" stroke-width="2" fill="#fff" fill-opacity="0"/><g><use xlink:href="#an" transform="matrix(1,0,0,1,785,1105) translate(7.5 30.025)"/><use xlink:href="#E" transform="matrix(1,0,0,1,785,1105) translate(62.5 30.025)"/><use xlink:href="#L" transform="matrix(1,0,0,1,785,1105) translate(72.5 30.025)"/></g><path d="M1020 1340h200v140h-200z" stroke="#2e2f27" stroke-width="2" fill="#fff"/><g><use xlink:href="#U" transform="matrix(1,0,0,1,1025,1344.9999999999998) translate(0 59.0875)"/><use xlink:href="#A" transform="matrix(1,0,0,1,1025,1344.9999999999998) translate(5.85 80.6875)"/><use xlink:href="#V" transform="matrix(1,0,0,1,1025,1344.9999999999998) translate(18 80.6875)"/><use xlink:href="#aa" transform="matrix(1,0,0,1,1025,1344.9999999999998) translate(96.9 80.6875)"/></g><path d="M1018 1369.65h-67.33M1017.97 1369.65h1.03" stroke="#2e2f27" stroke-width="2" fill="none"/><path d="M951 1369.65c0 8.3-6.72 15-15 15-8.28 0-15-6.7-15-15 0-8.28 6.72-15 15-15 8.28 0 15 6.72 15 15z" stroke="#2e2f27" stroke-width="2" fill="#fff"/><path d="M780 1340h140v60H780z" stroke="#000" stroke-opacity="0" stroke-width="2" fill="#fff" fill-opacity="0"/><g><use xlink:href="#ao" transform="matrix(1,0,0,1,785,1345) translate(17.5 30.025)"/><use xlink:href="#E" transform="matrix(1,0,0,1,785,1345) translate(62.5 30.025)"/><use xlink:href="#Y" transform="matrix(1,0,0,1,785,1345) translate(72.5 30.025)"/></g><path d="M1018 1449.65h-67.33M1017.97 1449.65h1.03" stroke="#2e2f27" stroke-width="2" fill="none"/><path d="M951 1449.65c0 8.3-6.72 15-15 15-8.28 0-15-6.7-15-15 0-8.28 6.72-15 15-15 8.28 0 15 6.72 15 15z" stroke="#2e2f27" stroke-width="2" fill="#fff"/><path d="M780 1420h140v60H780z" stroke="#000" stroke-opacity="0" stroke-width="2" fill="#fff" fill-opacity="0"/><g><use xlink:href="#ap" transform="matrix(1,0,0,1,785,1425) translate(7.5 30.025)"/><use xlink:href="#E" transform="matrix(1,0,0,1,785,1425) translate(62.5 30.025)"/><use xlink:href="#L" transform="matrix(1,0,0,1,785,1425) translate(72.5 30.025)"/></g><path d="M418 1389.65h-67.33M417.97 1389.65H419" stroke="#2e2f27" stroke-width="2" fill="none"/><path d="M351 1389.65c0 8.3-6.72 15-15 15-8.28 0-15-6.7-15-15 0-8.28 6.72-15 15-15 8.28 0 15 6.72 15 15z" stroke="#2e2f27" stroke-width="2" fill="#fff"/><path d="M180 1360h140v60H180z" stroke="#000" stroke-opacity="0" stroke-width="2" fill="#fff" fill-opacity="0"/><g><use xlink:href="#aq" transform="matrix(1,0,0,1,185,1365) translate(7.5 30.025)"/><use xlink:href="#E" transform="matrix(1,0,0,1,185,1365) translate(62.5 30.025)"/><use xlink:href="#ar" transform="matrix(1,0,0,1,185,1365) translate(72.5 30.025)"/></g><defs><path fill="#ae6188" d="M199 0l-22-63H83L61 0H9l90-248h61L250 0h-51zm-33-102l-36-108c-10 38-24 72-36 108h72" id="as"/><path fill="#ae6188" d="M88-194c31-1 46 15 58 34l-1-101h50l1 261h-48c-2-10 0-23-3-31C134-8 116 4 84 4 32 4 16-41 15-95c0-56 19-97 73-99zm17 164c33 0 40-30 41-66 1-37-9-64-41-64s-38 30-39 65c0 43 13 65 39 65" id="at"/><path fill="#ae6188" d="M220-157c-53 9-28 100-34 157h-49v-107c1-27-5-49-29-50C55-147 81-57 75 0H25l-1-190h47c2 12-1 28 3 38 10-53 101-56 108 0 13-22 24-43 59-42 82 1 51 116 57 194h-49v-107c-1-25-5-48-29-50" id="au"/><path fill="#ae6188" d="M25-224v-37h50v37H25zM25 0v-190h50V0H25" id="av"/><path fill="#ae6188" d="M135-194c87-1 58 113 63 194h-50c-7-57 23-157-34-157-59 0-34 97-39 157H25l-1-190h47c2 12-1 28 3 38 12-26 28-41 61-42" id="aw"/><g id="a"><use transform="matrix(0.06234567901234567,0,0,0.06234567901234567,0,0)" xlink:href="#as"/><use transform="matrix(0.06234567901234567,0,0,0.06234567901234567,16.147530864197527,0)" xlink:href="#at"/><use transform="matrix(0.06234567901234567,0,0,0.06234567901234567,29.80123456790123,0)" xlink:href="#au"/><use transform="matrix(0.06234567901234567,0,0,0.06234567901234567,49.75185185185184,0)" xlink:href="#av"/><use transform="matrix(0.06234567901234567,0,0,0.06234567901234567,55.98641975308641,0)" xlink:href="#aw"/></g><path fill="#ae6188" d="M137-138c1-29-70-34-71-4 15 46 118 7 119 86 1 83-164 76-172 9l43-7c4 19 20 25 44 25 33 8 57-30 24-41C81-84 22-81 20-136c-2-80 154-74 161-7" id="ax"/><path fill="#ae6188" d="M185-48c-13 30-37 53-82 52C43 2 14-33 14-96s30-98 90-98c62 0 83 45 84 108H66c0 31 8 55 39 56 18 0 30-7 34-22zm-45-69c5-46-57-63-70-21-2 6-4 13-4 21h74" id="ay"/><path fill="#ae6188" d="M135-150c-39-12-60 13-60 57V0H25l-1-190h47c2 13-1 29 3 40 6-28 27-53 61-41v41" id="az"/><path fill="#ae6188" d="M128 0H69L1-190h53L99-40l48-150h52" id="aA"/><g id="b"><use transform="matrix(0.06234567901234567,0,0,0.06234567901234567,0,0)" xlink:href="#ax"/><use transform="matrix(0.06234567901234567,0,0,0.06234567901234567,12.469135802469133,0)" xlink:href="#ay"/><use transform="matrix(0.06234567901234567,0,0,0.06234567901234567,24.938271604938265,0)" xlink:href="#az"/><use transform="matrix(0.06234567901234567,0,0,0.06234567901234567,33.66666666666666,0)" xlink:href="#aA"/><use transform="matrix(0.06234567901234567,0,0,0.06234567901234567,46.13580246913579,0)" xlink:href="#ay"/><use transform="matrix(0.06234567901234567,0,0,0.06234567901234567,58.60493827160492,0)" xlink:href="#az"/></g><path fill="#fff" d="M117-194c89-4 53 116 60 194h-32v-121c0-31-8-49-39-48C34-167 62-67 57 0H25l-1-190h30c1 10-1 24 2 32 11-22 29-35 61-36" id="aB"/><path fill="#fff" d="M100-194c62-1 85 37 85 99 1 63-27 99-86 99S16-35 15-95c0-66 28-99 85-99zM99-20c44 1 53-31 53-75 0-43-8-75-51-75s-53 32-53 75 10 74 51 75" id="aC"/><path fill="#fff" d="M85-194c31 0 48 13 60 33l-1-100h32l1 261h-30c-2-10 0-23-3-31C134-8 116 4 85 4 32 4 16-35 15-94c0-66 23-100 70-100zm9 24c-40 0-46 34-46 75 0 40 6 74 45 74 42 0 51-32 51-76 0-42-9-74-50-73" id="aD"/><path fill="#fff" d="M100-194c63 0 86 42 84 106H49c0 40 14 67 53 68 26 1 43-12 49-29l28 8c-11 28-37 45-77 45C44 4 14-33 15-96c1-61 26-98 85-98zm52 81c6-60-76-77-97-28-3 7-6 17-6 28h103" id="aE"/><g id="c"><use transform="matrix(0.05,0,0,0.05,0,0)" xlink:href="#aB"/><use transform="matrix(0.05,0,0,0.05,10,0)" xlink:href="#aC"/><use transform="matrix(0.05,0,0,0.05,20,0)" xlink:href="#aD"/><use transform="matrix(0.05,0,0,0.05,30,0)" xlink:href="#aE"/></g><path fill="#fff" d="M126-127c33 6 58 20 58 59 0 88-139 92-164 29-3-8-5-16-6-25l32-3c6 27 21 44 54 44 32 0 52-15 52-46 0-38-36-46-79-43v-28c39 1 72-4 72-42 0-27-17-43-46-43-28 0-47 15-49 41l-32-3c6-42 35-63 81-64 48-1 79 21 79 65 0 36-21 52-52 59" id="aF"/><use transform="matrix(0.05,0,0,0.05,0,0)" xlink:href="#aF" id="d"/><path fill="#ae6188" d="M67-125c0 53 21 87 73 88 37 1 54-22 65-47l45 17C233-25 199 4 140 4 58 4 20-42 15-125 8-235 124-281 211-232c18 10 29 29 36 50l-46 12c-8-25-30-41-62-41-52 0-71 34-72 86" id="aG"/><path fill="#ae6188" d="M110-194c64 0 96 36 96 99 0 64-35 99-97 99-61 0-95-36-95-99 0-62 34-99 96-99zm-1 164c35 0 45-28 45-65 0-40-10-65-43-65-34 0-45 26-45 65 0 36 10 65 43 65" id="aH"/><path fill="#ae6188" d="M121-226c-27-7-43 5-38 36h38v33H83V0H34v-157H6v-33h28c-9-59 32-81 87-68v32" id="aI"/><path fill="#ae6188" d="M195-6C206 82 75 100 31 46c-4-6-6-13-8-21l49-6c3 16 16 24 34 25 40 0 42-37 40-79-11 22-30 35-61 35-53 0-70-43-70-97 0-56 18-96 73-97 30 0 46 14 59 34l2-30h47zm-90-29c32 0 41-27 41-63 0-35-9-62-40-62-32 0-39 29-40 63 0 36 9 62 39 62" id="aJ"/><g id="e"><use transform="matrix(0.06234567901234567,0,0,0.06234567901234567,0,0)" xlink:href="#aG"/><use transform="matrix(0.06234567901234567,0,0,0.06234567901234567,16.147530864197527,0)" xlink:href="#aH"/><use transform="matrix(0.06234567901234567,0,0,0.06234567901234567,29.80123456790123,0)" xlink:href="#aw"/><use transform="matrix(0.06234567901234567,0,0,0.06234567901234567,43.45493827160493,0)" xlink:href="#aI"/><use transform="matrix(0.06234567901234567,0,0,0.06234567901234567,50.874074074074066,0)" xlink:href="#av"/><use transform="matrix(0.06234567901234567,0,0,0.06234567901234567,57.10864197530863,0)" xlink:href="#aJ"/></g><g id="f"><use transform="matrix(0.06234567901234567,0,0,0.06234567901234567,0,0)" xlink:href="#ax"/><use transform="matrix(0.06234567901234567,0,0,0.06234567901234567,12.469135802469133,0)" xlink:href="#ay"/><use transform="matrix(0.06234567901234567,0,0,0.06234567901234567,24.938271604938265,0)" xlink:href="#az"/><use transform="matrix(0.06234567901234567,0,0,0.06234567901234567,33.66666666666666,0)" xlink:href="#aA"/><use transform="matrix(0.06234567901234567,0,0,0.06234567901234567,46.13580246913579,0)" xlink:href="#ay"/><use transform="matrix(0.06234567901234567,0,0,0.06234567901234567,58.60493827160492,0)" xlink:href="#az"/></g><path fill="#ae6188" d="M190-63c-7 42-38 67-86 67-59 0-84-38-90-98-12-110 154-137 174-36l-49 2c-2-19-15-32-35-32-30 0-35 28-38 64-6 74 65 87 74 30" id="aK"/><path fill="#ae6188" d="M25 0v-261h50V0H25" id="aL"/><path fill="#ae6188" d="M85 4C-2 5 27-109 22-190h50c7 57-23 150 33 157 60-5 35-97 40-157h50l1 190h-47c-2-12 1-28-3-38-12 25-28 42-61 42" id="aM"/><path fill="#ae6188" d="M115-3C79 11 28 4 28-45v-112H4v-33h27l15-45h31v45h36v33H77v99c-1 23 16 31 38 25v30" id="aN"/><g id="g"><use transform="matrix(0.06234567901234567,0,0,0.06234567901234567,0,0)" xlink:href="#aK"/><use transform="matrix(0.06234567901234567,0,0,0.06234567901234567,12.469135802469133,0)" xlink:href="#aL"/><use transform="matrix(0.06234567901234567,0,0,0.06234567901234567,18.7037037037037,0)" xlink:href="#aM"/><use transform="matrix(0.06234567901234567,0,0,0.06234567901234567,32.3574074074074,0)" xlink:href="#ax"/><use transform="matrix(0.06234567901234567,0,0,0.06234567901234567,44.82654320987653,0)" xlink:href="#aN"/><use transform="matrix(0.06234567901234567,0,0,0.06234567901234567,52.24567901234567,0)" xlink:href="#ay"/><use transform="matrix(0.06234567901234567,0,0,0.06234567901234567,64.7148148148148,0)" xlink:href="#az"/></g><path fill="#fff" d="M27 0v-27h64v-190l-56 39v-29l58-41h29v221h61V0H27" id="aO"/><use transform="matrix(0.05,0,0,0.05,0,0)" xlink:href="#aO" id="h"/><path fill="#fff" d="M101-251c82-7 93 87 43 132L82-64C71-53 59-42 53-27h129V0H18c2-99 128-94 128-182 0-28-16-43-45-43s-46 15-49 41l-32-3c6-41 34-60 81-64" id="aP"/><use transform="matrix(0.05,0,0,0.05,0,0)" xlink:href="#aP" id="i"/><path fill="#fff" d="M101-251c68 0 85 55 85 127S166 4 100 4C33 4 14-52 14-124c0-73 17-127 87-127zm-1 229c47 0 54-49 54-102s-4-102-53-102c-51 0-55 48-55 102 0 53 5 102 54 102" id="aQ"/><use transform="matrix(0.05,0,0,0.05,0,0)" xlink:href="#aQ" id="j"/><path fill="#3788a5" d="M140-251c80 0 125 45 125 126 0 70-33 111-92 124 6 28 34 38 68 31l-1 36C177 83 129 55 120 2 51-6 15-50 15-125c0-81 44-126 125-126zm-1 214c52 0 73-35 73-88 0-50-21-86-72-86-52 0-73 35-73 86s22 88 72 88" id="aR"/><path fill="#3788a5" d="M85 4C-2 5 27-109 22-190h50c7 57-23 150 33 157 60-5 35-97 40-157h50l1 190h-47c-2-12 1-28-3-38-12 25-28 42-61 42" id="aS"/><path fill="#3788a5" d="M185-48c-13 30-37 53-82 52C43 2 14-33 14-96s30-98 90-98c62 0 83 45 84 108H66c0 31 8 55 39 56 18 0 30-7 34-22zm-45-69c5-46-57-63-70-21-2 6-4 13-4 21h74" id="aT"/><path fill="#3788a5" d="M135-150c-39-12-60 13-60 57V0H25l-1-190h47c2 13-1 29 3 40 6-28 27-53 61-41v41" id="aU"/><path fill="#3788a5" d="M123 10C108 53 80 86 19 72V37c35 8 53-11 59-39L3-190h52l48 148c12-52 28-100 44-148h51" id="aV"/><g id="k"><use transform="matrix(0.06172839506172839,0,0,0.06172839506172839,0,0)" xlink:href="#aR"/><use transform="matrix(0.06172839506172839,0,0,0.06172839506172839,17.28395061728395,0)" xlink:href="#aS"/><use transform="matrix(0.06172839506172839,0,0,0.06172839506172839,30.80246913580247,0)" xlink:href="#aT"/><use transform="matrix(0.06172839506172839,0,0,0.06172839506172839,43.148148148148145,0)" xlink:href="#aU"/><use transform="matrix(0.06172839506172839,0,0,0.06172839506172839,51.79012345679012,0)" xlink:href="#aV"/></g><path fill="#3788a5" d="M190-63c-7 42-38 67-86 67-59 0-84-38-90-98-12-110 154-137 174-36l-49 2c-2-19-15-32-35-32-30 0-35 28-38 64-6 74 65 87 74 30" id="aW"/><path fill="#3788a5" d="M110-194c64 0 96 36 96 99 0 64-35 99-97 99-61 0-95-36-95-99 0-62 34-99 96-99zm-1 164c35 0 45-28 45-65 0-40-10-65-43-65-34 0-45 26-45 65 0 36 10 65 43 65" id="aX"/><path fill="#3788a5" d="M135-194c87-1 58 113 63 194h-50c-7-57 23-157-34-157-59 0-34 97-39 157H25l-1-190h47c2 12-1 28 3 38 12-26 28-41 61-42" id="aY"/><path fill="#3788a5" d="M115-3C79 11 28 4 28-45v-112H4v-33h27l15-45h31v45h36v33H77v99c-1 23 16 31 38 25v30" id="aZ"/><path fill="#3788a5" d="M133-34C117-15 103 5 69 4 32 3 11-16 11-54c-1-60 55-63 116-61 1-26-3-47-28-47-18 1-26 9-28 27l-52-2c7-38 36-58 82-57s74 22 75 68l1 82c-1 14 12 18 25 15v27c-30 8-71 5-69-32zm-48 3c29 0 43-24 42-57-32 0-66-3-65 30 0 17 8 27 23 27" id="ba"/><path fill="#3788a5" d="M25-224v-37h50v37H25zM25 0v-190h50V0H25" id="bb"/><g id="l"><use transform="matrix(0.06172839506172839,0,0,0.06172839506172839,0,0)" xlink:href="#aW"/><use transform="matrix(0.06172839506172839,0,0,0.06172839506172839,12.345679012345679,0)" xlink:href="#aX"/><use transform="matrix(0.06172839506172839,0,0,0.06172839506172839,25.864197530864196,0)" xlink:href="#aY"/><use transform="matrix(0.06172839506172839,0,0,0.06172839506172839,39.382716049382715,0)" xlink:href="#aZ"/><use transform="matrix(0.06172839506172839,0,0,0.06172839506172839,46.72839506172839,0)" xlink:href="#ba"/><use transform="matrix(0.06172839506172839,0,0,0.06172839506172839,59.07407407407407,0)" xlink:href="#bb"/><use transform="matrix(0.06172839506172839,0,0,0.06172839506172839,65.24691358024691,0)" xlink:href="#aY"/><use transform="matrix(0.06172839506172839,0,0,0.06172839506172839,78.76543209876543,0)" xlink:href="#aT"/><use transform="matrix(0.06172839506172839,0,0,0.06172839506172839,91.11111111111111,0)" xlink:href="#aU"/></g><path fill="#3788a5" d="M25 0v-261h50V0H25" id="bc"/><path fill="#3788a5" d="M137-138c1-29-70-34-71-4 15 46 118 7 119 86 1 83-164 76-172 9l43-7c4 19 20 25 44 25 33 8 57-30 24-41C81-84 22-81 20-136c-2-80 154-74 161-7" id="bd"/><g id="m"><use transform="matrix(0.06172839506172839,0,0,0.06172839506172839,0,0)" xlink:href="#aW"/><use transform="matrix(0.06172839506172839,0,0,0.06172839506172839,12.345679012345679,0)" xlink:href="#bc"/><use transform="matrix(0.06172839506172839,0,0,0.06172839506172839,18.51851851851852,0)" xlink:href="#aS"/><use transform="matrix(0.06172839506172839,0,0,0.06172839506172839,32.03703703703704,0)" xlink:href="#bd"/><use transform="matrix(0.06172839506172839,0,0,0.06172839506172839,44.382716049382715,0)" xlink:href="#aZ"/><use transform="matrix(0.06172839506172839,0,0,0.06172839506172839,51.72839506172839,0)" xlink:href="#aT"/><use transform="matrix(0.06172839506172839,0,0,0.06172839506172839,64.07407407407408,0)" xlink:href="#aU"/></g><path fill="#fff" d="M64 0c3-98 48-159 88-221H18v-27h164v26C143-157 98-101 97 0H64" id="be"/><use transform="matrix(0.05,0,0,0.05,0,0)" xlink:href="#be" id="n"/><path fill="#fff" d="M110-160c48 1 74 30 74 79 0 53-28 85-80 85-65 0-83-55-86-122-5-90 50-162 133-122 14 7 22 21 27 39l-31 6c-5-40-67-38-82-6-9 19-15 44-15 74 11-20 30-34 60-33zm-7 138c34 0 49-23 49-58s-16-56-50-56c-29 0-50 16-49 49 1 36 15 65 50 65" id="bf"/><use transform="matrix(0.05,0,0,0.05,0,0)" xlink:href="#bf" id="o"/><path fill="#3788a5" d="M76-208v77h127v40H76V0H24v-248h183v40H76" id="bg"/><path fill="#3788a5" d="M88-194c31-1 46 15 58 34l-1-101h50l1 261h-48c-2-10 0-23-3-31C134-8 116 4 84 4 32 4 16-41 15-95c0-56 19-97 73-99zm17 164c33 0 40-30 41-66 1-37-9-64-41-64s-38 30-39 65c0 43 13 65 39 65" id="bh"/><g id="p"><use transform="matrix(0.06172839506172839,0,0,0.06172839506172839,0,0)" xlink:href="#bg"/><use transform="matrix(0.06172839506172839,0,0,0.06172839506172839,13.518518518518517,0)" xlink:href="#aT"/><use transform="matrix(0.06172839506172839,0,0,0.06172839506172839,25.864197530864196,0)" xlink:href="#aT"/><use transform="matrix(0.06172839506172839,0,0,0.06172839506172839,38.20987654320987,0)" xlink:href="#bh"/></g><path fill="#fff" d="M54-142c48-35 137-8 131 61C196 18 31 33 14-55l32-4c7 23 22 37 52 37 35-1 51-22 54-58 4-55-73-65-99-34H22l8-134h141v27H59" id="bi"/><use transform="matrix(0.05,0,0,0.05,0,0)" xlink:href="#bi" id="q"/><path fill="#fff" d="M155-56V0h-30v-56H8v-25l114-167h33v167h35v25h-35zm-30-156c-27 46-58 90-88 131h88v-131" id="bj"/><use transform="matrix(0.05,0,0,0.05,0,0)" xlink:href="#bj" id="r"/><path fill="#1b6a3a" d="M67-125c0 53 21 87 73 88 37 1 54-22 65-47l45 17C233-25 199 4 140 4 58 4 20-42 15-125 8-235 124-281 211-232c18 10 29 29 36 50l-46 12c-8-25-30-41-62-41-52 0-71 34-72 86" id="bk"/><path fill="#1b6a3a" d="M110-194c64 0 96 36 96 99 0 64-35 99-97 99-61 0-95-36-95-99 0-62 34-99 96-99zm-1 164c35 0 45-28 45-65 0-40-10-65-43-65-34 0-45 26-45 65 0 36 10 65 43 65" id="bl"/><path fill="#1b6a3a" d="M135-194c87-1 58 113 63 194h-50c-7-57 23-157-34-157-59 0-34 97-39 157H25l-1-190h47c2 12-1 28 3 38 12-26 28-41 61-42" id="bm"/><path fill="#1b6a3a" d="M115-3C79 11 28 4 28-45v-112H4v-33h27l15-45h31v45h36v33H77v99c-1 23 16 31 38 25v30" id="bn"/><path fill="#1b6a3a" d="M185-48c-13 30-37 53-82 52C43 2 14-33 14-96s30-98 90-98c62 0 83 45 84 108H66c0 31 8 55 39 56 18 0 30-7 34-22zm-45-69c5-46-57-63-70-21-2 6-4 13-4 21h74" id="bo"/><g id="s"><use transform="matrix(0.06172839506172839,0,0,0.06172839506172839,0,0)" xlink:href="#bk"/><use transform="matrix(0.06172839506172839,0,0,0.06172839506172839,15.987654320987653,0)" xlink:href="#bl"/><use transform="matrix(0.06172839506172839,0,0,0.06172839506172839,29.50617283950617,0)" xlink:href="#bm"/><use transform="matrix(0.06172839506172839,0,0,0.06172839506172839,43.02469135802469,0)" xlink:href="#bn"/><use transform="matrix(0.06172839506172839,0,0,0.06172839506172839,50.37037037037037,0)" xlink:href="#bo"/><use transform="matrix(0.06172839506172839,0,0,0.06172839506172839,62.716049382716044,0)" xlink:href="#bm"/><use transform="matrix(0.06172839506172839,0,0,0.06172839506172839,76.23456790123456,0)" xlink:href="#bn"/></g><path fill="#1b6a3a" d="M190-63c-7 42-38 67-86 67-59 0-84-38-90-98-12-110 154-137 174-36l-49 2c-2-19-15-32-35-32-30 0-35 28-38 64-6 74 65 87 74 30" id="bp"/><path fill="#1b6a3a" d="M25 0v-261h50V0H25" id="bq"/><path fill="#1b6a3a" d="M85 4C-2 5 27-109 22-190h50c7 57-23 150 33 157 60-5 35-97 40-157h50l1 190h-47c-2-12 1-28-3-38-12 25-28 42-61 42" id="br"/><path fill="#1b6a3a" d="M137-138c1-29-70-34-71-4 15 46 118 7 119 86 1 83-164 76-172 9l43-7c4 19 20 25 44 25 33 8 57-30 24-41C81-84 22-81 20-136c-2-80 154-74 161-7" id="bs"/><path fill="#1b6a3a" d="M135-150c-39-12-60 13-60 57V0H25l-1-190h47c2 13-1 29 3 40 6-28 27-53 61-41v41" id="bt"/><g id="t"><use transform="matrix(0.06172839506172839,0,0,0.06172839506172839,0,0)" xlink:href="#bp"/><use transform="matrix(0.06172839506172839,0,0,0.06172839506172839,12.345679012345679,0)" xlink:href="#bq"/><use transform="matrix(0.06172839506172839,0,0,0.06172839506172839,18.51851851851852,0)" xlink:href="#br"/><use transform="matrix(0.06172839506172839,0,0,0.06172839506172839,32.03703703703704,0)" xlink:href="#bs"/><use transform="matrix(0.06172839506172839,0,0,0.06172839506172839,44.382716049382715,0)" xlink:href="#bn"/><use transform="matrix(0.06172839506172839,0,0,0.06172839506172839,51.72839506172839,0)" xlink:href="#bo"/><use transform="matrix(0.06172839506172839,0,0,0.06172839506172839,64.07407407407408,0)" xlink:href="#bt"/></g><path fill="#fff" d="M99-251c64 0 84 50 84 122C183-37 130 33 47-8c-14-7-20-23-25-40l30-5c6 39 69 39 84 7 9-19 16-44 16-74-10 22-31 35-62 35-49 0-73-33-73-83 0-54 28-83 82-83zm-1 141c31-1 51-18 51-49 0-36-14-67-51-67-34 0-49 23-49 58 0 34 15 58 49 58" id="bu"/><use transform="matrix(0.05,0,0,0.05,0,0)" xlink:href="#bu" id="u"/><path fill="#fff" d="M134-131c28 9 52 24 51 62-1 50-34 73-85 73S17-19 16-69c0-36 21-54 49-61-75-25-45-126 34-121 46 3 78 18 79 63 0 33-17 51-44 57zm-34-11c31 1 46-15 46-44 0-28-17-43-47-42-29 0-46 13-45 42 1 28 16 44 46 44zm1 122c35 0 51-18 51-52 0-30-18-46-53-46-33 0-51 17-51 47 0 34 19 51 53 51" id="bv"/><use transform="matrix(0.05,0,0,0.05,0,0)" xlink:href="#bv" id="v"/><path fill="#2e2f27" d="M96-169c-40 0-48 33-48 73s9 75 48 75c24 0 41-14 43-38l32 2c-6 37-31 61-74 61-59 0-76-41-82-99-10-93 101-131 147-64 4 7 5 14 7 22l-32 3c-4-21-16-35-41-35" id="bw"/><path fill="#2e2f27" d="M100-194c62-1 85 37 85 99 1 63-27 99-86 99S16-35 15-95c0-66 28-99 85-99zM99-20c44 1 53-31 53-75 0-43-8-75-51-75s-53 32-53 75 10 74 51 75" id="bx"/><path fill="#2e2f27" d="M117-194c89-4 53 116 60 194h-32v-121c0-31-8-49-39-48C34-167 62-67 57 0H25l-1-190h30c1 10-1 24 2 32 11-22 29-35 61-36" id="by"/><path fill="#2e2f27" d="M101-234c-31-9-42 10-38 44h38v23H63V0H32v-167H5v-23h27c-7-52 17-82 69-68v24" id="bz"/><path fill="#2e2f27" d="M24-231v-30h32v30H24zM24 0v-190h32V0H24" id="bA"/><path fill="#2e2f27" d="M177-190C167-65 218 103 67 71c-23-6-38-20-44-43l32-5c15 47 100 32 89-28v-30C133-14 115 1 83 1 29 1 15-40 15-95c0-56 16-97 71-98 29-1 48 16 59 35 1-10 0-23 2-32h30zM94-22c36 0 50-32 50-73 0-42-14-75-50-75-39 0-46 34-46 75s6 73 46 73" id="bB"/><g id="w"><use transform="matrix(0.05,0,0,0.05,0,0)" xlink:href="#bw"/><use transform="matrix(0.05,0,0,0.05,9,0)" xlink:href="#bx"/><use transform="matrix(0.05,0,0,0.05,19,0)" xlink:href="#by"/><use transform="matrix(0.05,0,0,0.05,29,0)" xlink:href="#bz"/><use transform="matrix(0.05,0,0,0.05,34,0)" xlink:href="#bA"/><use transform="matrix(0.05,0,0,0.05,37.95,0)" xlink:href="#bB"/></g><path fill="#2e2f27" d="M135-143c-3-34-86-38-87 0 15 53 115 12 119 90S17 21 10-45l28-5c4 36 97 45 98 0-10-56-113-15-118-90-4-57 82-63 122-42 12 7 21 19 24 35" id="bC"/><path fill="#2e2f27" d="M100-194c63 0 86 42 84 106H49c0 40 14 67 53 68 26 1 43-12 49-29l28 8c-11 28-37 45-77 45C44 4 14-33 15-96c1-61 26-98 85-98zm52 81c6-60-76-77-97-28-3 7-6 17-6 28h103" id="bD"/><path fill="#2e2f27" d="M114-163C36-179 61-72 57 0H25l-1-190h30c1 12-1 29 2 39 6-27 23-49 58-41v29" id="bE"/><path fill="#2e2f27" d="M108 0H70L1-190h34L89-25l56-165h34" id="bF"/><g id="x"><use transform="matrix(0.05,0,0,0.05,0,0)" xlink:href="#bC"/><use transform="matrix(0.05,0,0,0.05,9,0)" xlink:href="#bD"/><use transform="matrix(0.05,0,0,0.05,19,0)" xlink:href="#bE"/><use transform="matrix(0.05,0,0,0.05,24.95,0)" xlink:href="#bF"/><use transform="matrix(0.05,0,0,0.05,33.95,0)" xlink:href="#bD"/><use transform="matrix(0.05,0,0,0.05,43.95,0)" xlink:href="#bE"/></g><path fill="#7b7d68" d="M128 0H69L1-190h53L99-40l48-150h52" id="bG"/><path fill="#7b7d68" d="M185-48c-13 30-37 53-82 52C43 2 14-33 14-96s30-98 90-98c62 0 83 45 84 108H66c0 31 8 55 39 56 18 0 30-7 34-22zm-45-69c5-46-57-63-70-21-2 6-4 13-4 21h74" id="bH"/><path fill="#7b7d68" d="M137-138c1-29-70-34-71-4 15 46 118 7 119 86 1 83-164 76-172 9l43-7c4 19 20 25 44 25 33 8 57-30 24-41C81-84 22-81 20-136c-2-80 154-74 161-7" id="bI"/><path fill="#7b7d68" d="M135-194c53 0 70 44 70 98 0 56-19 98-73 100-31 1-45-17-59-34 3 33 2 69 2 105H25l-1-265h48c2 10 0 23 3 31 11-24 29-35 60-35zM114-30c33 0 39-31 40-66 0-38-9-64-40-64-56 0-55 130 0 130" id="bJ"/><path fill="#7b7d68" d="M133-34C117-15 103 5 69 4 32 3 11-16 11-54c-1-60 55-63 116-61 1-26-3-47-28-47-18 1-26 9-28 27l-52-2c7-38 36-58 82-57s74 22 75 68l1 82c-1 14 12 18 25 15v27c-30 8-71 5-69-32zm-48 3c29 0 43-24 42-57-32 0-66-3-65 30 0 17 8 27 23 27" id="bK"/><path fill="#7b7d68" d="M135-194c87-1 58 113 63 194h-50c-7-57 23-157-34-157-59 0-34 97-39 157H25l-1-190h47c2 12-1 28 3 38 12-26 28-41 61-42" id="bL"/><path fill="#7b7d68" d="M115-3C79 11 28 4 28-45v-112H4v-33h27l15-45h31v45h36v33H77v99c-1 23 16 31 38 25v30" id="bM"/><g id="y"><use transform="matrix(0.05925925925925927,0,0,0.05925925925925927,0,0)" xlink:href="#bG"/><use transform="matrix(0.05925925925925927,0,0,0.05925925925925927,11.851851851851853,0)" xlink:href="#bH"/><use transform="matrix(0.05925925925925927,0,0,0.05925925925925927,23.703703703703706,0)" xlink:href="#bI"/><use transform="matrix(0.05925925925925927,0,0,0.05925925925925927,35.55555555555556,0)" xlink:href="#bJ"/><use transform="matrix(0.05925925925925927,0,0,0.05925925925925927,48.53333333333334,0)" xlink:href="#bK"/><use transform="matrix(0.05925925925925927,0,0,0.05925925925925927,60.38518518518519,0)" xlink:href="#bL"/><use transform="matrix(0.05925925925925927,0,0,0.05925925925925927,73.36296296296297,0)" xlink:href="#bH"/><use transform="matrix(0.05925925925925927,0,0,0.05925925925925927,85.21481481481482,0)" xlink:href="#bM"/></g><path fill="#2e2f27" d="M33-154v-36h34v36H33zM33 0v-36h34V0H33" id="bN"/><g id="z"><use transform="matrix(0.05,0,0,0.05,0,0)" xlink:href="#bC"/><use transform="matrix(0.05,0,0,0.05,9,0)" xlink:href="#bD"/><use transform="matrix(0.05,0,0,0.05,19,0)" xlink:href="#bE"/><use transform="matrix(0.05,0,0,0.05,24.95,0)" xlink:href="#bF"/><use transform="matrix(0.05,0,0,0.05,33.95,0)" xlink:href="#bA"/><use transform="matrix(0.05,0,0,0.05,37.900000000000006,0)" xlink:href="#bw"/><use transform="matrix(0.05,0,0,0.05,46.900000000000006,0)" xlink:href="#bD"/><use transform="matrix(0.05,0,0,0.05,56.900000000000006,0)" xlink:href="#bC"/><use transform="matrix(0.05,0,0,0.05,65.9,0)" xlink:href="#bN"/></g><path fill="#2e2f27" d="M62-168c30 0 50 19 50 48S92-70 62-70c-29 0-48-21-48-50s20-48 48-48" id="bO"/><use transform="matrix(0.05,0,0,0.05,0,0)" xlink:href="#bO" id="A"/><path fill="#2e2f27" d="M24 0v-261h32V0H24" id="bP"/><path fill="#2e2f27" d="M115-194c53 0 69 39 70 98 0 66-23 100-70 100C84 3 66-7 56-30L54 0H23l1-261h32v101c10-23 28-34 59-34zm-8 174c40 0 45-34 45-75 0-40-5-75-45-74-42 0-51 32-51 76 0 43 10 73 51 73" id="bQ"/><path fill="#2e2f27" d="M143 0L79-87 56-68V0H24v-261h32v163l83-92h37l-77 82L181 0h-38" id="bR"/><g id="B"><use transform="matrix(0.05,0,0,0.05,0,0)" xlink:href="#bC"/><use transform="matrix(0.05,0,0,0.05,9,0)" xlink:href="#bP"/><use transform="matrix(0.05,0,0,0.05,12.949999999999998,0)" xlink:href="#bx"/><use transform="matrix(0.05,0,0,0.05,22.95,0)" xlink:href="#bQ"/><use transform="matrix(0.05,0,0,0.05,32.95,0)" xlink:href="#bE"/><use transform="matrix(0.05,0,0,0.05,38.900000000000006,0)" xlink:href="#bx"/><use transform="matrix(0.05,0,0,0.05,48.900000000000006,0)" xlink:href="#bR"/></g><path fill="#2e2f27" d="M84 4C-5 8 30-112 23-190h32v120c0 31 7 50 39 49 72-2 45-101 50-169h31l1 190h-30c-1-10 1-25-2-33-11 22-28 36-60 37" id="bS"/><path fill="#2e2f27" d="M59-47c-2 24 18 29 38 22v24C64 9 27 4 27-40v-127H5v-23h24l9-43h21v43h35v23H59v120" id="bT"/><g id="C"><use transform="matrix(0.05,0,0,0.05,0,0)" xlink:href="#bw"/><use transform="matrix(0.05,0,0,0.05,9,0)" xlink:href="#bP"/><use transform="matrix(0.05,0,0,0.05,12.949999999999998,0)" xlink:href="#bS"/><use transform="matrix(0.05,0,0,0.05,22.95,0)" xlink:href="#bC"/><use transform="matrix(0.05,0,0,0.05,31.950000000000003,0)" xlink:href="#bT"/><use transform="matrix(0.05,0,0,0.05,36.95,0)" xlink:href="#bD"/><use transform="matrix(0.05,0,0,0.05,46.95,0)" xlink:href="#bE"/><use transform="matrix(0.05,0,0,0.05,52.900000000000006,0)" xlink:href="#bw"/><use transform="matrix(0.05,0,0,0.05,61.900000000000006,0)" xlink:href="#bx"/><use transform="matrix(0.05,0,0,0.05,71.9,0)" xlink:href="#by"/><use transform="matrix(0.05,0,0,0.05,81.9,0)" xlink:href="#bT"/><use transform="matrix(0.05,0,0,0.05,86.9,0)" xlink:href="#bE"/><use transform="matrix(0.05,0,0,0.05,92.85000000000001,0)" xlink:href="#bx"/><use transform="matrix(0.05,0,0,0.05,102.85000000000001,0)" xlink:href="#bP"/><use transform="matrix(0.05,0,0,0.05,106.80000000000001,0)" xlink:href="#bP"/><use transform="matrix(0.05,0,0,0.05,110.75,0)" xlink:href="#bD"/><use transform="matrix(0.05,0,0,0.05,120.75,0)" xlink:href="#bE"/></g><path fill="#2e2f27" d="M27 0v-27h64v-190l-56 39v-29l58-41h29v221h61V0H27" id="bU"/><path fill="#2e2f27" d="M99-251c64 0 84 50 84 122C183-37 130 33 47-8c-14-7-20-23-25-40l30-5c6 39 69 39 84 7 9-19 16-44 16-74-10 22-31 35-62 35-49 0-73-33-73-83 0-54 28-83 82-83zm-1 141c31-1 51-18 51-49 0-36-14-67-51-67-34 0-49 23-49 58 0 34 15 58 49 58" id="bV"/><path fill="#2e2f27" d="M101-251c68 0 85 55 85 127S166 4 100 4C33 4 14-52 14-124c0-73 17-127 87-127zm-1 229c47 0 54-49 54-102s-4-102-53-102c-51 0-55 48-55 102 0 53 5 102 54 102" id="bW"/><path fill="#2e2f27" d="M64 0c3-98 48-159 88-221H18v-27h164v26C143-157 98-101 97 0H64" id="bX"/><g id="D"><use transform="matrix(0.05,0,0,0.05,0,0)" xlink:href="#bU"/><use transform="matrix(0.05,0,0,0.05,10,0)" xlink:href="#bV"/><use transform="matrix(0.05,0,0,0.05,20,0)" xlink:href="#bW"/><use transform="matrix(0.05,0,0,0.05,30,0)" xlink:href="#bX"/><use transform="matrix(0.05,0,0,0.05,40,0)" xlink:href="#bU"/></g><use transform="matrix(0.05,0,0,0.05,0,0)" xlink:href="#bN" id="E"/><g id="F"><use transform="matrix(0.05,0,0,0.05,0,0)" xlink:href="#bU"/><use transform="matrix(0.05,0,0,0.05,10,0)" xlink:href="#bV"/><use transform="matrix(0.05,0,0,0.05,20,0)" xlink:href="#bW"/><use transform="matrix(0.05,0,0,0.05,30,0)" xlink:href="#bX"/><use transform="matrix(0.05,0,0,0.05,40,0)" xlink:href="#bU"/></g><g id="G"><use transform="matrix(0.05,0,0,0.05,0,0)" xlink:href="#bU"/><use transform="matrix(0.05,0,0,0.05,10,0)" xlink:href="#bV"/><use transform="matrix(0.05,0,0,0.05,20,0)" xlink:href="#bU"/><use transform="matrix(0.05,0,0,0.05,30,0)" xlink:href="#bW"/><use transform="matrix(0.05,0,0,0.05,40,0)" xlink:href="#bW"/></g><g id="H"><use transform="matrix(0.05,0,0,0.05,0,0)" xlink:href="#bU"/><use transform="matrix(0.05,0,0,0.05,10,0)" xlink:href="#bV"/><use transform="matrix(0.05,0,0,0.05,20,0)" xlink:href="#bU"/><use transform="matrix(0.05,0,0,0.05,30,0)" xlink:href="#bW"/><use transform="matrix(0.05,0,0,0.05,40,0)" xlink:href="#bW"/></g><path fill="#2e2f27" d="M54-142c48-35 137-8 131 61C196 18 31 33 14-55l32-4c7 23 22 37 52 37 35-1 51-22 54-58 4-55-73-65-99-34H22l8-134h141v27H59" id="bY"/><g id="I"><use transform="matrix(0.05,0,0,0.05,0,0)" xlink:href="#bU"/><use transform="matrix(0.05,0,0,0.05,10,0)" xlink:href="#bV"/><use transform="matrix(0.05,0,0,0.05,20,0)" xlink:href="#bW"/><use transform="matrix(0.05,0,0,0.05,30,0)" xlink:href="#bY"/><use transform="matrix(0.05,0,0,0.05,40,0)" xlink:href="#bW"/></g><g id="J"><use transform="matrix(0.05,0,0,0.05,0,0)" xlink:href="#bU"/><use transform="matrix(0.05,0,0,0.05,10,0)" xlink:href="#bV"/><use transform="matrix(0.05,0,0,0.05,20,0)" xlink:href="#bW"/><use transform="matrix(0.05,0,0,0.05,30,0)" xlink:href="#bY"/><use transform="matrix(0.05,0,0,0.05,40,0)" xlink:href="#bW"/></g><path fill="#2e2f27" d="M101-251c82-7 93 87 43 132L82-64C71-53 59-42 53-27h129V0H18c2-99 128-94 128-182 0-28-16-43-45-43s-46 15-49 41l-32-3c6-41 34-60 81-64" id="bZ"/><g id="K"><use transform="matrix(0.05,0,0,0.05,0,0)" xlink:href="#bZ"/><use transform="matrix(0.05,0,0,0.05,10,0)" xlink:href="#bW"/><use transform="matrix(0.05,0,0,0.05,20,0)" xlink:href="#bW"/><use transform="matrix(0.05,0,0,0.05,30,0)" xlink:href="#bV"/><use transform="matrix(0.05,0,0,0.05,40,0)" xlink:href="#bZ"/></g><g id="L"><use transform="matrix(0.05,0,0,0.05,0,0)" xlink:href="#bU"/><use transform="matrix(0.05,0,0,0.05,10,0)" xlink:href="#bV"/><use transform="matrix(0.05,0,0,0.05,20,0)" xlink:href="#bW"/><use transform="matrix(0.05,0,0,0.05,30,0)" xlink:href="#bV"/><use transform="matrix(0.05,0,0,0.05,40,0)" xlink:href="#bZ"/></g><g id="M"><use transform="matrix(0.05,0,0,0.05,0,0)" xlink:href="#bU"/><use transform="matrix(0.05,0,0,0.05,10,0)" xlink:href="#bV"/><use transform="matrix(0.05,0,0,0.05,20,0)" xlink:href="#bW"/><use transform="matrix(0.05,0,0,0.05,30,0)" xlink:href="#bX"/><use transform="matrix(0.05,0,0,0.05,40,0)" xlink:href="#bZ"/></g><g id="N"><use transform="matrix(0.05,0,0,0.05,0,0)" xlink:href="#bU"/><use transform="matrix(0.05,0,0,0.05,10,0)" xlink:href="#bV"/><use transform="matrix(0.05,0,0,0.05,20,0)" xlink:href="#bU"/><use transform="matrix(0.05,0,0,0.05,30,0)" xlink:href="#bW"/><use transform="matrix(0.05,0,0,0.05,40,0)" xlink:href="#bU"/></g><g id="O"><use transform="matrix(0.05,0,0,0.05,0,0)" xlink:href="#bU"/><use transform="matrix(0.05,0,0,0.05,10,0)" xlink:href="#bV"/><use transform="matrix(0.05,0,0,0.05,20,0)" xlink:href="#bW"/><use transform="matrix(0.05,0,0,0.05,30,0)" xlink:href="#bY"/><use transform="matrix(0.05,0,0,0.05,40,0)" xlink:href="#bU"/></g><path fill="#2e2f27" d="M126-127c33 6 58 20 58 59 0 88-139 92-164 29-3-8-5-16-6-25l32-3c6 27 21 44 54 44 32 0 52-15 52-46 0-38-36-46-79-43v-28c39 1 72-4 72-42 0-27-17-43-46-43-28 0-47 15-49 41l-32-3c6-42 35-63 81-64 48-1 79 21 79 65 0 36-21 52-52 59" id="ca"/><g id="P"><use transform="matrix(0.05,0,0,0.05,0,0)" xlink:href="#bZ"/><use transform="matrix(0.05,0,0,0.05,10,0)" xlink:href="#bW"/><use transform="matrix(0.05,0,0,0.05,20,0)" xlink:href="#bW"/><use transform="matrix(0.05,0,0,0.05,30,0)" xlink:href="#bV"/><use transform="matrix(0.05,0,0,0.05,40,0)" xlink:href="#ca"/></g><g id="Q"><use transform="matrix(0.05,0,0,0.05,0,0)" xlink:href="#bU"/><use transform="matrix(0.05,0,0,0.05,10,0)" xlink:href="#bV"/><use transform="matrix(0.05,0,0,0.05,20,0)" xlink:href="#bW"/><use transform="matrix(0.05,0,0,0.05,30,0)" xlink:href="#bX"/><use transform="matrix(0.05,0,0,0.05,40,0)" xlink:href="#ca"/></g><g id="R"><use transform="matrix(0.05,0,0,0.05,0,0)" xlink:href="#bU"/><use transform="matrix(0.05,0,0,0.05,10,0)" xlink:href="#bV"/><use transform="matrix(0.05,0,0,0.05,20,0)" xlink:href="#bU"/><use transform="matrix(0.05,0,0,0.05,30,0)" xlink:href="#bW"/><use transform="matrix(0.05,0,0,0.05,40,0)" xlink:href="#bZ"/></g><g id="S"><use transform="matrix(0.05,0,0,0.05,0,0)" xlink:href="#bU"/><use transform="matrix(0.05,0,0,0.05,10,0)" xlink:href="#bV"/><use transform="matrix(0.05,0,0,0.05,20,0)" xlink:href="#bW"/><use transform="matrix(0.05,0,0,0.05,30,0)" xlink:href="#bY"/><use transform="matrix(0.05,0,0,0.05,40,0)" xlink:href="#bZ"/></g><path fill="#2e2f27" d="M155-56V0h-30v-56H8v-25l114-167h33v167h35v25h-35zm-30-156c-27 46-58 90-88 131h88v-131" id="cb"/><g id="T"><use transform="matrix(0.05,0,0,0.05,0,0)" xlink:href="#bZ"/><use transform="matrix(0.05,0,0,0.05,10,0)" xlink:href="#bW"/><use transform="matrix(0.05,0,0,0.05,20,0)" xlink:href="#bW"/><use transform="matrix(0.05,0,0,0.05,30,0)" xlink:href="#bV"/><use transform="matrix(0.05,0,0,0.05,40,0)" xlink:href="#cb"/></g><g id="U"><use transform="matrix(0.05,0,0,0.05,0,0)" xlink:href="#bC"/><use transform="matrix(0.05,0,0,0.05,9,0)" xlink:href="#bD"/><use transform="matrix(0.05,0,0,0.05,19,0)" xlink:href="#bE"/><use transform="matrix(0.05,0,0,0.05,24.95,0)" xlink:href="#bF"/><use transform="matrix(0.05,0,0,0.05,33.95,0)" xlink:href="#bA"/><use transform="matrix(0.05,0,0,0.05,37.900000000000006,0)" xlink:href="#bw"/><use transform="matrix(0.05,0,0,0.05,46.900000000000006,0)" xlink:href="#bD"/><use transform="matrix(0.05,0,0,0.05,56.900000000000006,0)" xlink:href="#bC"/><use transform="matrix(0.05,0,0,0.05,65.9,0)" xlink:href="#bN"/></g><path fill="#2e2f27" d="M141-36C126-15 110 5 73 4 37 3 15-17 15-53c-1-64 63-63 125-63 3-35-9-54-41-54-24 1-41 7-42 31l-33-3c5-37 33-52 76-52 45 0 72 20 72 64v82c-1 20 7 32 28 27v20c-31 9-61-2-59-35zM48-53c0 20 12 33 32 33 41-3 63-29 60-74-43 2-92-5-92 41" id="cc"/><g id="V"><use transform="matrix(0.05,0,0,0.05,0,0)" xlink:href="#bw"/><use transform="matrix(0.05,0,0,0.05,9,0)" xlink:href="#bx"/><use transform="matrix(0.05,0,0,0.05,19,0)" xlink:href="#by"/><use transform="matrix(0.05,0,0,0.05,29,0)" xlink:href="#bT"/><use transform="matrix(0.05,0,0,0.05,34,0)" xlink:href="#cc"/><use transform="matrix(0.05,0,0,0.05,44,0)" xlink:href="#bA"/><use transform="matrix(0.05,0,0,0.05,47.95,0)" xlink:href="#by"/><use transform="matrix(0.05,0,0,0.05,57.95,0)" xlink:href="#bD"/><use transform="matrix(0.05,0,0,0.05,67.95,0)" xlink:href="#bE"/></g><use transform="matrix(0.05,0,0,0.05,0,0)" xlink:href="#bW" id="W"/><path fill="#2e2f27" d="M134-131c28 9 52 24 51 62-1 50-34 73-85 73S17-19 16-69c0-36 21-54 49-61-75-25-45-126 34-121 46 3 78 18 79 63 0 33-17 51-44 57zm-34-11c31 1 46-15 46-44 0-28-17-43-47-42-29 0-46 13-45 42 1 28 16 44 46 44zm1 122c35 0 51-18 51-52 0-30-18-46-53-46-33 0-51 17-51 47 0 34 19 51 53 51" id="cd"/><g id="X"><use transform="matrix(0.05,0,0,0.05,0,0)" xlink:href="#cd"/><use transform="matrix(0.05,0,0,0.05,10,0)" xlink:href="#bW"/><use transform="matrix(0.05,0,0,0.05,20,0)" xlink:href="#cd"/><use transform="matrix(0.05,0,0,0.05,30,0)" xlink:href="#bW"/></g><g id="Y"><use transform="matrix(0.05,0,0,0.05,0,0)" xlink:href="#cd"/><use transform="matrix(0.05,0,0,0.05,10,0)" xlink:href="#bW"/><use transform="matrix(0.05,0,0,0.05,20,0)" xlink:href="#cd"/><use transform="matrix(0.05,0,0,0.05,30,0)" xlink:href="#bW"/></g><path fill="#2e2f27" d="M110-160c48 1 74 30 74 79 0 53-28 85-80 85-65 0-83-55-86-122-5-90 50-162 133-122 14 7 22 21 27 39l-31 6c-5-40-67-38-82-6-9 19-15 44-15 74 11-20 30-34 60-33zm-7 138c34 0 49-23 49-58s-16-56-50-56c-29 0-50 16-49 49 1 36 15 65 50 65" id="ce"/><g id="Z"><use transform="matrix(0.05,0,0,0.05,0,0)" xlink:href="#bZ"/><use transform="matrix(0.05,0,0,0.05,10,0)" xlink:href="#bW"/><use transform="matrix(0.05,0,0,0.05,20,0)" xlink:href="#bW"/><use transform="matrix(0.05,0,0,0.05,30,0)" xlink:href="#bV"/><use transform="matrix(0.05,0,0,0.05,40,0)" xlink:href="#ce"/></g><use transform="matrix(0.05,0,0,0.05,0,0)" xlink:href="#bU" id="aa"/><g id="ab"><use transform="matrix(0.05,0,0,0.05,0,0)" xlink:href="#cd"/><use transform="matrix(0.05,0,0,0.05,10,0)" xlink:href="#bW"/><use transform="matrix(0.05,0,0,0.05,20,0)" xlink:href="#cd"/><use transform="matrix(0.05,0,0,0.05,30,0)" xlink:href="#bU"/></g><g id="ac"><use transform="matrix(0.05,0,0,0.05,0,0)" xlink:href="#bZ"/><use transform="matrix(0.05,0,0,0.05,10,0)" xlink:href="#bW"/><use transform="matrix(0.05,0,0,0.05,20,0)" xlink:href="#bW"/><use transform="matrix(0.05,0,0,0.05,30,0)" xlink:href="#bV"/><use transform="matrix(0.05,0,0,0.05,40,0)" xlink:href="#bX"/></g><g id="ad"><use transform="matrix(0.05,0,0,0.05,0,0)" xlink:href="#bw"/><use transform="matrix(0.05,0,0,0.05,9,0)" xlink:href="#bx"/><use transform="matrix(0.05,0,0,0.05,19,0)" xlink:href="#by"/><use transform="matrix(0.05,0,0,0.05,29,0)" xlink:href="#bT"/><use transform="matrix(0.05,0,0,0.05,34,0)" xlink:href="#bD"/><use transform="matrix(0.05,0,0,0.05,44,0)" xlink:href="#by"/><use transform="matrix(0.05,0,0,0.05,54,0)" xlink:href="#bT"/></g><path fill="#2e2f27" d="M85-194c31 0 48 13 60 33l-1-100h32l1 261h-30c-2-10 0-23-3-31C134-8 116 4 85 4 32 4 16-35 15-94c0-66 23-100 70-100zm9 24c-40 0-46 34-46 75 0 40 6 74 45 74 42 0 51-32 51-76 0-42-9-74-50-73" id="cf"/><g id="ae"><use transform="matrix(0.05,0,0,0.05,0,0)" xlink:href="#by"/><use transform="matrix(0.05,0,0,0.05,10,0)" xlink:href="#bx"/><use transform="matrix(0.05,0,0,0.05,20,0)" xlink:href="#cf"/><use transform="matrix(0.05,0,0,0.05,30,0)" xlink:href="#bD"/></g><g id="af"><use transform="matrix(0.05,0,0,0.05,0,0)" xlink:href="#bU"/><use transform="matrix(0.05,0,0,0.05,10,0)" xlink:href="#bV"/><use transform="matrix(0.05,0,0,0.05,20,0)" xlink:href="#bU"/><use transform="matrix(0.05,0,0,0.05,30,0)" xlink:href="#bW"/><use transform="matrix(0.05,0,0,0.05,40,0)" xlink:href="#bX"/></g><g id="ag"><use transform="matrix(0.05,0,0,0.05,0,0)" xlink:href="#bU"/><use transform="matrix(0.05,0,0,0.05,10,0)" xlink:href="#bV"/><use transform="matrix(0.05,0,0,0.05,20,0)" xlink:href="#bU"/><use transform="matrix(0.05,0,0,0.05,30,0)" xlink:href="#bW"/><use transform="matrix(0.05,0,0,0.05,40,0)" xlink:href="#bX"/></g><g id="ah"><use transform="matrix(0.05,0,0,0.05,0,0)" xlink:href="#bZ"/><use transform="matrix(0.05,0,0,0.05,10,0)" xlink:href="#bW"/><use transform="matrix(0.05,0,0,0.05,20,0)" xlink:href="#bU"/><use transform="matrix(0.05,0,0,0.05,30,0)" xlink:href="#bW"/><use transform="matrix(0.05,0,0,0.05,40,0)" xlink:href="#bW"/></g><g id="ai"><use transform="matrix(0.05,0,0,0.05,0,0)" xlink:href="#bU"/><use transform="matrix(0.05,0,0,0.05,10,0)" xlink:href="#bV"/><use transform="matrix(0.05,0,0,0.05,20,0)" xlink:href="#bU"/><use transform="matrix(0.05,0,0,0.05,30,0)" xlink:href="#bW"/><use transform="matrix(0.05,0,0,0.05,40,0)" xlink:href="#cd"/></g><g id="aj"><use transform="matrix(0.05,0,0,0.05,0,0)" xlink:href="#bZ"/><use transform="matrix(0.05,0,0,0.05,10,0)" xlink:href="#bW"/><use transform="matrix(0.05,0,0,0.05,20,0)" xlink:href="#bU"/><use transform="matrix(0.05,0,0,0.05,30,0)" xlink:href="#bW"/><use transform="matrix(0.05,0,0,0.05,40,0)" xlink:href="#bU"/></g><g id="ak"><use transform="matrix(0.05,0,0,0.05,0,0)" xlink:href="#bP"/><use transform="matrix(0.05,0,0,0.05,3.95,0)" xlink:href="#bx"/><use transform="matrix(0.05,0,0,0.05,13.949999999999998,0)" xlink:href="#bB"/></g><g id="al"><use transform="matrix(0.05,0,0,0.05,0,0)" xlink:href="#bZ"/><use transform="matrix(0.05,0,0,0.05,10,0)" xlink:href="#bW"/><use transform="matrix(0.05,0,0,0.05,20,0)" xlink:href="#bW"/><use transform="matrix(0.05,0,0,0.05,30,0)" xlink:href="#bV"/><use transform="matrix(0.05,0,0,0.05,40,0)" xlink:href="#bY"/></g><g id="am"><use transform="matrix(0.05,0,0,0.05,0,0)" xlink:href="#cd"/><use transform="matrix(0.05,0,0,0.05,10,0)" xlink:href="#bW"/><use transform="matrix(0.05,0,0,0.05,20,0)" xlink:href="#cd"/><use transform="matrix(0.05,0,0,0.05,30,0)" xlink:href="#bZ"/></g><g id="an"><use transform="matrix(0.05,0,0,0.05,0,0)" xlink:href="#bZ"/><use transform="matrix(0.05,0,0,0.05,10,0)" xlink:href="#bW"/><use transform="matrix(0.05,0,0,0.05,20,0)" xlink:href="#bW"/><use transform="matrix(0.05,0,0,0.05,30,0)" xlink:href="#bV"/><use transform="matrix(0.05,0,0,0.05,40,0)" xlink:href="#cd"/></g><g id="ao"><use transform="matrix(0.05,0,0,0.05,0,0)" xlink:href="#cd"/><use transform="matrix(0.05,0,0,0.05,10,0)" xlink:href="#bW"/><use transform="matrix(0.05,0,0,0.05,20,0)" xlink:href="#cd"/><use transform="matrix(0.05,0,0,0.05,30,0)" xlink:href="#ca"/></g><g id="ap"><use transform="matrix(0.05,0,0,0.05,0,0)" xlink:href="#bZ"/><use transform="matrix(0.05,0,0,0.05,10,0)" xlink:href="#bW"/><use transform="matrix(0.05,0,0,0.05,20,0)" xlink:href="#bW"/><use transform="matrix(0.05,0,0,0.05,30,0)" xlink:href="#bV"/><use transform="matrix(0.05,0,0,0.05,40,0)" xlink:href="#bV"/></g><g id="aq"><use transform="matrix(0.05,0,0,0.05,0,0)" xlink:href="#bU"/><use transform="matrix(0.05,0,0,0.05,10,0)" xlink:href="#bV"/><use transform="matrix(0.05,0,0,0.05,20,0)" xlink:href="#bW"/><use transform="matrix(0.05,0,0,0.05,30,0)" xlink:href="#bV"/><use transform="matrix(0.05,0,0,0.05,40,0)" xlink:href="#cd"/></g><g id="ar"><use transform="matrix(0.05,0,0,0.05,0,0)" xlink:href="#bU"/><use transform="matrix(0.05,0,0,0.05,10,0)" xlink:href="#bV"/><use transform="matrix(0.05,0,0,0.05,20,0)" xlink:href="#bW"/><use transform="matrix(0.05,0,0,0.05,30,0)" xlink:href="#bV"/><use transform="matrix(0.05,0,0,0.05,40,0)" xlink:href="#cd"/></g></defs></g></svg>