<svg xmlns="http://www.w3.org/2000/svg" xmlns:xlink="http://www.w3.org/1999/xlink" xmlns:lucid="lucid" width="968" height="543"><g transform="translate(1761.5 21.5)" lucid:page-tab-id="0_0"><path d="M-2000 0h1500v500h-1500z" fill="#fff"/><path d="M-1080 126a6 6 0 0 1 6-6h248a6 6 0 0 1 6 6v148a6 6 0 0 1-6 6h-248a6 6 0 0 1-6-6zM-1400 126a6 6 0 0 1 6-6h248a6 6 0 0 1 6 6v148a6 6 0 0 1-6 6h-248a6 6 0 0 1-6-6z" stroke="#000" stroke-opacity="0" stroke-width="3" fill="#b7e2f1"/><path d="M-1240 346a6 6 0 0 1 6-6h248a6 6 0 0 1 6 6v148a6 6 0 0 1-6 6h-248a6 6 0 0 1-6-6z" stroke="#000" stroke-opacity="0" stroke-width="3" fill="#baedce"/><path d="M-1240 346a6 6 0 0 1 6-6h208a6 6 0 0 1 6 6v28a6 6 0 0 1-6 6h-208a6 6 0 0 1-6-6z" stroke="#000" stroke-opacity="0" stroke-width="3" fill="#fff" fill-opacity="0"/><use xlink:href="#a" transform="matrix(1,0,0,1,-1235,345) translate(0 14.399999999999967)"/><use xlink:href="#b" transform="matrix(1,0,0,1,-1235,345) translate(72.69999999999983 14.399999999999967)"/><path d="M-1400 126a6 6 0 0 1 6-6h208a6 6 0 0 1 6 6v28a6 6 0 0 1-6 6h-208a6 6 0 0 1-6-6z" stroke="#000" stroke-opacity="0" stroke-width="3" fill="#fff" fill-opacity="0"/><use xlink:href="#c" transform="matrix(1,0,0,1,-1395,125) translate(0 14.399999999999967)"/><use xlink:href="#d" transform="matrix(1,0,0,1,-1395,125) translate(46.89999999999989 14.399999999999967)"/><use xlink:href="#e" transform="matrix(1,0,0,1,-1395,125) translate(132.6999999999997 14.399999999999967)"/><path d="M-1270 281v23a6 6 0 0 0 6 6h148a6 6 0 0 1 6 6v5.5" stroke="#7b7d68" stroke-width="2" fill="none"/><path d="M-1269 281.03h-2V280h2z" stroke="#7b7d68" stroke-width=".05" fill="#7b7d68"/><path d="M-1110 336.76l-4.63-14.26h9.27z" stroke="#7b7d68" stroke-width="2" fill="#7b7d68"/><path d="M-1220 386a6 6 0 0 1 6-6h88a6 6 0 0 1 6 6v68a6 6 0 0 1-6 6h-88a6 6 0 0 1-6-6z" stroke="#000" stroke-opacity="0" stroke-width="3" fill="#1b6a3a"/><use xlink:href="#f" transform="matrix(1,0,0,1,-1208,392) translate(10.5 31.9)"/><use xlink:href="#g" transform="matrix(1,0,0,1,-1208,392) translate(55.5 31.9)"/><path d="M-1380 166a6 6 0 0 1 6-6h88a6 6 0 0 1 6 6v68a6 6 0 0 1-6 6h-88a6 6 0 0 1-6-6z" stroke="#000" stroke-opacity="0" stroke-width="3" fill="#3788a5"/><use xlink:href="#f" transform="matrix(1,0,0,1,-1368,172) translate(10.5 31.9)"/><use xlink:href="#h" transform="matrix(1,0,0,1,-1368,172) translate(55.5 31.9)"/><path d="M-1270 75.8v25.7" stroke="#7b7d68" stroke-width="2" fill="none"/><path d="M-1269 75.83h-2V74.8h2z" stroke="#7b7d68" stroke-width=".05" fill="#7b7d68"/><path d="M-1270 116.76l-4.63-14.26h9.27z" stroke="#7b7d68" stroke-width="2" fill="#7b7d68"/><path d="M-1410 6a6 6 0 0 1 6-6h268a6 6 0 0 1 6 6v62.8a6 6 0 0 1-6 6h-268a6 6 0 0 1-6-6z" stroke="#000" stroke-opacity="0" stroke-width="3" fill="#fff" fill-opacity="0"/><use xlink:href="#i" transform="matrix(1,0,0,1,-1405,5) translate(88.15000000000012 24.556249999999963)"/><use xlink:href="#j" transform="matrix(1,0,0,1,-1405,5) translate(23.750000000000284 46.15624999999991)"/><use xlink:href="#k" transform="matrix(1,0,0,1,-1405,5) translate(55.650000000000205 46.15624999999991)"/><use xlink:href="#l" transform="matrix(1,0,0,1,-1405,5) translate(65.65000000000018 46.15624999999991)"/><use xlink:href="#m" transform="matrix(1,0,0,1,-1405,5) translate(98.50000000000009 46.15624999999991)"/><use xlink:href="#n" transform="matrix(1,0,0,1,-1405,5) translate(108.50000000000006 46.15624999999991)"/><use xlink:href="#m" transform="matrix(1,0,0,1,-1405,5) translate(172.2999999999999 46.15624999999991)"/><use xlink:href="#o" transform="matrix(1,0,0,1,-1405,5) translate(182.29999999999987 46.15624999999991)"/><path d="M-1600 46a6 6 0 0 1 6-6h128a6 6 0 0 1 6 6v448a6 6 0 0 1-6 6h-128a6 6 0 0 1-6-6z" stroke="#dbb8ca" stroke-width="2" fill="#dbb8ca"/><path d="M-1600 46a6 6 0 0 1 6-6h128a6 6 0 0 1 6 6v22.8a6 6 0 0 1-6 6h-128a6 6 0 0 1-6-6z" stroke="#000" stroke-opacity="0" stroke-width="3" fill="#fff" fill-opacity="0"/><use xlink:href="#p" transform="matrix(1,0,0,1,-1595,45) translate(0 14.399999999999967)"/><use xlink:href="#q" transform="matrix(1,0,0,1,-1595,45) translate(60.84999999999985 14.399999999999967)"/><path d="M-1080 126a6 6 0 0 1 6-6h228a6 6 0 0 1 6 6v28a6 6 0 0 1-6 6h-228a6 6 0 0 1-6-6z" stroke="#000" stroke-opacity="0" stroke-width="3" fill="#fff" fill-opacity="0"/><use xlink:href="#r" transform="matrix(1,0,0,1,-1075,125) translate(0 14.399999999999967)"/><use xlink:href="#d" transform="matrix(1,0,0,1,-1075,125) translate(56.94999999999987 14.399999999999967)"/><use xlink:href="#e" transform="matrix(1,0,0,1,-1075,125) translate(142.74999999999966 14.399999999999967)"/><path d="M-1085 6a6 6 0 0 1 6-6h258a6 6 0 0 1 6 6v62.8a6 6 0 0 1-6 6h-258a6 6 0 0 1-6-6z" stroke="#000" stroke-opacity="0" stroke-width="3" fill="#fff" fill-opacity="0"/><use xlink:href="#s" transform="matrix(1,0,0,1,-1080,5) translate(101.05000000000007 24.556249999999963)"/><use xlink:href="#t" transform="matrix(1,0,0,1,-1080,5) translate(13.200000000000301 46.15624999999991)"/><use xlink:href="#u" transform="matrix(1,0,0,1,-1080,5) translate(81.15000000000012 46.15624999999991)"/><use xlink:href="#v" transform="matrix(1,0,0,1,-1080,5) translate(124.10000000000001 46.15624999999991)"/><use xlink:href="#w" transform="matrix(1,0,0,1,-1080,5) translate(160.99999999999991 46.15624999999991)"/><path d="M-950 75.8v25.7" stroke="#7b7d68" stroke-width="2" fill="none"/><path d="M-949 75.83h-2V74.8h2z" stroke="#7b7d68" stroke-width=".05" fill="#7b7d68"/><path d="M-950 116.76l-4.63-14.26h9.26z" stroke="#7b7d68" stroke-width="2" fill="#7b7d68"/><path d="M-950 281v23a6 6 0 0 1-6 6h-148a6 6 0 0 0-6 6v5.5" stroke="#7b7d68" stroke-width="2" fill="none"/><path d="M-949 281.03h-2V280h2z" stroke="#7b7d68" stroke-width=".05" fill="#7b7d68"/><path d="M-1110 336.76l-4.63-14.26h9.27z" stroke="#7b7d68" stroke-width="2" fill="#7b7d68"/><path d="M-1260 166a6 6 0 0 1 6-6h88a6 6 0 0 1 6 6v68a6 6 0 0 1-6 6h-88a6 6 0 0 1-6-6z" stroke="#000" stroke-opacity="0" stroke-width="3" fill="#3788a5"/><use xlink:href="#f" transform="matrix(1,0,0,1,-1248,172) translate(10.5 31.9)"/><use xlink:href="#x" transform="matrix(1,0,0,1,-1248,172) translate(55.5 31.9)"/><path d="M-1060 166a6 6 0 0 1 6-6h88a6 6 0 0 1 6 6v68a6 6 0 0 1-6 6h-88a6 6 0 0 1-6-6z" stroke="#000" stroke-opacity="0" stroke-width="3" fill="#3788a5"/><g><use xlink:href="#f" transform="matrix(1,0,0,1,-1048,172) translate(10.5 31.9)"/><use xlink:href="#y" transform="matrix(1,0,0,1,-1048,172) translate(55.5 31.9)"/></g><path d="M-940 166a6 6 0 0 1 6-6h88a6 6 0 0 1 6 6v68a6 6 0 0 1-6 6h-88a6 6 0 0 1-6-6z" stroke="#000" stroke-opacity="0" stroke-width="3" fill="#3788a5"/><g><use xlink:href="#f" transform="matrix(1,0,0,1,-928,172) translate(10.5 31.9)"/><use xlink:href="#z" transform="matrix(1,0,0,1,-928,172) translate(55.5 31.9)"/></g><path d="M-1100 386a6 6 0 0 1 6-6h88a6 6 0 0 1 6 6v68a6 6 0 0 1-6 6h-88a6 6 0 0 1-6-6z" stroke="#000" stroke-opacity="0" stroke-width="3" fill="#1b6a3a"/><g><use xlink:href="#f" transform="matrix(1,0,0,1,-1088,392) translate(10.5 31.9)"/><use xlink:href="#A" transform="matrix(1,0,0,1,-1088,392) translate(55.5 31.9)"/></g><path d="M-1580 86a6 6 0 0 1 6-6h88a6 6 0 0 1 6 6v68a6 6 0 0 1-6 6h-88a6 6 0 0 1-6-6z" stroke="#000" stroke-opacity="0" stroke-width="3" fill="#ae6188"/><g><use xlink:href="#B" transform="matrix(1,0,0,1,-1568,92) translate(18.5 31.9)"/><use xlink:href="#C" transform="matrix(1,0,0,1,-1568,92) translate(47.5 31.9)"/></g><path d="M-1580 186a6 6 0 0 1 6-6h88a6 6 0 0 1 6 6v68a6 6 0 0 1-6 6h-88a6 6 0 0 1-6-6z" stroke="#000" stroke-opacity="0" stroke-width="3" fill="#ae6188"/><g><use xlink:href="#B" transform="matrix(1,0,0,1,-1568,192) translate(18.5 31.9)"/><use xlink:href="#D" transform="matrix(1,0,0,1,-1568,192) translate(47.5 31.9)"/></g><path d="M-1580 286a6 6 0 0 1 6-6h88a6 6 0 0 1 6 6v68a6 6 0 0 1-6 6h-88a6 6 0 0 1-6-6z" stroke="#000" stroke-opacity="0" stroke-width="3" fill="#ae6188"/><g><use xlink:href="#B" transform="matrix(1,0,0,1,-1568,292) translate(18.5 31.9)"/><use xlink:href="#E" transform="matrix(1,0,0,1,-1568,292) translate(47.5 31.9)"/></g><path d="M-1580 406a6 6 0 0 1 6-6h88a6 6 0 0 1 6 6v68a6 6 0 0 1-6 6h-88a6 6 0 0 1-6-6z" stroke="#000" stroke-opacity="0" stroke-width="3" fill="#ae6188"/><g><use xlink:href="#F" transform="matrix(1,0,0,1,-1568,412) translate(14.049999999999997 31.9)"/></g><path d="M-1659 270h39.5" stroke="#7b7d68" stroke-width="2" fill="none"/><path d="M-1658.97 271h-1.03v-2h1.03z" stroke="#7b7d68" stroke-width=".05" fill="#7b7d68"/><path d="M-1604.24 270l-14.26 4.63v-9.26z" stroke="#7b7d68" stroke-width="2" fill="#7b7d68"/><path d="M-1740 238.6a6 6 0 0 1 6-6h68a6 6 0 0 1 6 6v62.8a6 6 0 0 1-6 6h-68a6 6 0 0 1-6-6z" stroke="#000" stroke-opacity="0" stroke-width="3" fill="#fff" fill-opacity="0"/><g><use xlink:href="#G" transform="matrix(1,0,0,1,-1735,237.60000000000008) translate(5.075000000000081 36.74374999999996)"/></g><defs><path fill="#1b6a3a" d="M67-125c0 53 21 87 73 88 37 1 54-22 65-47l45 17C233-25 199 4 140 4 58 4 20-42 15-125 8-235 124-281 211-232c18 10 29 29 36 50l-46 12c-8-25-30-41-62-41-52 0-71 34-72 86" id="H"/><path fill="#1b6a3a" d="M110-194c64 0 96 36 96 99 0 64-35 99-97 99-61 0-95-36-95-99 0-62 34-99 96-99zm-1 164c35 0 45-28 45-65 0-40-10-65-43-65-34 0-45 26-45 65 0 36 10 65 43 65" id="I"/><path fill="#1b6a3a" d="M135-194c87-1 58 113 63 194h-50c-7-57 23-157-34-157-59 0-34 97-39 157H25l-1-190h47c2 12-1 28 3 38 12-26 28-41 61-42" id="J"/><path fill="#1b6a3a" d="M115-3C79 11 28 4 28-45v-112H4v-33h27l15-45h31v45h36v33H77v99c-1 23 16 31 38 25v30" id="K"/><path fill="#1b6a3a" d="M185-48c-13 30-37 53-82 52C43 2 14-33 14-96s30-98 90-98c62 0 83 45 84 108H66c0 31 8 55 39 56 18 0 30-7 34-22zm-45-69c5-46-57-63-70-21-2 6-4 13-4 21h74" id="L"/><g id="a"><use transform="matrix(0.049999999999999885,0,0,0.049999999999999885,0,0)" xlink:href="#H"/><use transform="matrix(0.049999999999999885,0,0,0.049999999999999885,12.94999999999997,0)" xlink:href="#I"/><use transform="matrix(0.049999999999999885,0,0,0.049999999999999885,23.899999999999945,0)" xlink:href="#J"/><use transform="matrix(0.049999999999999885,0,0,0.049999999999999885,34.84999999999992,0)" xlink:href="#K"/><use transform="matrix(0.049999999999999885,0,0,0.049999999999999885,40.79999999999991,0)" xlink:href="#L"/><use transform="matrix(0.049999999999999885,0,0,0.049999999999999885,50.79999999999989,0)" xlink:href="#J"/><use transform="matrix(0.049999999999999885,0,0,0.049999999999999885,61.74999999999987,0)" xlink:href="#K"/></g><path fill="#1b6a3a" d="M190-63c-7 42-38 67-86 67-59 0-84-38-90-98-12-110 154-137 174-36l-49 2c-2-19-15-32-35-32-30 0-35 28-38 64-6 74 65 87 74 30" id="M"/><path fill="#1b6a3a" d="M25 0v-261h50V0H25" id="N"/><path fill="#1b6a3a" d="M85 4C-2 5 27-109 22-190h50c7 57-23 150 33 157 60-5 35-97 40-157h50l1 190h-47c-2-12 1-28-3-38-12 25-28 42-61 42" id="O"/><path fill="#1b6a3a" d="M137-138c1-29-70-34-71-4 15 46 118 7 119 86 1 83-164 76-172 9l43-7c4 19 20 25 44 25 33 8 57-30 24-41C81-84 22-81 20-136c-2-80 154-74 161-7" id="P"/><path fill="#1b6a3a" d="M135-150c-39-12-60 13-60 57V0H25l-1-190h47c2 13-1 29 3 40 6-28 27-53 61-41v41" id="Q"/><g id="b"><use transform="matrix(0.049999999999999885,0,0,0.049999999999999885,0,0)" xlink:href="#M"/><use transform="matrix(0.049999999999999885,0,0,0.049999999999999885,9.999999999999977,0)" xlink:href="#N"/><use transform="matrix(0.049999999999999885,0,0,0.049999999999999885,14.999999999999966,0)" xlink:href="#O"/><use transform="matrix(0.049999999999999885,0,0,0.049999999999999885,25.94999999999994,0)" xlink:href="#P"/><use transform="matrix(0.049999999999999885,0,0,0.049999999999999885,35.94999999999992,0)" xlink:href="#K"/><use transform="matrix(0.049999999999999885,0,0,0.049999999999999885,41.899999999999906,0)" xlink:href="#L"/><use transform="matrix(0.049999999999999885,0,0,0.049999999999999885,51.89999999999988,0)" xlink:href="#Q"/></g><path fill="#3788a5" d="M76-208v77h127v40H76V0H24v-248h183v40H76" id="R"/><path fill="#3788a5" d="M185-48c-13 30-37 53-82 52C43 2 14-33 14-96s30-98 90-98c62 0 83 45 84 108H66c0 31 8 55 39 56 18 0 30-7 34-22zm-45-69c5-46-57-63-70-21-2 6-4 13-4 21h74" id="S"/><path fill="#3788a5" d="M88-194c31-1 46 15 58 34l-1-101h50l1 261h-48c-2-10 0-23-3-31C134-8 116 4 84 4 32 4 16-41 15-95c0-56 19-97 73-99zm17 164c33 0 40-30 41-66 1-37-9-64-41-64s-38 30-39 65c0 43 13 65 39 65" id="T"/><g id="c"><use transform="matrix(0.049999999999999885,0,0,0.049999999999999885,0,0)" xlink:href="#R"/><use transform="matrix(0.049999999999999885,0,0,0.049999999999999885,10.949999999999974,0)" xlink:href="#S"/><use transform="matrix(0.049999999999999885,0,0,0.049999999999999885,20.949999999999953,0)" xlink:href="#S"/><use transform="matrix(0.049999999999999885,0,0,0.049999999999999885,30.949999999999935,0)" xlink:href="#T"/></g><path fill="#3788a5" d="M190-63c-7 42-38 67-86 67-59 0-84-38-90-98-12-110 154-137 174-36l-49 2c-2-19-15-32-35-32-30 0-35 28-38 64-6 74 65 87 74 30" id="U"/><path fill="#3788a5" d="M110-194c64 0 96 36 96 99 0 64-35 99-97 99-61 0-95-36-95-99 0-62 34-99 96-99zm-1 164c35 0 45-28 45-65 0-40-10-65-43-65-34 0-45 26-45 65 0 36 10 65 43 65" id="V"/><path fill="#3788a5" d="M135-194c87-1 58 113 63 194h-50c-7-57 23-157-34-157-59 0-34 97-39 157H25l-1-190h47c2 12-1 28 3 38 12-26 28-41 61-42" id="W"/><path fill="#3788a5" d="M115-3C79 11 28 4 28-45v-112H4v-33h27l15-45h31v45h36v33H77v99c-1 23 16 31 38 25v30" id="X"/><path fill="#3788a5" d="M133-34C117-15 103 5 69 4 32 3 11-16 11-54c-1-60 55-63 116-61 1-26-3-47-28-47-18 1-26 9-28 27l-52-2c7-38 36-58 82-57s74 22 75 68l1 82c-1 14 12 18 25 15v27c-30 8-71 5-69-32zm-48 3c29 0 43-24 42-57-32 0-66-3-65 30 0 17 8 27 23 27" id="Y"/><path fill="#3788a5" d="M25-224v-37h50v37H25zM25 0v-190h50V0H25" id="Z"/><path fill="#3788a5" d="M135-150c-39-12-60 13-60 57V0H25l-1-190h47c2 13-1 29 3 40 6-28 27-53 61-41v41" id="aa"/><g id="d"><use transform="matrix(0.049999999999999885,0,0,0.049999999999999885,0,0)" xlink:href="#U"/><use transform="matrix(0.049999999999999885,0,0,0.049999999999999885,9.999999999999977,0)" xlink:href="#V"/><use transform="matrix(0.049999999999999885,0,0,0.049999999999999885,20.949999999999953,0)" xlink:href="#W"/><use transform="matrix(0.049999999999999885,0,0,0.049999999999999885,31.899999999999928,0)" xlink:href="#X"/><use transform="matrix(0.049999999999999885,0,0,0.049999999999999885,37.849999999999916,0)" xlink:href="#Y"/><use transform="matrix(0.049999999999999885,0,0,0.049999999999999885,47.849999999999895,0)" xlink:href="#Z"/><use transform="matrix(0.049999999999999885,0,0,0.049999999999999885,52.84999999999988,0)" xlink:href="#W"/><use transform="matrix(0.049999999999999885,0,0,0.049999999999999885,63.799999999999855,0)" xlink:href="#S"/><use transform="matrix(0.049999999999999885,0,0,0.049999999999999885,73.79999999999983,0)" xlink:href="#aa"/></g><path fill="#3788a5" d="M25 0v-261h50V0H25" id="ab"/><path fill="#3788a5" d="M85 4C-2 5 27-109 22-190h50c7 57-23 150 33 157 60-5 35-97 40-157h50l1 190h-47c-2-12 1-28-3-38-12 25-28 42-61 42" id="ac"/><path fill="#3788a5" d="M137-138c1-29-70-34-71-4 15 46 118 7 119 86 1 83-164 76-172 9l43-7c4 19 20 25 44 25 33 8 57-30 24-41C81-84 22-81 20-136c-2-80 154-74 161-7" id="ad"/><g id="e"><use transform="matrix(0.049999999999999885,0,0,0.049999999999999885,0,0)" xlink:href="#U"/><use transform="matrix(0.049999999999999885,0,0,0.049999999999999885,9.999999999999977,0)" xlink:href="#ab"/><use transform="matrix(0.049999999999999885,0,0,0.049999999999999885,14.999999999999966,0)" xlink:href="#ac"/><use transform="matrix(0.049999999999999885,0,0,0.049999999999999885,25.94999999999994,0)" xlink:href="#ad"/><use transform="matrix(0.049999999999999885,0,0,0.049999999999999885,35.94999999999992,0)" xlink:href="#X"/><use transform="matrix(0.049999999999999885,0,0,0.049999999999999885,41.899999999999906,0)" xlink:href="#S"/><use transform="matrix(0.049999999999999885,0,0,0.049999999999999885,51.89999999999988,0)" xlink:href="#aa"/></g><path fill="#fff" d="M117-194c89-4 53 116 60 194h-32v-121c0-31-8-49-39-48C34-167 62-67 57 0H25l-1-190h30c1 10-1 24 2 32 11-22 29-35 61-36" id="ae"/><path fill="#fff" d="M100-194c62-1 85 37 85 99 1 63-27 99-86 99S16-35 15-95c0-66 28-99 85-99zM99-20c44 1 53-31 53-75 0-43-8-75-51-75s-53 32-53 75 10 74 51 75" id="af"/><path fill="#fff" d="M85-194c31 0 48 13 60 33l-1-100h32l1 261h-30c-2-10 0-23-3-31C134-8 116 4 85 4 32 4 16-35 15-94c0-66 23-100 70-100zm9 24c-40 0-46 34-46 75 0 40 6 74 45 74 42 0 51-32 51-76 0-42-9-74-50-73" id="ag"/><path fill="#fff" d="M100-194c63 0 86 42 84 106H49c0 40 14 67 53 68 26 1 43-12 49-29l28 8c-11 28-37 45-77 45C44 4 14-33 15-96c1-61 26-98 85-98zm52 81c6-60-76-77-97-28-3 7-6 17-6 28h103" id="ah"/><g id="f"><use transform="matrix(0.05,0,0,0.05,0,0)" xlink:href="#ae"/><use transform="matrix(0.05,0,0,0.05,10,0)" xlink:href="#af"/><use transform="matrix(0.05,0,0,0.05,20,0)" xlink:href="#ag"/><use transform="matrix(0.05,0,0,0.05,30,0)" xlink:href="#ah"/></g><path fill="#fff" d="M134-131c28 9 52 24 51 62-1 50-34 73-85 73S17-19 16-69c0-36 21-54 49-61-75-25-45-126 34-121 46 3 78 18 79 63 0 33-17 51-44 57zm-34-11c31 1 46-15 46-44 0-28-17-43-47-42-29 0-46 13-45 42 1 28 16 44 46 44zm1 122c35 0 51-18 51-52 0-30-18-46-53-46-33 0-51 17-51 47 0 34 19 51 53 51" id="ai"/><use transform="matrix(0.05,0,0,0.05,0,0)" xlink:href="#ai" id="g"/><path fill="#fff" d="M155-56V0h-30v-56H8v-25l114-167h33v167h35v25h-35zm-30-156c-27 46-58 90-88 131h88v-131" id="aj"/><use transform="matrix(0.05,0,0,0.05,0,0)" xlink:href="#aj" id="h"/><path fill="#2e2f27" d="M24-248c120-7 223 5 221 122C244-46 201 0 124 0H24v-248zM76-40c74 7 117-18 117-86 0-67-45-88-117-82v168" id="ak"/><path fill="#2e2f27" d="M110-194c64 0 96 36 96 99 0 64-35 99-97 99-61 0-95-36-95-99 0-62 34-99 96-99zm-1 164c35 0 45-28 45-65 0-40-10-65-43-65-34 0-45 26-45 65 0 36 10 65 43 65" id="al"/><path fill="#2e2f27" d="M190-63c-7 42-38 67-86 67-59 0-84-38-90-98-12-110 154-137 174-36l-49 2c-2-19-15-32-35-32-30 0-35 28-38 64-6 74 65 87 74 30" id="am"/><path fill="#2e2f27" d="M85 4C-2 5 27-109 22-190h50c7 57-23 150 33 157 60-5 35-97 40-157h50l1 190h-47c-2-12 1-28-3-38-12 25-28 42-61 42" id="an"/><path fill="#2e2f27" d="M220-157c-53 9-28 100-34 157h-49v-107c1-27-5-49-29-50C55-147 81-57 75 0H25l-1-190h47c2 12-1 28 3 38 10-53 101-56 108 0 13-22 24-43 59-42 82 1 51 116 57 194h-49v-107c-1-25-5-48-29-50" id="ao"/><path fill="#2e2f27" d="M185-48c-13 30-37 53-82 52C43 2 14-33 14-96s30-98 90-98c62 0 83 45 84 108H66c0 31 8 55 39 56 18 0 30-7 34-22zm-45-69c5-46-57-63-70-21-2 6-4 13-4 21h74" id="ap"/><path fill="#2e2f27" d="M135-194c87-1 58 113 63 194h-50c-7-57 23-157-34-157-59 0-34 97-39 157H25l-1-190h47c2 12-1 28 3 38 12-26 28-41 61-42" id="aq"/><path fill="#2e2f27" d="M115-3C79 11 28 4 28-45v-112H4v-33h27l15-45h31v45h36v33H77v99c-1 23 16 31 38 25v30" id="ar"/><path fill="#2e2f27" d="M35-132v-50h50v50H35zM35 0v-49h50V0H35" id="as"/><g id="i"><use transform="matrix(0.04999999999999987,0,0,0.04999999999999987,0,0)" xlink:href="#ak"/><use transform="matrix(0.04999999999999987,0,0,0.04999999999999987,12.949999999999967,0)" xlink:href="#al"/><use transform="matrix(0.04999999999999987,0,0,0.04999999999999987,23.899999999999938,0)" xlink:href="#am"/><use transform="matrix(0.04999999999999987,0,0,0.04999999999999987,33.89999999999991,0)" xlink:href="#an"/><use transform="matrix(0.04999999999999987,0,0,0.04999999999999987,44.84999999999988,0)" xlink:href="#ao"/><use transform="matrix(0.04999999999999987,0,0,0.04999999999999987,60.849999999999845,0)" xlink:href="#ap"/><use transform="matrix(0.04999999999999987,0,0,0.04999999999999987,70.84999999999981,0)" xlink:href="#aq"/><use transform="matrix(0.04999999999999987,0,0,0.04999999999999987,81.79999999999978,0)" xlink:href="#ar"/><use transform="matrix(0.04999999999999987,0,0,0.04999999999999987,87.74999999999977,0)" xlink:href="#as"/></g><path fill="#2e2f27" d="M195-6C206 82 75 100 31 46c-4-6-6-13-8-21l49-6c3 16 16 24 34 25 40 0 42-37 40-79-11 22-30 35-61 35-53 0-70-43-70-97 0-56 18-96 73-97 30 0 46 14 59 34l2-30h47zm-90-29c32 0 41-27 41-63 0-35-9-62-40-62-32 0-39 29-40 63 0 36 9 62 39 62" id="at"/><g id="j"><use transform="matrix(0.04999999999999987,0,0,0.04999999999999987,0,0)" xlink:href="#at"/><use transform="matrix(0.04999999999999987,0,0,0.04999999999999987,10.94999999999997,0)" xlink:href="#ap"/><use transform="matrix(0.04999999999999987,0,0,0.04999999999999987,20.949999999999946,0)" xlink:href="#ar"/></g><path fill="#2e2f27" d="M4 7l51-268h42L46 7H4" id="au"/><use transform="matrix(0.04999999999999987,0,0,0.04999999999999987,0,0)" xlink:href="#au" id="k"/><path fill="#2e2f27" d="M135-194c53 0 70 44 70 98 0 56-19 98-73 100-31 1-45-17-59-34 3 33 2 69 2 105H25l-1-265h48c2 10 0 23 3 31 11-24 29-35 60-35zM114-30c33 0 39-31 40-66 0-38-9-64-40-64-56 0-55 130 0 130" id="av"/><g id="l"><use transform="matrix(0.04999999999999987,0,0,0.04999999999999987,0,0)" xlink:href="#av"/><use transform="matrix(0.04999999999999987,0,0,0.04999999999999987,10.94999999999997,0)" xlink:href="#an"/><use transform="matrix(0.04999999999999987,0,0,0.04999999999999987,21.89999999999994,0)" xlink:href="#ar"/></g><use transform="matrix(0.04999999999999987,0,0,0.04999999999999987,0,0)" xlink:href="#au" id="m"/><path fill="#2e2f27" d="M88-194c31-1 46 15 58 34l-1-101h50l1 261h-48c-2-10 0-23-3-31C134-8 116 4 84 4 32 4 16-41 15-95c0-56 19-97 73-99zm17 164c33 0 40-30 41-66 1-37-9-64-41-64s-38 30-39 65c0 43 13 65 39 65" id="aw"/><path fill="#2e2f27" d="M133-34C117-15 103 5 69 4 32 3 11-16 11-54c-1-60 55-63 116-61 1-26-3-47-28-47-18 1-26 9-28 27l-52-2c7-38 36-58 82-57s74 22 75 68l1 82c-1 14 12 18 25 15v27c-30 8-71 5-69-32zm-48 3c29 0 43-24 42-57-32 0-66-3-65 30 0 17 8 27 23 27" id="ax"/><g id="n"><use transform="matrix(0.04999999999999987,0,0,0.04999999999999987,0,0)" xlink:href="#an"/><use transform="matrix(0.04999999999999987,0,0,0.04999999999999987,10.94999999999997,0)" xlink:href="#av"/><use transform="matrix(0.04999999999999987,0,0,0.04999999999999987,21.89999999999994,0)" xlink:href="#aw"/><use transform="matrix(0.04999999999999987,0,0,0.04999999999999987,32.84999999999991,0)" xlink:href="#ax"/><use transform="matrix(0.04999999999999987,0,0,0.04999999999999987,42.84999999999988,0)" xlink:href="#ar"/><use transform="matrix(0.04999999999999987,0,0,0.04999999999999987,48.79999999999987,0)" xlink:href="#ap"/></g><path fill="#2e2f27" d="M135-150c-39-12-60 13-60 57V0H25l-1-190h47c2 13-1 29 3 40 6-28 27-53 61-41v41" id="ay"/><path fill="#2e2f27" d="M128 0H69L1-190h53L99-40l48-150h52" id="az"/><g id="o"><use transform="matrix(0.04999999999999987,0,0,0.04999999999999987,0,0)" xlink:href="#ay"/><use transform="matrix(0.04999999999999987,0,0,0.04999999999999987,6.999999999999982,0)" xlink:href="#ap"/><use transform="matrix(0.04999999999999987,0,0,0.04999999999999987,16.999999999999957,0)" xlink:href="#ao"/><use transform="matrix(0.04999999999999987,0,0,0.04999999999999987,32.999999999999915,0)" xlink:href="#al"/><use transform="matrix(0.04999999999999987,0,0,0.04999999999999987,43.94999999999989,0)" xlink:href="#az"/><use transform="matrix(0.04999999999999987,0,0,0.04999999999999987,53.94999999999986,0)" xlink:href="#ap"/></g><path fill="#ae6188" d="M199 0l-22-63H83L61 0H9l90-248h61L250 0h-51zm-33-102l-36-108c-10 38-24 72-36 108h72" id="aA"/><path fill="#ae6188" d="M88-194c31-1 46 15 58 34l-1-101h50l1 261h-48c-2-10 0-23-3-31C134-8 116 4 84 4 32 4 16-41 15-95c0-56 19-97 73-99zm17 164c33 0 40-30 41-66 1-37-9-64-41-64s-38 30-39 65c0 43 13 65 39 65" id="aB"/><path fill="#ae6188" d="M220-157c-53 9-28 100-34 157h-49v-107c1-27-5-49-29-50C55-147 81-57 75 0H25l-1-190h47c2 12-1 28 3 38 10-53 101-56 108 0 13-22 24-43 59-42 82 1 51 116 57 194h-49v-107c-1-25-5-48-29-50" id="aC"/><path fill="#ae6188" d="M25-224v-37h50v37H25zM25 0v-190h50V0H25" id="aD"/><path fill="#ae6188" d="M135-194c87-1 58 113 63 194h-50c-7-57 23-157-34-157-59 0-34 97-39 157H25l-1-190h47c2 12-1 28 3 38 12-26 28-41 61-42" id="aE"/><g id="p"><use transform="matrix(0.049999999999999885,0,0,0.049999999999999885,0,0)" xlink:href="#aA"/><use transform="matrix(0.049999999999999885,0,0,0.049999999999999885,12.94999999999997,0)" xlink:href="#aB"/><use transform="matrix(0.049999999999999885,0,0,0.049999999999999885,23.899999999999945,0)" xlink:href="#aC"/><use transform="matrix(0.049999999999999885,0,0,0.049999999999999885,39.899999999999906,0)" xlink:href="#aD"/><use transform="matrix(0.049999999999999885,0,0,0.049999999999999885,44.89999999999989,0)" xlink:href="#aE"/></g><path fill="#ae6188" d="M190-63c-7 42-38 67-86 67-59 0-84-38-90-98-12-110 154-137 174-36l-49 2c-2-19-15-32-35-32-30 0-35 28-38 64-6 74 65 87 74 30" id="aF"/><path fill="#ae6188" d="M25 0v-261h50V0H25" id="aG"/><path fill="#ae6188" d="M85 4C-2 5 27-109 22-190h50c7 57-23 150 33 157 60-5 35-97 40-157h50l1 190h-47c-2-12 1-28-3-38-12 25-28 42-61 42" id="aH"/><path fill="#ae6188" d="M137-138c1-29-70-34-71-4 15 46 118 7 119 86 1 83-164 76-172 9l43-7c4 19 20 25 44 25 33 8 57-30 24-41C81-84 22-81 20-136c-2-80 154-74 161-7" id="aI"/><path fill="#ae6188" d="M115-3C79 11 28 4 28-45v-112H4v-33h27l15-45h31v45h36v33H77v99c-1 23 16 31 38 25v30" id="aJ"/><path fill="#ae6188" d="M185-48c-13 30-37 53-82 52C43 2 14-33 14-96s30-98 90-98c62 0 83 45 84 108H66c0 31 8 55 39 56 18 0 30-7 34-22zm-45-69c5-46-57-63-70-21-2 6-4 13-4 21h74" id="aK"/><path fill="#ae6188" d="M135-150c-39-12-60 13-60 57V0H25l-1-190h47c2 13-1 29 3 40 6-28 27-53 61-41v41" id="aL"/><g id="q"><use transform="matrix(0.049999999999999885,0,0,0.049999999999999885,0,0)" xlink:href="#aF"/><use transform="matrix(0.049999999999999885,0,0,0.049999999999999885,9.999999999999977,0)" xlink:href="#aG"/><use transform="matrix(0.049999999999999885,0,0,0.049999999999999885,14.999999999999966,0)" xlink:href="#aH"/><use transform="matrix(0.049999999999999885,0,0,0.049999999999999885,25.94999999999994,0)" xlink:href="#aI"/><use transform="matrix(0.049999999999999885,0,0,0.049999999999999885,35.94999999999992,0)" xlink:href="#aJ"/><use transform="matrix(0.049999999999999885,0,0,0.049999999999999885,41.899999999999906,0)" xlink:href="#aK"/><use transform="matrix(0.049999999999999885,0,0,0.049999999999999885,51.89999999999988,0)" xlink:href="#aL"/></g><path fill="#3788a5" d="M140-251c80 0 125 45 125 126 0 70-33 111-92 124 6 28 34 38 68 31l-1 36C177 83 129 55 120 2 51-6 15-50 15-125c0-81 44-126 125-126zm-1 214c52 0 73-35 73-88 0-50-21-86-72-86-52 0-73 35-73 86s22 88 72 88" id="aM"/><path fill="#3788a5" d="M123 10C108 53 80 86 19 72V37c35 8 53-11 59-39L3-190h52l48 148c12-52 28-100 44-148h51" id="aN"/><g id="r"><use transform="matrix(0.049999999999999885,0,0,0.049999999999999885,0,0)" xlink:href="#aM"/><use transform="matrix(0.049999999999999885,0,0,0.049999999999999885,13.999999999999968,0)" xlink:href="#ac"/><use transform="matrix(0.049999999999999885,0,0,0.049999999999999885,24.949999999999942,0)" xlink:href="#S"/><use transform="matrix(0.049999999999999885,0,0,0.049999999999999885,34.94999999999992,0)" xlink:href="#aa"/><use transform="matrix(0.049999999999999885,0,0,0.049999999999999885,41.9499999999999,0)" xlink:href="#aN"/></g><path fill="#2e2f27" d="M140-251c80 0 125 45 125 126 0 70-33 111-92 124 6 28 34 38 68 31l-1 36C177 83 129 55 120 2 51-6 15-50 15-125c0-81 44-126 125-126zm-1 214c52 0 73-35 73-88 0-50-21-86-72-86-52 0-73 35-73 86s22 88 72 88" id="aO"/><path fill="#2e2f27" d="M123 10C108 53 80 86 19 72V37c35 8 53-11 59-39L3-190h52l48 148c12-52 28-100 44-148h51" id="aP"/><g id="s"><use transform="matrix(0.04999999999999987,0,0,0.04999999999999987,0,0)" xlink:href="#aO"/><use transform="matrix(0.04999999999999987,0,0,0.04999999999999987,13.999999999999964,0)" xlink:href="#an"/><use transform="matrix(0.04999999999999987,0,0,0.04999999999999987,24.949999999999935,0)" xlink:href="#ap"/><use transform="matrix(0.04999999999999987,0,0,0.04999999999999987,34.94999999999991,0)" xlink:href="#ay"/><use transform="matrix(0.04999999999999987,0,0,0.04999999999999987,41.94999999999989,0)" xlink:href="#aP"/><use transform="matrix(0.04999999999999987,0,0,0.04999999999999987,51.94999999999987,0)" xlink:href="#as"/></g><path fill="#2e2f27" d="M137-138c1-29-70-34-71-4 15 46 118 7 119 86 1 83-164 76-172 9l43-7c4 19 20 25 44 25 33 8 57-30 24-41C81-84 22-81 20-136c-2-80 154-74 161-7" id="aQ"/><path fill="#2e2f27" d="M114-157C55-157 80-60 75 0H25v-261h50l-1 109c12-26 28-41 61-42 86-1 58 113 63 194h-50c-7-57 23-157-34-157" id="aR"/><path fill="#2e2f27" d="M76-54c-1 42 2 86-19 110H24C36 42 46 24 48 0H25v-54h51" id="aS"/><g id="t"><use transform="matrix(0.04999999999999987,0,0,0.04999999999999987,0,0)" xlink:href="#aQ"/><use transform="matrix(0.04999999999999987,0,0,0.04999999999999987,9.999999999999973,0)" xlink:href="#ap"/><use transform="matrix(0.04999999999999987,0,0,0.04999999999999987,19.999999999999947,0)" xlink:href="#ax"/><use transform="matrix(0.04999999999999987,0,0,0.04999999999999987,29.999999999999922,0)" xlink:href="#ay"/><use transform="matrix(0.04999999999999987,0,0,0.04999999999999987,36.9999999999999,0)" xlink:href="#am"/><use transform="matrix(0.04999999999999987,0,0,0.04999999999999987,46.99999999999987,0)" xlink:href="#aR"/><use transform="matrix(0.04999999999999987,0,0,0.04999999999999987,57.949999999999854,0)" xlink:href="#aS"/></g><path fill="#2e2f27" d="M147 0L96-86 75-71V0H25v-261h50v150l67-79h53l-66 74L201 0h-54" id="aT"/><g id="u"><use transform="matrix(0.04999999999999987,0,0,0.04999999999999987,0,0)" xlink:href="#ay"/><use transform="matrix(0.04999999999999987,0,0,0.04999999999999987,6.999999999999982,0)" xlink:href="#ax"/><use transform="matrix(0.04999999999999987,0,0,0.04999999999999987,16.999999999999957,0)" xlink:href="#aq"/><use transform="matrix(0.04999999999999987,0,0,0.04999999999999987,27.94999999999993,0)" xlink:href="#aT"/></g><g id="v"><use transform="matrix(0.04999999999999987,0,0,0.04999999999999987,0,0)" xlink:href="#ax"/><use transform="matrix(0.04999999999999987,0,0,0.04999999999999987,9.999999999999973,0)" xlink:href="#aq"/><use transform="matrix(0.04999999999999987,0,0,0.04999999999999987,20.949999999999946,0)" xlink:href="#aw"/></g><g id="w"><use transform="matrix(0.04999999999999987,0,0,0.04999999999999987,0,0)" xlink:href="#ax"/><use transform="matrix(0.04999999999999987,0,0,0.04999999999999987,9.999999999999973,0)" xlink:href="#at"/><use transform="matrix(0.04999999999999987,0,0,0.04999999999999987,20.949999999999946,0)" xlink:href="#at"/><use transform="matrix(0.04999999999999987,0,0,0.04999999999999987,31.899999999999917,0)" xlink:href="#ay"/><use transform="matrix(0.04999999999999987,0,0,0.04999999999999987,38.8999999999999,0)" xlink:href="#ap"/><use transform="matrix(0.04999999999999987,0,0,0.04999999999999987,48.89999999999987,0)" xlink:href="#at"/><use transform="matrix(0.04999999999999987,0,0,0.04999999999999987,59.84999999999983,0)" xlink:href="#ax"/><use transform="matrix(0.04999999999999987,0,0,0.04999999999999987,69.84999999999981,0)" xlink:href="#ar"/><use transform="matrix(0.04999999999999987,0,0,0.04999999999999987,75.7999999999998,0)" xlink:href="#ap"/></g><path fill="#fff" d="M54-142c48-35 137-8 131 61C196 18 31 33 14-55l32-4c7 23 22 37 52 37 35-1 51-22 54-58 4-55-73-65-99-34H22l8-134h141v27H59" id="aU"/><use transform="matrix(0.05,0,0,0.05,0,0)" xlink:href="#aU" id="x"/><path fill="#fff" d="M110-160c48 1 74 30 74 79 0 53-28 85-80 85-65 0-83-55-86-122-5-90 50-162 133-122 14 7 22 21 27 39l-31 6c-5-40-67-38-82-6-9 19-15 44-15 74 11-20 30-34 60-33zm-7 138c34 0 49-23 49-58s-16-56-50-56c-29 0-50 16-49 49 1 36 15 65 50 65" id="aV"/><use transform="matrix(0.05,0,0,0.05,0,0)" xlink:href="#aV" id="y"/><path fill="#fff" d="M64 0c3-98 48-159 88-221H18v-27h164v26C143-157 98-101 97 0H64" id="aW"/><use transform="matrix(0.05,0,0,0.05,0,0)" xlink:href="#aW" id="z"/><path fill="#fff" d="M99-251c64 0 84 50 84 122C183-37 130 33 47-8c-14-7-20-23-25-40l30-5c6 39 69 39 84 7 9-19 16-44 16-74-10 22-31 35-62 35-49 0-73-33-73-83 0-54 28-83 82-83zm-1 141c31-1 51-18 51-49 0-36-14-67-51-67-34 0-49 23-49 58 0 34 15 58 49 58" id="aX"/><use transform="matrix(0.05,0,0,0.05,0,0)" xlink:href="#aX" id="A"/><path fill="#fff" d="M96-169c-40 0-48 33-48 73s9 75 48 75c24 0 41-14 43-38l32 2c-6 37-31 61-74 61-59 0-76-41-82-99-10-93 101-131 147-64 4 7 5 14 7 22l-32 3c-4-21-16-35-41-35" id="aY"/><path fill="#fff" d="M101-234c-31-9-42 10-38 44h38v23H63V0H32v-167H5v-23h27c-7-52 17-82 69-68v24" id="aZ"/><path fill="#fff" d="M177-190C167-65 218 103 67 71c-23-6-38-20-44-43l32-5c15 47 100 32 89-28v-30C133-14 115 1 83 1 29 1 15-40 15-95c0-56 16-97 71-98 29-1 48 16 59 35 1-10 0-23 2-32h30zM94-22c36 0 50-32 50-73 0-42-14-75-50-75-39 0-46 34-46 75s6 73 46 73" id="ba"/><g id="B"><use transform="matrix(0.05,0,0,0.05,0,0)" xlink:href="#aY"/><use transform="matrix(0.05,0,0,0.05,9,0)" xlink:href="#aZ"/><use transform="matrix(0.05,0,0,0.05,14,0)" xlink:href="#ba"/></g><path fill="#fff" d="M101-251c68 0 85 55 85 127S166 4 100 4C33 4 14-52 14-124c0-73 17-127 87-127zm-1 229c47 0 54-49 54-102s-4-102-53-102c-51 0-55 48-55 102 0 53 5 102 54 102" id="bb"/><use transform="matrix(0.05,0,0,0.05,0,0)" xlink:href="#bb" id="C"/><path fill="#fff" d="M27 0v-27h64v-190l-56 39v-29l58-41h29v221h61V0H27" id="bc"/><use transform="matrix(0.05,0,0,0.05,0,0)" xlink:href="#bc" id="D"/><path fill="#fff" d="M101-251c82-7 93 87 43 132L82-64C71-53 59-42 53-27h129V0H18c2-99 128-94 128-182 0-28-16-43-45-43s-46 15-49 41l-32-3c6-41 34-60 81-64" id="bd"/><use transform="matrix(0.05,0,0,0.05,0,0)" xlink:href="#bd" id="E"/><path fill="#fff" d="M24 0v-261h32V0H24" id="be"/><path fill="#fff" d="M135-143c-3-34-86-38-87 0 15 53 115 12 119 90S17 21 10-45l28-5c4 36 97 45 98 0-10-56-113-15-118-90-4-57 82-63 122-42 12 7 21 19 24 35" id="bf"/><path fill="#fff" d="M114-163C36-179 61-72 57 0H25l-1-190h30c1 12-1 29 2 39 6-27 23-49 58-41v29" id="bg"/><path fill="#fff" d="M108 0H70L1-190h34L89-25l56-165h34" id="bh"/><g id="F"><use transform="matrix(0.05,0,0,0.05,0,0)" xlink:href="#be"/><use transform="matrix(0.05,0,0,0.05,3.95,0)" xlink:href="#af"/><use transform="matrix(0.05,0,0,0.05,13.949999999999998,0)" xlink:href="#ba"/><use transform="matrix(0.05,0,0,0.05,23.95,0)" xlink:href="#bf"/><use transform="matrix(0.05,0,0,0.05,32.95,0)" xlink:href="#bg"/><use transform="matrix(0.05,0,0,0.05,38.900000000000006,0)" xlink:href="#bh"/></g><path fill="#2e2f27" d="M25 0v-261h50V0H25" id="bi"/><g id="G"><use transform="matrix(0.04999999999999987,0,0,0.04999999999999987,0,0)" xlink:href="#ak"/><use transform="matrix(0.04999999999999987,0,0,0.04999999999999987,12.949999999999967,0)" xlink:href="#ap"/><use transform="matrix(0.04999999999999987,0,0,0.04999999999999987,22.94999999999994,0)" xlink:href="#av"/><use transform="matrix(0.04999999999999987,0,0,0.04999999999999987,33.899999999999906,0)" xlink:href="#bi"/><use transform="matrix(0.04999999999999987,0,0,0.04999999999999987,38.89999999999989,0)" xlink:href="#al"/><use transform="matrix(0.04999999999999987,0,0,0.04999999999999987,49.849999999999866,0)" xlink:href="#aP"/></g></defs></g></svg>