<svg id="Layer_1" data-name="Layer 1" xmlns="http://www.w3.org/2000/svg" xmlns:xlink="http://www.w3.org/1999/xlink" viewBox="0 0 426.73 150"><defs><style>.cls-1{fill:none;clip-rule:evenodd;}.cls-2{fill:#ff9d4b;}.cls-3{fill:url(#linear-gradient);}.cls-4{fill:#1a7db6;}.cls-5{fill:url(#linear-gradient-2);}.cls-6{fill:#303030;}.cls-7{clip-path:url(#clip-path);}.cls-8{clip-path:url(#clip-path-2);}.cls-9{clip-path:url(#clip-path-3);}.cls-10{clip-path:url(#clip-path-4);}.cls-11{clip-path:url(#clip-path-5);}.cls-12{clip-path:url(#clip-path-6);}.cls-13{clip-path:url(#clip-path-7);}.cls-14{clip-path:url(#clip-path-8);}.cls-15{clip-path:url(#clip-path-9);}.cls-16{clip-path:url(#clip-path-10);}.cls-17{clip-path:url(#clip-path-11);}.cls-18{clip-path:url(#clip-path-12);}.cls-19{clip-path:url(#clip-path-13);}.cls-20{clip-path:url(#clip-path-14);}.cls-21{clip-path:url(#clip-path-15);}.cls-22{clip-path:url(#clip-path-16);}.cls-23{clip-path:url(#clip-path-17);}.cls-24{clip-path:url(#clip-path-18);}.cls-25{clip-path:url(#clip-path-19);}.cls-26{clip-path:url(#clip-path-20);}.cls-27{clip-path:url(#clip-path-21);}.cls-28{clip-path:url(#clip-path-22);}.cls-29{clip-path:url(#clip-path-23);}.cls-30{clip-path:url(#clip-path-24);}.cls-31{clip-path:url(#clip-path-25);}</style><linearGradient id="linear-gradient" x1="1791.84" y1="44.83" x2="1746.77" y2="73.4" gradientTransform="matrix(-1, 0, 0, 1, 1873.68, 0)" gradientUnits="userSpaceOnUse"><stop offset="0.01" stop-color="#c6783e"/><stop offset="0.54" stop-color="#ff9750"/></linearGradient><linearGradient id="linear-gradient-2" x1="51.38" y1="104.56" x2="-24.88" y2="63" gradientUnits="userSpaceOnUse"><stop offset="0" stop-color="#005a8e"/><stop offset="0.54" stop-color="#1a7db6"/></linearGradient><clipPath id="clip-path"><polygon class="cls-1" points="350.21 -1264.69 610.21 -1165.35 610.21 -1426.02 350.21 -1525.35 350.21 -1264.69"/></clipPath><clipPath id="clip-path-2"><path class="cls-1" d="M474.91-1449.71a6.31,6.31,0,0,1-6.3-6.32,6.3,6.3,0,0,1,6.3-6.32,6.3,6.3,0,0,1,6.3,6.32,6.3,6.3,0,0,1-6.3,6.32"/></clipPath><clipPath id="clip-path-3"><path class="cls-1" d="M474.91-1393.24a6.31,6.31,0,0,1-6.3-6.32,6.3,6.3,0,0,1,6.3-6.32,6.3,6.3,0,0,1,6.3,6.32,6.3,6.3,0,0,1-6.3,6.32"/></clipPath><clipPath id="clip-path-4"><path class="cls-1" d="M474.91-1336.77a6.31,6.31,0,0,1-6.3-6.32,6.31,6.31,0,0,1,6.3-6.32,6.3,6.3,0,0,1,6.3,6.32,6.3,6.3,0,0,1-6.3,6.32"/></clipPath><clipPath id="clip-path-5"><path class="cls-1" d="M474.91-1282a6.31,6.31,0,0,1-6.3-6.33,6.31,6.31,0,0,1,6.3-6.32,6.3,6.3,0,0,1,6.3,6.32,6.31,6.31,0,0,1-6.3,6.33"/></clipPath><clipPath id="clip-path-6"><path class="cls-1" d="M474.91-1223.83a6.31,6.31,0,0,1-6.3-6.32,6.31,6.31,0,0,1,6.3-6.32,6.3,6.3,0,0,1,6.3,6.32,6.3,6.3,0,0,1-6.3,6.32"/></clipPath><clipPath id="clip-path-7"><path class="cls-1" d="M474.91-1167.35a6.32,6.32,0,0,1-6.3-6.33,6.31,6.31,0,0,1,6.3-6.32,6.3,6.3,0,0,1,6.3,6.32,6.31,6.31,0,0,1-6.3,6.33"/></clipPath><clipPath id="clip-path-8"><path class="cls-1" d="M421.15-1449.71a6.31,6.31,0,0,1-6.3-6.32,6.3,6.3,0,0,1,6.3-6.32,6.3,6.3,0,0,1,6.3,6.32,6.3,6.3,0,0,1-6.3,6.32"/></clipPath><clipPath id="clip-path-9"><path class="cls-1" d="M421.15-1393.24a6.31,6.31,0,0,1-6.3-6.32,6.3,6.3,0,0,1,6.3-6.32,6.3,6.3,0,0,1,6.3,6.32,6.3,6.3,0,0,1-6.3,6.32"/></clipPath><clipPath id="clip-path-10"><path class="cls-1" d="M421.15-1336.77a6.31,6.31,0,0,1-6.3-6.32,6.31,6.31,0,0,1,6.3-6.32,6.3,6.3,0,0,1,6.3,6.32,6.3,6.3,0,0,1-6.3,6.32"/></clipPath><clipPath id="clip-path-11"><path class="cls-1" d="M421.15-1282a6.31,6.31,0,0,1-6.3-6.33,6.31,6.31,0,0,1,6.3-6.32,6.3,6.3,0,0,1,6.3,6.32,6.31,6.31,0,0,1-6.3,6.33"/></clipPath><clipPath id="clip-path-12"><path class="cls-1" d="M421.15-1223.83a6.31,6.31,0,0,1-6.3-6.32,6.31,6.31,0,0,1,6.3-6.32,6.3,6.3,0,0,1,6.3,6.32,6.3,6.3,0,0,1-6.3,6.32"/></clipPath><clipPath id="clip-path-13"><path class="cls-1" d="M421.15-1167.35a6.32,6.32,0,0,1-6.3-6.33,6.31,6.31,0,0,1,6.3-6.32,6.3,6.3,0,0,1,6.3,6.32,6.31,6.31,0,0,1-6.3,6.33"/></clipPath><clipPath id="clip-path-14"><path class="cls-1" d="M370.75-1449.71a6.31,6.31,0,0,1-6.3-6.32,6.3,6.3,0,0,1,6.3-6.32,6.3,6.3,0,0,1,6.3,6.32,6.3,6.3,0,0,1-6.3,6.32"/></clipPath><clipPath id="clip-path-15"><path class="cls-1" d="M370.75-1393.24a6.31,6.31,0,0,1-6.3-6.32,6.3,6.3,0,0,1,6.3-6.32,6.3,6.3,0,0,1,6.3,6.32,6.3,6.3,0,0,1-6.3,6.32"/></clipPath><clipPath id="clip-path-16"><path class="cls-1" d="M370.75-1336.77a6.31,6.31,0,0,1-6.3-6.32,6.31,6.31,0,0,1,6.3-6.32,6.3,6.3,0,0,1,6.3,6.32,6.3,6.3,0,0,1-6.3,6.32"/></clipPath><clipPath id="clip-path-17"><path class="cls-1" d="M370.75-1282a6.31,6.31,0,0,1-6.3-6.33,6.31,6.31,0,0,1,6.3-6.32,6.3,6.3,0,0,1,6.3,6.32,6.31,6.31,0,0,1-6.3,6.33"/></clipPath><clipPath id="clip-path-18"><path class="cls-1" d="M370.75-1223.83a6.31,6.31,0,0,1-6.3-6.32,6.31,6.31,0,0,1,6.3-6.32,6.3,6.3,0,0,1,6.3,6.32,6.3,6.3,0,0,1-6.3,6.32"/></clipPath><clipPath id="clip-path-19"><path class="cls-1" d="M370.75-1167.35a6.32,6.32,0,0,1-6.3-6.33,6.31,6.31,0,0,1,6.3-6.32,6.3,6.3,0,0,1,6.3,6.32,6.31,6.31,0,0,1-6.3,6.33"/></clipPath><clipPath id="clip-path-20"><path class="cls-1" d="M319.51-1449.71a6.31,6.31,0,0,1-6.3-6.32,6.3,6.3,0,0,1,6.3-6.32,6.3,6.3,0,0,1,6.3,6.32,6.3,6.3,0,0,1-6.3,6.32"/></clipPath><clipPath id="clip-path-21"><path class="cls-1" d="M319.51-1393.24a6.31,6.31,0,0,1-6.3-6.32,6.3,6.3,0,0,1,6.3-6.32,6.3,6.3,0,0,1,6.3,6.32,6.3,6.3,0,0,1-6.3,6.32"/></clipPath><clipPath id="clip-path-22"><path class="cls-1" d="M319.51-1336.77a6.31,6.31,0,0,1-6.3-6.32,6.31,6.31,0,0,1,6.3-6.32,6.3,6.3,0,0,1,6.3,6.32,6.3,6.3,0,0,1-6.3,6.32"/></clipPath><clipPath id="clip-path-23"><path class="cls-1" d="M319.51-1282a6.31,6.31,0,0,1-6.3-6.33,6.31,6.31,0,0,1,6.3-6.32,6.3,6.3,0,0,1,6.3,6.32,6.31,6.31,0,0,1-6.3,6.33"/></clipPath><clipPath id="clip-path-24"><path class="cls-1" d="M319.51-1223.83a6.31,6.31,0,0,1-6.3-6.32,6.31,6.31,0,0,1,6.3-6.32,6.3,6.3,0,0,1,6.3,6.32,6.3,6.3,0,0,1-6.3,6.32"/></clipPath><clipPath id="clip-path-25"><path class="cls-1" d="M319.51-1167.35a6.32,6.32,0,0,1-6.3-6.33,6.31,6.31,0,0,1,6.3-6.32,6.3,6.3,0,0,1,6.3,6.32,6.31,6.31,0,0,1-6.3,6.33"/></clipPath></defs><polygon class="cls-2" points="75.5 10 24.76 44.46 24.76 103.78 75.5 68.02 126.24 103.78 126.24 44.46 75.5 10"/><polygon class="cls-3" points="75.5 68.02 75.5 10 126.24 44.46 126.24 103.78 75.5 68.02"/><polygon class="cls-4" points="55.74 81.99 5 46.22 5 105.54 55.74 140 106.48 105.54 106.48 46.22 55.74 81.99"/><polygon class="cls-5" points="55.74 81.99 55.74 140 5 105.54 5 46.22 55.74 81.99"/><path class="cls-6" d="M186.06,102.13H170.93a.91.91,0,0,1-.85-.61L151.59,48.23a.9.9,0,0,1,.85-1.2h7.89a8.49,8.49,0,0,1,8.19,6.22l10,35.82h.3l9.93-35.81A8.5,8.5,0,0,1,196.92,47h7.54a.9.9,0,0,1,.85,1.2l-18.4,53.29A.9.9,0,0,1,186.06,102.13Z"/><path class="cls-6" d="M283.69,46.08c13.19,0,22.1,6.53,22.83,16.49a.91.91,0,0,1-.9,1H293.85a.9.9,0,0,1-.89-.74c-.64-3.92-4.19-6.36-9.47-6.36s-8.75,2.35-8.75,5.9c0,2.76,2.4,4.61,7.35,5.76l10.36,2.25c11.06,2.5,15.46,6.76,15.46,15,0,10.71-9.86,17.77-24.27,17.77-14,0-23-6.56-24.27-16.6a.91.91,0,0,1,.9-1h12.52a.89.89,0,0,1,.87.69c1,4.22,4.63,6.57,10.38,6.57s9.36-2.25,9.36-5.86c0-2.85-1.9-4.35-6.9-5.55L276.34,79C266,76.66,260.62,71.3,260.62,63.24,260.62,52.89,269.73,46.08,283.69,46.08Z"/><path class="cls-6" d="M367.44,74.55c0,17.52-8.6,28.23-22.42,28.23-7.95,0-14.11-3.66-17.11-9.91h-.3v18.77a8.49,8.49,0,0,1-8.5,8.5H313.9a.9.9,0,0,1-.9-.9V47.93a.9.9,0,0,1,.9-.9h12.61a.9.9,0,0,1,.9.9v8.51h.3c2.9-6.21,9.36-10.06,17.11-10.06C358.79,46.38,367.44,57,367.44,74.55Zm-15,0c0-9.9-5-16.36-12.51-16.36s-12.41,6.56-12.41,16.41S332.51,91,340,91,352.48,84.56,352.48,74.55Z"/><path class="cls-6" d="M371.83,86.26c0-10,7.65-15.66,21.72-16.51l12.91-.8a.9.9,0,0,0,.85-.9v-2.8c0-5.31-3.66-8.21-9.66-8.21-5,0-8.59,2.5-9.56,6.15a.94.94,0,0,1-.9.66H375.55a.89.89,0,0,1-.91-1c.93-10,10.27-16.8,23.61-16.8,14.16,0,23.42,7.26,23.42,18.27v36.88a.9.9,0,0,1-.9.9h-4.71a8.51,8.51,0,0,1-8.5-8.51h-.3c-3,5.75-9.81,9.16-16.87,9.16C379.78,102.78,371.83,96.12,371.83,86.26Zm35.48-4.35v-4l-11.56.8c-6.11.4-9.36,2.8-9.36,6.85s3.45,6.61,8.76,6.61C401.9,92.12,407.31,87.91,407.31,81.91Z"/><path class="cls-6" d="M229.45,46.08C213.28,46.08,203,57.29,203,74.81s10.26,28.27,27,28.27c12.48,0,22-6.16,24.52-15.6a1.71,1.71,0,0,0-1.64-2.17H242.65a1.86,1.86,0,0,0-1.53,1c-1.71,3.67-5.8,5.88-10.87,5.88a12.63,12.63,0,0,1-9.32-3.67,13.58,13.58,0,0,1-3.54-9.64V78h36.33a1.7,1.7,0,0,0,1.7-1.7V73.45C255.42,56.69,245.31,46.08,229.45,46.08ZM217.54,68.9C218,61.84,222.94,57,229.6,57s11.46,4.7,11.71,11.91Z"/></svg>